Halibut Variable.glyphspackage
{
glyphname = exclam;
layers = (
{
layerId = "0CCC0E2D-406A-4672-8E6C-854B1DF78A27";
shapes = (
{
closed = 1;
nodes = (
(140,145,l),
(130,145,l),
(100,720,l),
(170,720,l)
);
},
{
pos = (30,-540);
ref = dotaccentcomb;
}
);
width = 280;
},
{
layerId = m002;
shapes = (
{
closed = 1;
nodes = (
(156,145,l),
(130,145,l),
(84,720,l),
(200,720,l)
);
},
{
pos = (35,-540);
ref = dotaccentcomb;
}
);
width = 294;
},
{
layerId = m003;
shapes = (
{
closed = 1;
nodes = (
(108,145,l),
(88,145,l),
(45,713,l),
(151,713,l)
);
},
{
pos = (17,-540);
ref = dotaccentcomb;
}
);
width = 216;
},
{
layerId = "2C26E880-80A5-4D19-8A94-7D905A372841";
shapes = (
{
closed = 1;
nodes = (
(105,145,l),
(85,145,l),
(70,700,l),
(120,700,l)
);
},
{
alignment = -1;
pos = (14,-520);
ref = dotaccentcomb;
}
);
width = 210;
}
);
unicode = 33;
}
{
glyphname = numbersign;
layers = (
{
layerId = "0CCC0E2D-406A-4672-8E6C-854B1DF78A27";
shapes = (
{
closed = 1;
nodes = (
(192,175,l),
(156,0,l),
(183,0,l),
(219,175,l),
(476,175,l),
(440,0,l),
(468,0,l),
(504,175,l),
(688,175,l),
(688,200,l),
(509,200,l),
(548,395,l),
(724,395,l),
(724,420,l),
(553,420,l),
(590,600,l),
(562,600,l),
(525,420,l),
(268,420,l),
(305,600,l),
(278,600,l),
(241,420,l),
(62,420,l),
(62,395,l),
(236,395,l),
(197,200,l),
(20,200,l),
(20,175,l)
);
},
{
closed = 1;
nodes = (
(263,395,l),
(520,395,l),
(481,200,l),
(224,200,l)
);
}
);
width = 744;
},
{
layerId = m002;
shapes = (
{
closed = 1;
nodes = (
(173,159,l),
(140,0,l),
(192,0,l),
(224,159,l),
(465,159,l),
(432,0,l),
(484,0,l),
(515,159,l),
(704,159,l),
(704,208,l),
(525,208,l),
(562,387,l),
(740,387,l),
(740,436,l),
(572,436,l),
(606,600,l),
(554,600,l),
(520,436,l),
(280,436,l),
(314,600,l),
(262,600,l),
(228,436,l),
(46,436,l),
(46,387,l),
(219,387,l),
(182,208,l),
(4,208,l),
(4,159,l)
);
},
{
closed = 1;
nodes = (
(271,387,l),
(511,387,l),
(474,208,l),
(234,208,l)
);
}
);
width = 744;
},
{
background = {
shapes = (
{
closed = 1;
nodes = (
(250,600,l),
(212,600,l),
(90,0,l),
(128,0,l)
);
},
{
closed = 1;
nodes = (
(234,0,l),
(272,0,l),
(394,600,l),
(356,600,l)
);
},
{
closed = 1;
nodes = (
(474,420,l),
(67,420,l),
(67,385,l),
(474,385,l)
);
},
{
closed = 1;
nodes = (
(417,210,l),
(10,210,l),
(10,175,l),
(417,175,l)
);
}
);
};
layerId = m003;
shapes = (
{
closed = 1;
nodes = (
(123,173,l),
(88,0,l),
(130,0,l),
(165,173,l),
(269,173,l),
(233,0,l),
(275,0,l),
(310,173,l),
(420,173,l),
(420,211,l),
(318,211,l),
(353,384,l),
(477,384,l),
(477,422,l),
(360,422,l),
(397,600,l),
(355,600,l),
(319,422,l),
(215,422,l),
(252,600,l),
(210,600,l),
(174,422,l),
(65,422,l),
(65,384,l),
(166,384,l),
(131,211,l),
(8,211,l),
(8,173,l)
);
},
{
closed = 1;
nodes = (
(208,384,l),
(311,384,l),
(276,211,l),
(173,211,l)
);
}
);
width = 485;
},
{
layerId = "2C26E880-80A5-4D19-8A94-7D905A372841";
shapes = (
{
closed = 1;
nodes = (
(139,184,l),
(100,0,l),
(123,0,l),
(162,184,l),
(278,184,l),
(240,0,l),
(264,0,l),
(302,184,l),
(409,184,l),
(409,205,l),
(306,205,l),
(342,390,l),
(466,390,l),
(466,411,l),
(346,411,l),
(386,600,l),
(362,600,l),
(322,411,l),
(206,411,l),
(245,600,l),
(222,600,l),
(183,411,l),
(77,411,l),
(77,390,l),
(179,390,l),
(143,205,l),
(20,205,l),
(20,184,l)
);
},
{
closed = 1;
nodes = (
(202,390,l),
(318,390,l),
(282,205,l),
(166,205,l)
);
}
);
width = 486;
}
);
unicode = 35;
}
{
glyphname = parenleft;
layers = (
{
layerId = "0CCC0E2D-406A-4672-8E6C-854B1DF78A27";
shapes = (
{
closed = 1;
nodes = (
(170,596,o),
(110,441,o),
(110,291,cs),
(110,147,o),
(168,-11,o),
(259,-118,c),
(277,-105,l),
(190,26,o),
(148,162,o),
(148,291,cs),
(148,420,o),
(190,556,o),
(277,687,c),
(259,700,l)
);
}
);
width = 347;
},
{
layerId = m002;
shapes = (
{
closed = 1;
nodes = (
(165,555,o),
(94,406,o),
(94,291,cs),
(94,168,o),
(172,18,o),
(289,-118,c),
(307,-105,l),
(239,-2,o),
(189,155,o),
(189,291,cs),
(189,427,o),
(239,584,o),
(307,687,c),
(289,700,l)
);
}
);
width = 361;
},
{
layerId = m003;
shapes = (
{
closed = 1;
nodes = (
(158,572,o),
(98,434,o),
(98,291,cs),
(98,151,o),
(155,14,o),
(259,-108,c),
(277,-95,l),
(213,2,o),
(177,137,o),
(177,291,cs),
(177,445,o),
(213,580,o),
(277,677,c),
(259,690,l)
);
}
);
width = 335;
},
{
layerId = "2C26E880-80A5-4D19-8A94-7D905A372841";
shapes = (
{
closed = 1;
nodes = (
(154,595,o),
(109,453,o),
(109,291,cs),
(109,135,o),
(152,-10,o),
(235,-108,c),
(253,-95,l),
(175,23,o),
(142,144,o),
(142,291,cs),
(142,438,o),
(175,559,o),
(253,677,c),
(235,690,l)
);
}
);
width = 323;
}
);
unicode = 40;
}
{
glyphname = hyphen;
layers = (
{
layerId = "0CCC0E2D-406A-4672-8E6C-854B1DF78A27";
shapes = (
{
closed = 1;
nodes = (
(90,232,l),
(530,219,l),
(530,259,l),
(90,246,l)
);
}
);
width = 620;
},
{
layerId = m002;
shapes = (
{
closed = 1;
nodes = (
(74,228,l),
(514,195,l),
(514,283,l),
(74,251,l)
);
}
);
width = 588;
},
{
layerId = m003;
shapes = (
{
closed = 1;
nodes = (
(78,235,l),
(318,213,l),
(318,271,l),
(78,249,l)
);
}
);
width = 396;
},
{
layerId = "2C26E880-80A5-4D19-8A94-7D905A372841";
shapes = (
{
closed = 1;
nodes = (
(90,235,l),
(330,222,l),
(330,262,l),
(90,249,l)
);
}
);
width = 420;
}
);
unicode = 45;
}
{
glyphname = zero;
kernLeft = zero;
kernRight = zero;
layers = (
{
layerId = "0CCC0E2D-406A-4672-8E6C-854B1DF78A27";
shapes = (
{
closed = 1;
nodes = (
(621,-20,o),
(762,113,o),
(762,310,cs),
(762,502,o),
(629,625,o),
(421,625,cs),
(204,625,o),
(60,496,o),
(60,302,cs),
(60,111,o),
(203,-20,o),
(412,-20,cs)
);
},
{
closed = 1;
nodes = (
(230,15,o),
(102,134,o),
(102,308,cs),
(102,476,o),
(230,590,o),
(419,590,cs),
(602,590,o),
(720,479,o),
(720,305,cs),
(720,130,o),
(599,15,o),
(416,15,cs)
);
}
);
width = 822;
},
{
layerId = m002;
shapes = (
{
closed = 1;
nodes = (
(648,-20,o),
(817,129,o),
(817,326,cs),
(817,503,o),
(671,625,o),
(456,625,cs),
(222,625,o),
(44,477,o),
(44,286,cs),
(44,110,o),
(198,-20,o),
(416,-20,cs)
);
},
{
closed = 1;
nodes = (
(287,31,o),
(152,159,o),
(152,324,cs),
(152,481,o),
(248,574,o),
(423,574,cs),
(579,574,o),
(709,451,o),
(709,289,cs),
(709,129,o),
(620,31,o),
(451,31,cs)
);
}
);
width = 861;
},
{
layerId = m003;
shapes = (
{
closed = 1;
nodes = (
(343,-20,o),
(418,103,o),
(418,322,cs),
(418,510,o),
(351,620,o),
(242,620,cs),
(104,620,o),
(28,501,o),
(28,290,cs),
(28,91,o),
(94,-20,o),
(212,-20,cs)
);
},
{
closed = 1;
nodes = (
(154,24,o),
(113,128,o),
(113,320,cs),
(113,484,o),
(156,578,o),
(232,578,cs),
(296,578,o),
(333,475,o),
(333,293,cs),
(333,121,o),
(295,24,o),
(228,24,cs)
);
}
);
width = 446;
},
{
layerId = "2C26E880-80A5-4D19-8A94-7D905A372841";
shapes = (
{
closed = 1;
nodes = (
(315,-20,o),
(372,93,o),
(372,311,cs),
(372,525,o),
(323,620,o),
(213,620,cs),
(98,620,o),
(40,514,o),
(40,301,cs),
(40,91,o),
(97,-20,o),
(206,-20,cs)
);
},
{
closed = 1;
nodes = (
(127,10,o),
(77,123,o),
(77,311,cs),
(77,495,o),
(124,590,o),
(208,590,cs),
(293,590,o),
(335,490,o),
(335,304,cs),
(335,113,o),
(292,10,o),
(211,10,cs)
);
}
);
width = 412;
}
);
unicode = 48;
}
{
glyphname = one;
kernLeft = one;
kernRight = one;
layers = (
{
layerId = "0CCC0E2D-406A-4672-8E6C-854B1DF78A27";
shapes = (
{
closed = 1;
nodes = (
(217,511,l),
(217,50,l),
(37,8,l),
(39,0,l),
(432,0,l),
(434,8,l),
(254,50,l),
(251,620,l),
(30,468,l),
(32,460,l)
);
}
);
width = 464;
},
{
layerId = m002;
shapes = (
{
closed = 1;
nodes = (
(201,501,l),
(201,50,l),
(21,8,l),
(23,0,l),
(475,0,l),
(477,8,l),
(297,50,l),
(298,620,l),
(14,468,l),
(16,460,l)
);
}
);
width = 491;
},
{
layerId = m003;
shapes = (
{
closed = 1;
nodes = (
(115,504,l),
(115,45,l),
(25,8,l),
(27,0,l),
(282,0,l),
(284,8,l),
(194,45,l),
(194,620,l),
(18,483,l),
(20,475,l)
);
}
);
width = 302;
},
{
layerId = "2C26E880-80A5-4D19-8A94-7D905A372841";
shapes = (
{
closed = 1;
nodes = (
(127,516,l),
(127,45,l),
(37,8,l),
(39,0,l),
(250,0,l),
(252,8,l),
(162,45,l),
(162,620,l),
(30,493,l),
(32,485,l)
);
}
);
width = 282;
}
);
unicode = 49;
}
{
glyphname = four;
kernLeft = four;
layers = (
{
associatedMasterId = "0CCC0E2D-406A-4672-8E6C-854B1DF78A27";
layerId = "FB1E4D2F-4A7F-438C-B588-17DA32FC1B66";
name = "Extended Apr 9 18, 21:59";
shapes = (
{
closed = 1;
nodes = (
(412,0,l),
(787,0,l),
(789,6,l),
(639,50,l),
(639,559,l),
(635,561,l),
(565,521,l),
(565,50,l),
(410,6,l)
);
},
{
closed = 1;
nodes = (
(780,147,l),
(780,187,l),
(131,187,l),
(639,520,l),
(639,608,l),
(635,610,l),
(40,167,l),
(40,147,l)
);
}
);
width = 890;
},
{
layerId = "0CCC0E2D-406A-4672-8E6C-854B1DF78A27";
shapes = (
{
closed = 1;
nodes = (
(762,192,l),
(46,192,l),
(42,174,l),
(512,566,l),
(504,570,l),
(504,50,l),
(329,8,l),
(331,0,l),
(669,0,l),
(671,8,l),
(541,50,l),
(541,552,l),
(661,592,l),
(659,600,l),
(504,600,l),
(20,190,l),
(39,165,l),
(762,165,l)
);
}
);
width = 806;
},
{
associatedMasterId = "0CCC0E2D-406A-4672-8E6C-854B1DF78A27";
layerId = "FFA7C580-BDFD-4F54-B294-0CD4CC73976D";
name = "Extended Apr 9 18, 21:59";
shapes = (
{
closed = 1;
nodes = (
(412,0,l),
(787,0,l),
(789,6,l),
(639,50,l),
(639,559,l),
(635,561,l),
(565,521,l),
(565,50,l),
(410,6,l)
);
},
{
closed = 1;
nodes = (
(780,147,l),
(780,187,l),
(131,187,l),
(639,520,l),
(639,608,l),
(635,610,l),
(40,167,l),
(40,147,l)
);
}
);
width = 890;
},
{
associatedMasterId = m002;
layerId = "77E6F477-00D6-455C-AB68-B24842D7E90D";
name = "Extended Apr 9 18, 21:59";
shapes = (
{
closed = 1;
nodes = (
(412,0,l),
(787,0,l),
(789,6,l),
(639,50,l),
(639,559,l),
(635,561,l),
(565,521,l),
(565,50,l),
(410,6,l)
);
},
{
closed = 1;
nodes = (
(780,147,l),
(780,187,l),
(131,187,l),
(639,520,l),
(639,608,l),
(635,610,l),
(40,167,l),
(40,147,l)
);
}
);
width = 890;
},
{
layerId = m002;
shapes = (
{
closed = 1;
nodes = (
(835,200,l),
(68,200,l),
(88,166,l),
(583,553,l),
(526,570,l),
(526,50,l),
(351,8,l),
(353,0,l),
(758,0,l),
(760,8,l),
(630,50,l),
(630,552,l),
(750,592,l),
(748,600,l),
(526,600,l),
(10,198,l),
(29,153,l),
(835,153,l)
);
}
);
width = 863;
},
{
associatedMasterId = m002;
layerId = "988AF1DD-59AD-4067-9885-6F8CA2716BB4";
name = "Extended Apr 9 18, 21:59";
shapes = (
{
closed = 1;
nodes = (
(412,0,l),
(787,0,l),
(789,6,l),
(639,50,l),
(639,559,l),
(635,561,l),
(565,521,l),
(565,50,l),
(410,6,l)
);
},
{
closed = 1;
nodes = (
(780,147,l),
(780,187,l),
(131,187,l),
(639,520,l),
(639,608,l),
(635,610,l),
(40,167,l),
(40,147,l)
);
}
);
width = 890;
},
{
associatedMasterId = m003;
layerId = "95577B6E-5857-48BF-9B55-E2DA1C0CCC8F";
name = "Extended Apr 9 18, 21:59";
shapes = (
{
closed = 1;
nodes = (
(412,0,l),
(787,0,l),
(789,6,l),
(639,50,l),
(639,559,l),
(635,561,l),
(565,521,l),
(565,50,l),
(410,6,l)
);
},
{
closed = 1;
nodes = (
(780,147,l),
(780,187,l),
(131,187,l),
(639,520,l),
(639,608,l),
(635,610,l),
(40,167,l),
(40,147,l)
);
}
);
width = 890;
},
{
layerId = m003;
shapes = (
{
closed = 1;
nodes = (
(446,192,l),
(81,192,l),
(99,168,l),
(297,592,l),
(282,576,l),
(282,45,l),
(147,8,l),
(149,0,l),
(472,0,l),
(474,8,l),
(364,45,l),
(364,557,l),
(474,592,l),
(472,600,l),
(242,600,l),
(43,189,l),
(70,158,l),
(446,158,l)
);
}
);
width = 512;
},
{
associatedMasterId = m003;
layerId = "75FD36F9-5D7B-4160-9D9C-638E27ADE4AA";
name = "Extended Apr 9 18, 21:59";
shapes = (
{
closed = 1;
nodes = (
(412,0,l),
(787,0,l),
(789,6,l),
(639,50,l),
(639,559,l),
(635,561,l),
(565,521,l),
(565,50,l),
(410,6,l)
);
},
{
closed = 1;
nodes = (
(780,147,l),
(780,187,l),
(131,187,l),
(639,520,l),
(639,608,l),
(635,610,l),
(40,167,l),
(40,147,l)
);
}
);
width = 890;
},
{
layerId = "2C26E880-80A5-4D19-8A94-7D905A372841";
shapes = (
{
closed = 1;
nodes = (
(395,192,l),
(40,192,l),
(56,174,l),
(293,597,l),
(270,597,l),
(270,45,l),
(135,8,l),
(137,0,l),
(413,0,l),
(415,8,l),
(305,45,l),
(305,557,l),
(415,592,l),
(413,600,l),
(255,600,l),
(20,183,l),
(47,163,l),
(395,163,l)
);
}
);
width = 465;
},
{
associatedMasterId = "2C26E880-80A5-4D19-8A94-7D905A372841";
layerId = "0DD7A61A-4009-48AD-9E19-5D313A4CB8E6";
name = "25 Sep 22, 12:46";
shapes = (
{
closed = 1;
nodes = (
(385,192,l),
(50,192,l),
(66,174,l),
(285,597,l),
(260,597,l),
(260,45,l),
(125,8,l),
(127,0,l),
(403,0,l),
(405,8,l),
(295,45,l),
(295,557,l),
(405,592,l),
(403,600,l),
(245,600,l),
(30,183,l),
(57,163,l),
(385,163,l)
);
}
);
width = 455;
}
);
unicode = 52;
}
{
glyphname = eight;
layers = (
{
layerId = "0CCC0E2D-406A-4672-8E6C-854B1DF78A27";
shapes = (
{
closed = 1;
nodes = (
(516,297,ls),
(681,275,o),
(775,228,o),
(775,158,cs),
(775,59,o),
(667,11,o),
(461,11,cs),
(235,11,o),
(117,64,o),
(117,165,cs),
(117,233,o),
(239,292,o),
(441,310,c),
(399,327,l),
(209,317,o),
(80,247,o),
(80,159,cs),
(80,41,o),
(209,-20,o),
(457,-20,cs),
(690,-20,o),
(812,44,o),
(812,167,cs),
(812,247,o),
(721,299,o),
(533,327,cs),
(351,354,ls),
(222,373,o),
(162,426,o),
(162,481,cs),
(162,550,o),
(274,596,o),
(441,596,cs),
(609,596,o),
(721,547,o),
(721,473,cs),
(721,416,o),
(629,356,o),
(451,334,c),
(491,317,l),
(652,339,o),
(757,402,o),
(757,482,cs),
(757,568,o),
(635,625,o),
(451,625,cs),
(255,625,o),
(125,563,o),
(125,470,cs),
(125,402,o),
(199,340,o),
(369,317,cs)
);
}
);
width = 872;
},
{
associatedMasterId = "0CCC0E2D-406A-4672-8E6C-854B1DF78A27";
layerId = "A73F30E3-5C3F-4359-B30F-453BED66344C";
name = "10 Jan 22, 17:28";
shapes = (
{
closed = 1;
nodes = (
(101,393,o),
(179,334,o),
(301,316,cs),
(539,280,ls),
(697,256,o),
(768,216,o),
(768,152,cs),
(768,78,o),
(651,25,o),
(489,25,cs),
(313,25,o),
(140,104,o),
(140,185,cs),
(140,250,o),
(223,282,o),
(431,297,c),
(403,328,l),
(162,312,o),
(60,261,o),
(60,159,cs),
(60,60,o),
(236,-20,o),
(455,-20,cs),
(684,-20,o),
(848,62,o),
(848,177,cs),
(848,262,o),
(759,316,o),
(573,345,cs),
(334,382,ls),
(229,398,o),
(181,428,o),
(181,477,cs),
(181,539,o),
(274,575,o),
(433,575,cs),
(617,575,o),
(729,527,o),
(729,449,cs),
(729,399,o),
(661,371,o),
(487,352,c),
(510,322,l),
(698,334,o),
(809,390,o),
(809,474,cs),
(809,564,o),
(681,620,o),
(475,620,cs),
(244,620,o),
(101,561,o),
(101,466,cs)
);
}
);
width = 908;
},
{
layerId = m002;
shapes = (
{
closed = 1;
nodes = (
(543,280,ls),
(726,253,o),
(779,211,o),
(779,154,cs),
(779,92,o),
(663,32,o),
(519,32,cs),
(341,32,o),
(167,106,o),
(167,181,cs),
(167,232,o),
(214,283,o),
(449,298,c),
(353,323,l),
(165,297,o),
(64,224,o),
(64,143,cs),
(64,50,o),
(237,-20,o),
(469,-20,cs),
(717,-20,o),
(883,61,o),
(883,183,cs),
(883,252,o),
(792,306,o),
(573,344,cs),
(347,383,ls),
(259,398,o),
(212,431,o),
(212,480,cs),
(212,534,o),
(301,571,o),
(434,571,cs),
(606,571,o),
(724,526,o),
(724,456,cs),
(724,397,o),
(674,377,o),
(539,345,c),
(594,326,l),
(749,356,o),
(828,417,o),
(828,490,cs),
(828,571,o),
(693,625,o),
(494,625,cs),
(264,625,o),
(109,563,o),
(109,469,cs),
(109,378,o),
(199,331,o),
(369,306,cs)
);
}
);
width = 927;
},
{
associatedMasterId = m002;
layerId = "11691F21-C93C-4BF4-9125-ABEAA9530AFA";
name = "10 Jan 22, 17:28";
shapes = (
{
closed = 1;
nodes = (
(101,393,o),
(179,334,o),
(301,316,cs),
(539,280,ls),
(697,256,o),
(768,216,o),
(768,152,cs),
(768,78,o),
(651,25,o),
(489,25,cs),
(313,25,o),
(140,104,o),
(140,185,cs),
(140,250,o),
(223,282,o),
(431,297,c),
(403,328,l),
(162,312,o),
(60,261,o),
(60,159,cs),
(60,60,o),
(236,-20,o),
(455,-20,cs),
(684,-20,o),
(848,62,o),
(848,177,cs),
(848,262,o),
(759,316,o),
(573,345,cs),
(334,382,ls),
(229,398,o),
(181,428,o),
(181,477,cs),
(181,539,o),
(274,575,o),
(433,575,cs),
(617,575,o),
(729,527,o),
(729,449,cs),
(729,399,o),
(661,371,o),
(487,352,c),
(510,322,l),
(698,334,o),
(809,390,o),
(809,474,cs),
(809,564,o),
(681,620,o),
(475,620,cs),
(244,620,o),
(101,561,o),
(101,466,cs)
);
}
);
width = 908;
},
{
layerId = m003;
shapes = (
{
closed = 1;
nodes = (
(259,270,ls),
(317,241,o),
(353,195,o),
(353,159,cs),
(353,78,o),
(317,23,o),
(262,23,cs),
(190,23,o),
(141,87,o),
(141,185,cs),
(141,245,o),
(182,293,o),
(242,301,c),
(235,329,l),
(130,310,o),
(63,241,o),
(63,154,cs),
(63,51,o),
(133,-20,o),
(247,-20,cs),
(361,-20,o),
(431,62,o),
(431,184,cs),
(431,226,o),
(389,286,o),
(321,325,cs),
(253,364,ls),
(200,394,o),
(157,441,o),
(157,477,cs),
(157,538,o),
(188,578,o),
(234,578,cs),
(293,578,o),
(332,529,o),
(332,456,cs),
(332,413,o),
(306,363,o),
(269,340,c),
(278,317,l),
(360,359,o),
(410,428,o),
(410,485,cs),
(410,565,o),
(350,620,o),
(253,620,cs),
(144,620,o),
(79,559,o),
(79,466,cs),
(79,408,o),
(125,337,o),
(205,297,cs)
);
}
);
width = 469;
},
{
associatedMasterId = m003;
layerId = "2940840E-60D5-4D9D-9F8B-F5B6592F6735";
name = "10 Jan 22, 17:28";
shapes = (
{
closed = 1;
nodes = (
(101,393,o),
(179,334,o),
(301,316,cs),
(539,280,ls),
(697,256,o),
(768,216,o),
(768,152,cs),
(768,78,o),
(651,25,o),
(489,25,cs),
(313,25,o),
(140,104,o),
(140,185,cs),
(140,250,o),
(223,282,o),
(431,297,c),
(403,328,l),
(162,312,o),
(60,261,o),
(60,159,cs),
(60,60,o),
(236,-20,o),
(455,-20,cs),
(684,-20,o),
(848,62,o),
(848,177,cs),
(848,262,o),
(759,316,o),
(573,345,cs),
(334,382,ls),
(229,398,o),
(181,428,o),
(181,477,cs),
(181,539,o),
(274,575,o),
(433,575,cs),
(617,575,o),
(729,527,o),
(729,449,cs),
(729,399,o),
(661,371,o),
(487,352,c),
(510,322,l),
(698,334,o),
(809,390,o),
(809,474,cs),
(809,564,o),
(681,620,o),
(475,620,cs),
(244,620,o),
(101,561,o),
(101,466,cs)
);
}
);
width = 908;
},
{
associatedMasterId = m003;
background = {
shapes = (
{
closed = 1;
nodes = (
(259,272,ls),
(315,243,o),
(352,196,o),
(352,155,cs),
(352,74,o),
(314,20,o),
(256,20,cs),
(183,20,o),
(135,82,o),
(135,175,cs),
(135,240,o),
(178,292,o),
(243,305,c),
(234,330,l),
(130,311,o),
(60,238,o),
(60,149,cs),
(60,48,o),
(133,-20,o),
(243,-20,cs),
(353,-20,o),
(427,59,o),
(427,177,cs),
(427,224,o),
(382,282,o),
(315,321,cs),
(247,361,ls),
(189,395,o),
(151,442,o),
(151,480,cs),
(151,540,o),
(184,580,o),
(233,580,cs),
(292,580,o),
(331,533,o),
(331,462,cs),
(331,414,o),
(302,365,o),
(258,339,c),
(269,316,l),
(351,357,o),
(406,425,o),
(406,487,cs),
(406,567,o),
(343,620,o),
(249,620,cs),
(145,620,o),
(76,560,o),
(76,469,cs),
(76,409,o),
(126,342,o),
(202,302,cs)
);
}
);
};
layerId = "200AFA89-265E-4B56-A3B0-5C8FB987E6B2";
name = "11 Mar 22, 10:38";
shapes = (
{
closed = 1;
nodes = (
(86,400,o),
(131,336,o),
(203,304,c),
(205,321,l),
(120,300,o),
(70,237,o),
(70,149,cs),
(70,49,o),
(141,-20,o),
(243,-20,cs),
(343,-20,o),
(417,64,o),
(417,177,cs),
(417,247,o),
(383,286,o),
(276,340,c),
(276,323,l),
(346,353,o),
(396,420,o),
(396,487,cs),
(396,566,o),
(336,620,o),
(249,620,cs),
(156,620,o),
(86,555,o),
(86,469,cs)
);
},
{
closed = 1;
nodes = (
(145,234,o),
(169,275,o),
(216,296,c),
(245,280,ls),
(322,237,o),
(342,212,o),
(342,155,cs),
(342,73,o),
(308,20,o),
(256,20,cs),
(196,20,o),
(145,91,o),
(145,175,cs)
);
},
{
closed = 1;
nodes = (
(161,538,o),
(191,580,o),
(233,580,cs),
(283,580,o),
(321,529,o),
(321,462,cs),
(321,413,o),
(303,371,o),
(269,345,c),
(232,368,ls),
(184,398,o),
(161,432,o),
(161,480,cs)
);
}
);
width = 467;
},
{
associatedMasterId = m002;
layerId = "44E9C56B-2E8D-46CF-B11D-FDB861E90205";
name = "11 Mar 22, 11:51";
shapes = (
{
closed = 1;
nodes = (
(115,387,o),
(207,329,o),
(369,315,c),
(368,324,l),
(181,302,o),
(70,237,o),
(70,149,cs),
(70,47,o),
(227,-20,o),
(465,-20,cs),
(708,-20,o),
(858,55,o),
(858,177,cs),
(858,244,o),
(783,304,o),
(559,336,c),
(564,324,l),
(718,352,o),
(803,412,o),
(803,487,cs),
(803,570,o),
(673,625,o),
(479,625,cs),
(261,625,o),
(115,563,o),
(115,469,cs)
);
},
{
closed = 1;
nodes = (
(150,243,o),
(249,287,o),
(433,301,c),
(534,286,ls),
(711,260,o),
(778,218,o),
(778,155,cs),
(778,80,o),
(664,25,o),
(499,25,cs),
(304,25,o),
(150,91,o),
(150,175,cs)
);
},
{
closed = 1;
nodes = (
(195,540,o),
(292,580,o),
(437,580,cs),
(609,580,o),
(723,533,o),
(723,462,cs),
(723,408,o),
(658,368,o),
(523,345,c),
(349,373,ls),
(244,390,o),
(195,430,o),
(195,480,cs)
);
}
);
width = 908;
},
{
associatedMasterId = "0CCC0E2D-406A-4672-8E6C-854B1DF78A27";
layerId = "093EFC60-6E93-4B90-AED8-F5872E1768B3";
name = "11 Mar 22, 11:51";
shapes = (
{
closed = 1;
nodes = (
(125,394,o),
(226,324,o),
(390,320,c),
(400,327,l),
(212,315,o),
(80,250,o),
(80,159,cs),
(80,41,o),
(209,-20,o),
(457,-20,cs),
(690,-20,o),
(812,44,o),
(812,167,cs),
(812,251,o),
(708,309,o),
(483,331,c),
(492,317,l),
(651,338,o),
(757,403,o),
(757,482,cs),
(757,568,o),
(635,625,o),
(451,625,cs),
(255,625,o),
(125,563,o),
(125,470,cs)
);
},
{
closed = 1;
nodes = (
(117,237,o),
(246,294,o),
(440,309,c),
(516,298,ls),
(681,274,o),
(775,228,o),
(775,158,cs),
(775,59,o),
(667,11,o),
(461,11,cs),
(235,11,o),
(117,64,o),
(117,165,cs)
);
},
{
closed = 1;
nodes = (
(162,550,o),
(274,596,o),
(441,596,cs),
(609,596,o),
(721,547,o),
(721,473,cs),
(721,411,o),
(618,356,o),
(463,336,c),
(351,354,ls),
(222,375,o),
(162,426,o),
(162,481,cs)
);
}
);
width = 872;
},
{
associatedMasterId = m003;
background = {
shapes = (
{
closed = 1;
nodes = (
(259,272,ls),
(315,243,o),
(352,196,o),
(352,155,cs),
(352,74,o),
(314,20,o),
(256,20,cs),
(183,20,o),
(135,82,o),
(135,175,cs),
(135,240,o),
(178,292,o),
(243,305,c),
(234,330,l),
(130,311,o),
(60,238,o),
(60,149,cs),
(60,48,o),
(133,-20,o),
(243,-20,cs),
(353,-20,o),
(427,59,o),
(427,177,cs),
(427,224,o),
(382,282,o),
(315,321,cs),
(247,361,ls),
(189,395,o),
(151,442,o),
(151,480,cs),
(151,540,o),
(184,580,o),
(233,580,cs),
(292,580,o),
(331,533,o),
(331,462,cs),
(331,414,o),
(302,365,o),
(258,339,c),
(269,316,l),
(351,357,o),
(406,425,o),
(406,487,cs),
(406,567,o),
(343,620,o),
(249,620,cs),
(145,620,o),
(76,560,o),
(76,469,cs),
(76,409,o),
(126,342,o),
(202,302,cs)
);
}
);
};
layerId = "A5071358-26F9-4BF6-B876-AF2D2EDE0AC7";
name = "11 Mar 22, 11:54";
shapes = (
{
closed = 1;
nodes = (
(76,408,o),
(130,336,o),
(202,303,c),
(213,325,l),
(120,301,o),
(60,231,o),
(60,149,cs),
(60,48,o),
(133,-20,o),
(243,-20,cs),
(353,-20,o),
(427,59,o),
(427,177,cs),
(427,235,o),
(363,305,o),
(279,340,c),
(273,319,l),
(351,356,o),
(406,425,o),
(406,487,cs),
(406,567,o),
(343,620,o),
(249,620,cs),
(145,620,o),
(76,560,o),
(76,469,cs)
);
},
{
closed = 1;
nodes = (
(135,230,o),
(165,275,o),
(214,296,c),
(243,281,ls),
(316,243,o),
(352,196,o),
(352,155,cs),
(352,74,o),
(314,20,o),
(256,20,cs),
(183,20,o),
(135,82,o),
(135,175,cs)
);
},
{
closed = 1;
nodes = (
(151,540,o),
(184,580,o),
(233,580,cs),
(292,580,o),
(331,533,o),
(331,462,cs),
(331,420,o),
(308,375,o),
(270,347,c),
(243,364,ls),
(194,395,o),
(151,443,o),
(151,480,cs)
);
}
);
width = 467;
},
{
associatedMasterId = m003;
background = {
shapes = (
{
closed = 1;
nodes = (
(259,272,ls),
(315,243,o),
(352,196,o),
(352,155,cs),
(352,74,o),
(314,20,o),
(256,20,cs),
(183,20,o),
(135,82,o),
(135,175,cs),
(135,240,o),
(178,292,o),
(243,305,c),
(234,330,l),
(130,311,o),
(60,238,o),
(60,149,cs),
(60,48,o),
(133,-20,o),
(243,-20,cs),
(353,-20,o),
(427,59,o),
(427,177,cs),
(427,224,o),
(382,282,o),
(315,321,cs),
(247,361,ls),
(189,395,o),
(151,442,o),
(151,480,cs),
(151,540,o),
(184,580,o),
(233,580,cs),
(292,580,o),
(331,533,o),
(331,462,cs),
(331,414,o),
(302,365,o),
(258,339,c),
(269,316,l),
(351,357,o),
(406,425,o),
(406,487,cs),
(406,567,o),
(343,620,o),
(249,620,cs),
(145,620,o),
(76,560,o),
(76,469,cs),
(76,409,o),
(126,342,o),
(202,302,cs)
);
}
);
};
layerId = "F8ABD874-C127-4067-AF5F-88E92CFF1629";
name = "11 Mar 22, 11:54";
shapes = (
{
closed = 1;
nodes = (
(76,408,o),
(130,336,o),
(202,303,c),
(213,325,l),
(120,301,o),
(60,231,o),
(60,149,cs),
(60,48,o),
(133,-20,o),
(243,-20,cs),
(353,-20,o),
(427,59,o),
(427,177,cs),
(427,235,o),
(363,305,o),
(279,340,c),
(273,319,l),
(351,356,o),
(406,425,o),
(406,487,cs),
(406,567,o),
(343,620,o),
(249,620,cs),
(145,620,o),
(76,560,o),
(76,469,cs)
);
},
{
closed = 1;
nodes = (
(135,230,o),
(165,275,o),
(214,296,c),
(243,281,ls),
(316,243,o),
(352,196,o),
(352,155,cs),
(352,74,o),
(314,20,o),
(256,20,cs),
(183,20,o),
(135,82,o),
(135,175,cs)
);
},
{
closed = 1;
nodes = (
(151,540,o),
(184,580,o),
(233,580,cs),
(292,580,o),
(331,533,o),
(331,462,cs),
(331,420,o),
(308,375,o),
(270,347,c),
(243,364,ls),
(194,395,o),
(151,443,o),
(151,480,cs)
);
}
);
width = 467;
},
{
layerId = "2C26E880-80A5-4D19-8A94-7D905A372841";
shapes = (
{
closed = 1;
nodes = (
(237,279,ls),
(294,243,o),
(325,194,o),
(325,138,cs),
(325,61,o),
(279,10,o),
(209,10,cs),
(134,10,o),
(87,59,o),
(87,136,cs),
(87,219,o),
(140,289,o),
(226,320,c),
(209,336,l),
(113,315,o),
(50,233,o),
(50,128,cs),
(50,38,o),
(111,-20,o),
(205,-20,cs),
(299,-20,o),
(362,48,o),
(362,148,cs),
(362,216,o),
(332,267,o),
(269,307,cs),
(199,351,ls),
(137,390,o),
(103,440,o),
(103,491,cs),
(103,548,o),
(146,590,o),
(206,590,cs),
(265,590,o),
(304,549,o),
(304,485,cs),
(304,420,o),
(262,372,o),
(193,337,c),
(210,311,l),
(291,350,o),
(341,412,o),
(341,495,cs),
(341,573,o),
(292,620,o),
(212,620,cs),
(126,620,o),
(66,562,o),
(66,480,cs),
(66,418,o),
(101,365,o),
(167,323,cs)
);
}
);
width = 412;
}
);
unicode = 56;
}
{
glyphname = nine;
layers = (
{
layerId = "0CCC0E2D-406A-4672-8E6C-854B1DF78A27";
shapes = (
{
closed = 1;
nodes = (
(758,403,l),
(673,321,o),
(534,261,o),
(400,261,cs),
(226,261,o),
(107,323,o),
(107,414,cs),
(107,511,o),
(246,590,o),
(415,590,cs),
(620,590,o),
(754,478,o),
(754,306,cs),
(754,131,o),
(618,15,o),
(413,15,cs),
(330,15,o),
(214,34,o),
(150,69,c),
(125,196,l),
(117,198,l),
(76,41,l),
(142,5,o),
(291,-20,o),
(410,-20,cs),
(634,-20,o),
(791,117,o),
(791,314,cs),
(791,501,o),
(644,625,o),
(422,625,cs),
(226,625,o),
(70,526,o),
(70,403,cs),
(70,295,o),
(191,230,o),
(389,231,cs),
(542,232,o),
(653,272,o),
(763,366,c)
);
}
);
width = 861;
},
{
associatedMasterId = "0CCC0E2D-406A-4672-8E6C-854B1DF78A27";
layerId = "FDC8AB3D-00F1-482D-9536-A78178767EFC";
name = "6 Dec 21, 16:21";
shapes = (
{
closed = 1;
nodes = (
(60,264,o),
(234,203,o),
(403,204,cs),
(594,205,o),
(721,291,o),
(757,336,c),
(757,134,o),
(641,25,o),
(457,25,cs),
(362,25,o),
(218,54,o),
(116,137,c),
(50,94,l),
(159,0,o),
(317,-20,o),
(414,-20,cs),
(666,-20,o),
(828,103,o),
(828,306,cs),
(828,495,o),
(696,625,o),
(453,625,cs),
(230,625,o),
(60,510,o),
(60,388,cs)
);
},
{
closed = 1;
nodes = (
(140,498,o),
(243,580,o),
(409,580,cs),
(570,580,o),
(724,504,o),
(748,376,c),
(703,316,o),
(600,249,o),
(446,249,cs),
(306,249,o),
(140,304,o),
(140,413,cs)
);
}
);
width = 888;
},
{
background = {
shapes = (
{
closed = 1;
nodes = (
(762,403,l),
(669,314,o),
(557,270,o),
(426,270,cs),
(260,270,o),
(140,332,o),
(140,418,cs),
(140,510,o),
(261,580,o),
(419,580,cs),
(623,580,o),
(757,471,o),
(757,306,cs),
(757,143,o),
(626,25,o),
(437,25,cs),
(346,25,o),
(264,42,o),
(204,66,c),
(179,193,l),
(171,195,l),
(120,28,l),
(184,3,o),
(309,-20,o),
(414,-20,cs),
(663,-20,o),
(828,121,o),
(828,326,cs),
(828,513,o),
(687,625,o),
(453,625,cs),
(235,625,o),
(60,522,o),
(60,393,cs),
(60,289,o),
(184,224,o),
(383,225,cs),
(539,226,o),
(669,268,o),
(767,350,c)
);
}
);
};
layerId = m002;
shapes = (
{
closed = 1;
nodes = (
(763,412,l),
(677,321,o),
(572,275,o),
(455,275,cs),
(274,275,o),
(157,334,o),
(157,426,cs),
(157,516,o),
(264,574,o),
(420,574,cs),
(629,574,o),
(758,472,o),
(758,306,cs),
(758,133,o),
(650,31,o),
(450,31,cs),
(353,31,o),
(216,50,o),
(171,77,c),
(146,238,l),
(138,240,l),
(81,46,l),
(154,3,o),
(302,-20,o),
(415,-20,cs),
(683,-20,o),
(848,119,o),
(848,333,cs),
(848,521,o),
(711,625,o),
(469,625,cs),
(237,625,o),
(54,525,o),
(54,394,cs),
(54,289,o),
(173,221,o),
(394,222,cs),
(560,223,o),
(678,262,o),
(768,350,c)
);
}
);
width = 902;
},
{
associatedMasterId = m002;
layerId = "8F5B62C3-6836-4CAD-ADC1-FE5FBFA1A723";
name = "6 Dec 21, 16:21";
shapes = (
{
closed = 1;
nodes = (
(60,264,o),
(234,203,o),
(403,204,cs),
(594,205,o),
(721,291,o),
(757,336,c),
(757,134,o),
(641,25,o),
(457,25,cs),
(362,25,o),
(218,54,o),
(116,137,c),
(50,94,l),
(159,0,o),
(317,-20,o),
(414,-20,cs),
(666,-20,o),
(828,103,o),
(828,306,cs),
(828,495,o),
(696,625,o),
(453,625,cs),
(230,625,o),
(60,510,o),
(60,388,cs)
);
},
{
closed = 1;
nodes = (
(140,498,o),
(243,580,o),
(409,580,cs),
(570,580,o),
(724,504,o),
(748,376,c),
(703,316,o),
(600,249,o),
(446,249,cs),
(306,249,o),
(140,304,o),
(140,413,cs)
);
}
);
width = 888;
},
{
background = {
shapes = (
{
closed = 1;
nodes = (
(357,378,l),
(319,304,o),
(276,265,o),
(231,265,cs),
(175,265,o),
(135,331,o),
(135,423,cs),
(135,516,o),
(174,578,o),
(234,578,cs),
(311,578,o),
(352,482,o),
(352,301,cs),
(352,106,o),
(317,30,o),
(237,20,cs),
(234,20,o),
(230,19,o),
(226,19,cs),
(196,19,o),
(154,31,o),
(137,41,c),
(121,181,l),
(113,183,l),
(60,19,l),
(91,-1,o),
(160,-21,o),
(215,-20,cs),
(371,-18,o),
(427,141,o),
(427,321,cs),
(427,516,o),
(365,620,o),
(248,620,cs),
(136,620,o),
(60,530,o),
(60,398,cs),
(60,287,o),
(111,220,o),
(196,220,cs),
(263,220,o),
(327,259,o),
(362,322,c)
);
}
);
};
layerId = m003;
shapes = (
{
closed = 1;
nodes = (
(357,383,l),
(329,311,o),
(282,268,o),
(234,268,cs),
(178,268,o),
(142,329,o),
(142,424,cs),
(142,518,o),
(178,575,o),
(237,575,cs),
(318,575,o),
(353,493,o),
(353,304,cs),
(353,100,o),
(312,26,o),
(226,26,cs),
(204,26,o),
(177,31,o),
(151,40,c),
(134,186,l),
(126,188,l),
(72,8,l),
(116,-10,o),
(175,-21,o),
(219,-20,cs),
(349,-18,o),
(433,107,o),
(433,327,cs),
(433,519,o),
(371,620,o),
(252,620,cs),
(138,620,o),
(61,530,o),
(61,396,cs),
(61,283,o),
(116,219,o),
(214,219,cs),
(286,219,o),
(334,253,o),
(362,324,c)
);
}
);
width = 491;
},
{
associatedMasterId = m003;
layerId = "59DB1B03-E6E3-4247-ABF2-D9D171D2BDD6";
name = "6 Dec 21, 16:21";
shapes = (
{
closed = 1;
nodes = (
(60,264,o),
(234,203,o),
(403,204,cs),
(594,205,o),
(721,291,o),
(757,336,c),
(757,134,o),
(641,25,o),
(457,25,cs),
(362,25,o),
(218,54,o),
(116,137,c),
(50,94,l),
(159,0,o),
(317,-20,o),
(414,-20,cs),
(666,-20,o),
(828,103,o),
(828,306,cs),
(828,495,o),
(696,625,o),
(453,625,cs),
(230,625,o),
(60,510,o),
(60,388,cs)
);
},
{
closed = 1;
nodes = (
(140,498,o),
(243,580,o),
(409,580,cs),
(570,580,o),
(724,504,o),
(748,376,c),
(703,316,o),
(600,249,o),
(446,249,cs),
(306,249,o),
(140,304,o),
(140,413,cs)
);
}
);
width = 888;
},
{
layerId = "2C26E880-80A5-4D19-8A94-7D905A372841";
shapes = (
{
closed = 1;
nodes = (
(358,360,l),
(322,292,o),
(275,255,o),
(221,255,cs),
(152,255,o),
(111,316,o),
(111,418,cs),
(111,523,o),
(155,589,o),
(225,589,cs),
(305,589,o),
(350,482,o),
(350,290,cs),
(350,102,o),
(304,9,o),
(211,9,cs),
(185,9,o),
(148,16,o),
(138,23,c),
(122,163,l),
(114,165,l),
(70,11,l),
(96,-7,o),
(152,-21,o),
(197,-21,cs),
(327,-21,o),
(390,83,o),
(390,299,cs),
(390,514,o),
(339,619,o),
(234,619,cs),
(137,619,o),
(74,536,o),
(74,406,cs),
(74,288,o),
(122,224,o),
(208,225,cs),
(267,225,o),
(320,256,o),
(363,316,c)
);
}
);
width = 460;
},
{
associatedMasterId = m003;
background = {
shapes = (
{
closed = 1;
nodes = (
(357,378,l),
(319,304,o),
(276,265,o),
(231,265,cs),
(175,265,o),
(135,331,o),
(135,423,cs),
(135,516,o),
(174,578,o),
(234,578,cs),
(311,578,o),
(352,482,o),
(352,301,cs),
(352,106,o),
(317,30,o),
(237,20,cs),
(234,20,o),
(230,19,o),
(226,19,cs),
(196,19,o),
(154,31,o),
(137,41,c),
(121,181,l),
(113,183,l),
(60,19,l),
(91,-1,o),
(160,-21,o),
(215,-20,cs),
(371,-18,o),
(427,141,o),
(427,321,cs),
(427,516,o),
(365,620,o),
(248,620,cs),
(136,620,o),
(60,530,o),
(60,398,cs),
(60,287,o),
(111,220,o),
(196,220,cs),
(263,220,o),
(327,259,o),
(362,322,c)
);
}
);
};
layerId = "22A85EB4-992B-421D-99C8-F940D1D81AB8";
name = "24 Sep 22, 14:14";
shapes = (
{
closed = 1;
nodes = (
(357,383,l),
(319,307,o),
(276,268,o),
(234,268,cs),
(181,268,o),
(142,336,o),
(142,424,cs),
(142,513,o),
(179,575,o),
(237,575,cs),
(313,575,o),
(353,482,o),
(353,304,cs),
(353,108,o),
(305,22,o),
(218,22,cs),
(186,22,o),
(156,35,o),
(137,46,c),
(121,186,l),
(113,188,l),
(58,21,l),
(87,2,o),
(150,-21,o),
(207,-20,cs),
(370,-17,o),
(433,155,o),
(433,327,cs),
(433,516,o),
(372,620,o),
(252,620,cs),
(136,620,o),
(61,529,o),
(61,396,cs),
(61,287,o),
(109,219,o),
(194,219,cs),
(263,219,o),
(329,260,o),
(362,324,c)
);
}
);
width = 491;
}
);
unicode = 57;
}
{
glyphname = greater;
layers = (
{
layerId = "0CCC0E2D-406A-4672-8E6C-854B1DF78A27";
shapes = (
{
closed = 1;
nodes = (
(420,282,l),
(420,307,l),
(70,462,l),
(70,429,l),
(398,285,l),
(398,304,l),
(70,161,l),
(70,128,l)
);
}
);
width = 490;
},
{
layerId = m002;
shapes = (
{
closed = 1;
nodes = (
(466,256,l),
(466,333,l),
(54,488,l),
(54,413,l),
(444,269,l),
(444,320,l),
(54,177,l),
(54,102,l)
);
}
);
width = 520;
},
{
layerId = m003;
shapes = (
{
closed = 1;
nodes = (
(419,264,l),
(419,325,l),
(58,465,l),
(58,405,l),
(399,275,l),
(399,314,l),
(58,185,l),
(58,125,l)
);
}
);
width = 477;
},
{
layerId = "2C26E880-80A5-4D19-8A94-7D905A372841";
shapes = (
{
closed = 1;
nodes = (
(384,284,l),
(384,305,l),
(69,445,l),
(69,416,l),
(364,286,l),
(364,303,l),
(69,174,l),
(69,145,l)
);
}
);
width = 453;
}
);
unicode = 62;
}
{
glyphname = question;
kernRight = question;
layers = (
{
layerId = "0CCC0E2D-406A-4672-8E6C-854B1DF78A27";
shapes = (
{
closed = 1;
nodes = (
(511,682,o),
(570,622,o),
(569,529,cs),
(568,409,o),
(465,315,o),
(230,166,c),
(241,142,l),
(473,142,l),
(475,150,l),
(289,197,l),
(255,156,l),
(508,303,o),
(610,399,o),
(609,535,cs),
(608,644,o),
(540,710,o),
(354,710,cs),
(248,710,o),
(176,699,o),
(60,667,c),
(121,490,l),
(129,492,l),
(146,657,l),
(203,674,o),
(265,682,o),
(345,682,cs)
);
},
{
pos = (239,-540);
ref = dotaccentcomb;
}
);
width = 669;
},
{
associatedMasterId = "0CCC0E2D-406A-4672-8E6C-854B1DF78A27";
layerId = "FC3F02AE-B87D-4A87-B1D8-AC2027881435";
name = "Apr 10 18, 19:22";
shapes = (
{
closed = 1;
nodes = (
(326,145,l),
(401,145,l),
(401,171,l),
(401,275,o),
(695,240,o),
(695,448,cs),
(695,564,o),
(581,623,o),
(389,623,cs),
(263,623,o),
(149,590,o),
(82,535,c),
(168,524,l),
(210,558,o),
(292,578,o),
(389,578,cs),
(540,578,o),
(629,530,o),
(629,448,cs),
(629,275,o),
(326,313,o),
(326,171,c)
);
},
{
closed = 1;
nodes = (
(168,524,l),
(150,376,l),
(143,374,l),
(82,535,l)
);
},
{
closed = 1;
nodes = (
(317,0,l),
(407,0,l),
(407,90,l),
(317,90,l)
);
}
);
width = 775;
},
{
associatedMasterId = "0CCC0E2D-406A-4672-8E6C-854B1DF78A27";
layerId = "555E4872-A983-49D2-B0B5-ED613B901B39";
name = "Apr 10 18, 19:22";
shapes = (
{
closed = 1;
nodes = (
(326,145,l),
(401,145,l),
(401,171,l),
(401,275,o),
(695,240,o),
(695,448,cs),
(695,564,o),
(581,623,o),
(389,623,cs),
(263,623,o),
(149,590,o),
(82,535,c),
(168,524,l),
(210,558,o),
(292,578,o),
(389,578,cs),
(540,578,o),
(629,530,o),
(629,448,cs),
(629,275,o),
(326,313,o),
(326,171,c)
);
},
{
closed = 1;
nodes = (
(168,524,l),
(150,376,l),
(143,374,l),
(82,535,l)
);
},
{
closed = 1;
nodes = (
(317,0,l),
(407,0,l),
(407,90,l),
(317,90,l)
);
}
);
width = 775;
},
{
layerId = m002;
shapes = (
{
closed = 1;
nodes = (
(476,678,o),
(552,623,o),
(552,521,cs),
(551,408,o),
(458,303,o),
(195,177,c),
(213,143,l),
(515,141,l),
(517,149,l),
(275,201,l),
(261,169,l),
(528,274,o),
(658,414,o),
(657,547,cs),
(656,669,o),
(557,726,o),
(347,726,cs),
(258,726,o),
(170,715,o),
(34,688,c),
(95,496,l),
(103,498,l),
(118,654,l),
(190,669,o),
(274,678,o),
(334,678,cs)
);
},
{
pos = (245,-540);
ref = dotaccentcomb;
}
);
width = 701;
},
{
associatedMasterId = m002;
layerId = "AE3495A7-A076-4C3B-A5B2-05AFFF9648CA";
name = "Apr 10 18, 19:22";
shapes = (
{
closed = 1;
nodes = (
(326,145,l),
(401,145,l),
(401,171,l),
(401,275,o),
(695,240,o),
(695,448,cs),
(695,564,o),
(581,623,o),
(389,623,cs),
(263,623,o),
(149,590,o),
(82,535,c),
(168,524,l),
(210,558,o),
(292,578,o),
(389,578,cs),
(540,578,o),
(629,530,o),
(629,448,cs),
(629,275,o),
(326,313,o),
(326,171,c)
);
},
{
closed = 1;
nodes = (
(168,524,l),
(150,376,l),
(143,374,l),
(82,535,l)
);
},
{
closed = 1;
nodes = (
(317,0,l),
(407,0,l),
(407,90,l),
(317,90,l)
);
}
);
width = 775;
},
{
associatedMasterId = m002;
layerId = "CC35FB54-6F75-45EA-B0E9-073E485B0C9C";
name = "Apr 10 18, 19:22";
shapes = (
{
closed = 1;
nodes = (
(326,145,l),
(401,145,l),
(401,171,l),
(401,275,o),
(695,240,o),
(695,448,cs),
(695,564,o),
(581,623,o),
(389,623,cs),
(263,623,o),
(149,590,o),
(82,535,c),
(168,524,l),
(210,558,o),
(292,578,o),
(389,578,cs),
(540,578,o),
(629,530,o),
(629,448,cs),
(629,275,o),
(326,313,o),
(326,171,c)
);
},
{
closed = 1;
nodes = (
(168,524,l),
(150,376,l),
(143,374,l),
(82,535,l)
);
},
{
closed = 1;
nodes = (
(317,0,l),
(407,0,l),
(407,90,l),
(317,90,l)
);
}
);
width = 775;
},
{
layerId = m003;
shapes = (
{
closed = 1;
nodes = (
(256,668,o),
(282,627,o),
(281,533,cs),
(280,421,o),
(251,341,o),
(120,168,c),
(138,143,l),
(305,141,l),
(307,149,l),
(175,194,l),
(170,159,l),
(334,357,o),
(376,451,o),
(375,554,cs),
(374,658,o),
(319,712,o),
(214,712,cs),
(166,712,o),
(110,701,o),
(50,679,c),
(99,497,l),
(107,499,l),
(128,659,l),
(146,664,o),
(177,668,o),
(196,668,cs)
);
},
{
pos = (126,-540);
ref = dotaccentcomb;
}
);
width = 425;
},
{
associatedMasterId = m003;
layerId = "662668D2-9475-4C53-AD52-AE79E2E7012F";
name = "Apr 10 18, 19:22";
shapes = (
{
closed = 1;
nodes = (
(326,145,l),
(401,145,l),
(401,171,l),
(401,275,o),
(695,240,o),
(695,448,cs),
(695,564,o),
(581,623,o),
(389,623,cs),
(263,623,o),
(149,590,o),
(82,535,c),
(168,524,l),
(210,558,o),
(292,578,o),
(389,578,cs),
(540,578,o),
(629,530,o),
(629,448,cs),
(629,275,o),
(326,313,o),
(326,171,c)
);
},
{
closed = 1;
nodes = (
(168,524,l),
(150,376,l),
(143,374,l),
(82,535,l)
);
},
{
closed = 1;
nodes = (
(317,0,l),
(407,0,l),
(407,90,l),
(317,90,l)
);
}
);
width = 775;
},
{
associatedMasterId = m003;
layerId = "5359E6D0-9000-4DCB-8554-BC34AB97735A";
name = "Apr 10 18, 19:22";
shapes = (
{
closed = 1;
nodes = (
(326,145,l),
(401,145,l),
(401,171,l),
(401,275,o),
(695,240,o),
(695,448,cs),
(695,564,o),
(581,623,o),
(389,623,cs),
(263,623,o),
(149,590,o),
(82,535,c),
(168,524,l),
(210,558,o),
(292,578,o),
(389,578,cs),
(540,578,o),
(629,530,o),
(629,448,cs),
(629,275,o),
(326,313,o),
(326,171,c)
);
},
{
closed = 1;
nodes = (
(168,524,l),
(150,376,l),
(143,374,l),
(82,535,l)
);
},
{
closed = 1;
nodes = (
(317,0,l),
(407,0,l),
(407,90,l),
(317,90,l)
);
}
);
width = 775;
},
{
layerId = "2C26E880-80A5-4D19-8A94-7D905A372841";
shapes = (
{
closed = 1;
nodes = (
(254,681,o),
(290,638,o),
(289,560,cs),
(288,463,o),
(272,381,o),
(100,170,c),
(118,141,l),
(265,143,l),
(267,151,l),
(126,188,l),
(122,157,l),
(294,345,o),
(327,450,o),
(326,567,cs),
(325,659,o),
(275,710,o),
(187,710,cs),
(143,710,o),
(94,698,o),
(61,688,c),
(98,504,l),
(106,506,l),
(128,673,l),
(136,677,o),
(160,681,o),
(188,681,cs)
);
},
{
alignment = -1;
pos = (95,-520);
ref = dotaccentcomb;
}
);
width = 386;
},
{
associatedMasterId = m002;
layerId = "3FD881FA-9E34-4748-B0C9-043D75BF807E";
name = "24 Sep 22, 17:02";
shapes = (
{
closed = 1;
nodes = (
(95,496,l),
(103,498,l),
(118,654,l),
(184,668,o),
(281,678,o),
(354,678,cs),
(503,678,o),
(575,633,o),
(575,541,cs),
(575,460,o),
(489,412,o),
(273,372,c),
(319,145,l),
(334,145,l),
(367,344,l),
(560,366,o),
(677,454,o),
(677,567,cs),
(677,677,o),
(582,726,o),
(367,726,cs),
(265,726,o),
(163,714,o),
(34,688,c)
);
},
{
pos = (225,-540);
ref = dotaccentcomb;
}
);
width = 721;
},
{
associatedMasterId = m002;
layerId = "D3CA407B-0E6A-4305-BD88-8BC485A7BE69";
name = "24 Sep 22, 17:08";
shapes = (
{
closed = 1;
nodes = (
(95,496,l),
(103,498,l),
(118,654,l),
(184,668,o),
(281,678,o),
(354,678,cs),
(503,678,o),
(575,633,o),
(575,541,cs),
(575,460,o),
(489,412,o),
(273,372,c),
(319,145,l),
(334,145,l),
(367,344,l),
(560,366,o),
(677,454,o),
(677,567,cs),
(677,677,o),
(582,726,o),
(367,726,cs),
(265,726,o),
(163,714,o),
(34,688,c)
);
},
{
pos = (225,-540);
ref = dotaccentcomb;
}
);
width = 721;
},
{
associatedMasterId = m003;
layerId = "60BC9648-D90F-43A7-846D-347D70DEFCC1";
name = "24 Sep 22, 17:14";
shapes = (
{
closed = 1;
nodes = (
(108,494,l),
(116,496,l),
(138,658,l),
(158,665,o),
(187,667,o),
(206,667,cs),
(257,667,o),
(289,620,o),
(289,544,cs),
(289,438,o),
(271,400,o),
(151,351,c),
(189,145,l),
(203,145,l),
(231,340,l),
(317,361,o),
(374,453,o),
(374,557,cs),
(374,653,o),
(316,711,o),
(224,711,cs),
(159,711,o),
(104,696,o),
(60,678,c)
);
},
{
pos = (114,-540);
ref = dotaccentcomb;
}
);
width = 434;
},
{
associatedMasterId = "2C26E880-80A5-4D19-8A94-7D905A372841";
layerId = "324E63F9-B80A-4BF3-9E9D-62B21FBC41BE";
name = "24 Sep 22, 18:31";
shapes = (
{
closed = 1;
nodes = (
(97,494,l),
(105,496,l),
(127,668,l),
(139,670,o),
(160,671,o),
(187,671,cs),
(253,671,o),
(289,628,o),
(288,550,cs),
(288,428,o),
(229,371,o),
(152,342,c),
(165,145,l),
(185,145,l),
(197,335,l),
(271,358,o),
(326,458,o),
(326,557,cs),
(326,649,o),
(274,700,o),
(186,700,cs),
(159,700,o),
(110,694,o),
(60,682,c)
);
},
{
alignment = -1;
pos = (95,-520);
ref = dotaccentcomb;
}
);
width = 386;
},
{
associatedMasterId = "0CCC0E2D-406A-4672-8E6C-854B1DF78A27";
layerId = "E38C3A69-DA9A-4717-97F0-D8F128D6956C";
name = "24 Sep 22, 18:38";
shapes = (
{
closed = 1;
nodes = (
(110,505,l),
(118,507,l),
(146,652,l),
(200,668,o),
(298,680,o),
(374,680,cs),
(532,680,o),
(612,637,o),
(612,552,cs),
(612,457,o),
(514,391,o),
(318,354,c),
(335,145,l),
(350,145,l),
(366,332,l),
(558,373,o),
(657,449,o),
(657,557,cs),
(657,658,o),
(562,710,o),
(377,710,cs),
(265,710,o),
(118,691,o),
(60,669,c)
);
},
{
pos = (239,-540);
ref = dotaccentcomb;
}
);
width = 717;
}
);
unicode = 63;
}
{
glyphname = at;
layers = (
{
layerId = "0CCC0E2D-406A-4672-8E6C-854B1DF78A27";
shapes = (
{
closed = 1;
nodes = (
(100,34,o),
(251,-77,o),
(480,-77,cs),
(616,-77,o),
(715,-43,o),
(781,27,c),
(769,38,l),
(713,-14,o),
(610,-51,o),
(484,-51,cs),
(274,-51,o),
(135,50,o),
(135,205,cs),
(135,348,o),
(301,459,o),
(474,459,cs),
(667,459,o),
(804,363,o),
(804,225,cs),
(804,149,o),
(767,112,o),
(696,112,cs),
(639,112,o),
(607,140,o),
(612,190,cs),
(628,358,l),
(596,348,l),
(595,328,l),
(566,344,o),
(531,355,o),
(491,355,cs),
(376,355,o),
(275,286,o),
(275,198,cs),
(275,138,o),
(326,91,o),
(416,91,cs),
(492,91,o),
(549,116,o),
(598,165,c),
(584,179,l),
(576,125,o),
(628,88,o),
(692,88,cs),
(786,88,o),
(839,142,o),
(839,236,cs),
(839,386,o),
(692,487,o),
(475,487,cs),
(281,487,o),
(100,362,o),
(100,202,cs)
);
},
{
closed = 1;
nodes = (
(310,266,o),
(366,328,o),
(485,328,cs),
(526,328,o),
(562,320,o),
(591,300,c),
(580,180,l),
(543,141,o),
(491,117,o),
(422,117,cs),
(347,117,o),
(310,156,o),
(310,207,cs)
);
}
);
width = 909;
},
{
layerId = m002;
shapes = (
{
closed = 1;
nodes = (
(84,28,o),
(248,-93,o),
(471,-93,cs),
(611,-93,o),
(737,-45,o),
(786,27,c),
(774,38,l),
(730,-19,o),
(630,-54,o),
(511,-54,cs),
(300,-54,o),
(171,45,o),
(171,219,cs),
(171,370,o),
(306,462,o),
(475,462,cs),
(678,462,o),
(778,391,o),
(778,232,cs),
(778,149,o),
(747,106,o),
(707,106,cs),
(675,106,o),
(657,133,o),
(661,174,cs),
(681,374,l),
(605,364,l),
(604,337,l),
(578,348,o),
(554,352,o),
(523,352,cs),
(381,352,o),
(251,271,o),
(251,182,cs),
(251,125,o),
(313,87,o),
(407,87,cs),
(488,87,o),
(552,114,o),
(601,168,c),
(584,171,l),
(575,119,o),
(603,72,o),
(683,72,cs),
(784,72,o),
(865,152,o),
(865,252,cs),
(865,394,o),
(704,503,o),
(496,503,cs),
(265,503,o),
(84,368,o),
(84,194,cs)
);
},
{
closed = 1;
nodes = (
(340,260,o),
(414,321,o),
(497,321,cs),
(536,321,o),
(570,308,o),
(596,284,c),
(584,180,l),
(563,145,o),
(507,122,o),
(443,122,cs),
(374,122,o),
(340,145,o),
(340,191,cs)
);
}
);
width = 919;
},
{
layerId = m003;
shapes = (
{
closed = 1;
nodes = (
(67,24,o),
(171,-84,o),
(327,-86,cs),
(414,-87,o),
(481,-55,o),
(536,16,c),
(522,26,l),
(472,-24,o),
(407,-52,o),
(343,-51,cs),
(226,-49,o),
(140,63,o),
(140,214,cs),
(140,358,o),
(224,458,o),
(346,458,cs),
(454,458,o),
(538,366,o),
(538,248,cs),
(538,169,o),
(506,113,o),
(462,113,cs),
(437,113,o),
(429,132,o),
(431,179,cs),
(440,365,l),
(382,355,l),
(378,342,l),
(363,349,o),
(351,352,o),
(338,352,cs),
(271,352,o),
(201,267,o),
(201,186,cs),
(201,127,o),
(239,87,o),
(293,87,cs),
(339,87,o),
(370,116,o),
(401,186,c),
(388,191,l),
(377,102,o),
(397,82,o),
(443,82,cs),
(540,82,o),
(611,161,o),
(611,267,cs),
(611,396,o),
(504,494,o),
(363,494,cs),
(195,494,o),
(67,359,o),
(67,183,cs)
);
},
{
closed = 1;
nodes = (
(275,277,o),
(294,321,o),
(330,321,cs),
(349,321,o),
(367,314,o),
(375,304,c),
(369,180,l),
(355,140,o),
(344,121,o),
(313,121,cs),
(283,121,o),
(275,135,o),
(275,195,cs)
);
}
);
width = 676;
},
{
associatedMasterId = m003;
background = {
shapes = (
{
closed = 1;
nodes = (
(90,31,o),
(249,-87,o),
(474,-87,cs),
(612,-87,o),
(730,-44,o),
(785,27,c),
(773,38,l),
(723,-19,o),
(624,-53,o),
(508,-53,cs),
(300,-53,o),
(165,54,o),
(165,220,cs),
(165,365,o),
(286,461,o),
(468,461,cs),
(670,461,o),
(781,376,o),
(781,223,cs),
(781,145,o),
(758,108,o),
(710,108,cs),
(667,108,o),
(640,138,o),
(644,180,cs),
(661,368,l),
(602,358,l),
(598,338,l),
(557,347,o),
(522,352,o),
(495,352,cs),
(380,352,o),
(260,268,o),
(260,188,cs),
(260,130,o),
(323,88,o),
(410,88,cs),
(483,88,o),
(553,116,o),
(600,167,c),
(584,174,l),
(563,121,o),
(612,78,o),
(686,78,cs),
(783,78,o),
(856,150,o),
(856,246,cs),
(856,388,o),
(697,497,o),
(489,497,cs),
(260,497,o),
(90,369,o),
(90,197,cs)
);
},
{
closed = 1;
nodes = (
(397,323,o),
(479,323,cs),
(519,323,o),
(564,310,o),
(594,290,c),
(583,180,l),
(555,143,o),
(499,120,o),
(436,120,cs),
(366,120,o),
(330,146,o),
(330,197,cs),
(330,267,o)
);
}
);
};
layerId = "43972F22-864F-4068-B37F-A336BF256BD0";
name = "11 Mar 22, 15:06";
shapes = (
{
closed = 1;
nodes = (
(90,31,o),
(249,-87,o),
(474,-87,cs),
(612,-87,o),
(730,-44,o),
(785,27,c),
(773,38,l),
(723,-19,o),
(624,-53,o),
(508,-53,cs),
(300,-53,o),
(165,54,o),
(165,220,cs),
(165,365,o),
(286,461,o),
(468,461,cs),
(670,461,o),
(781,376,o),
(781,223,cs),
(781,145,o),
(758,108,o),
(710,108,cs),
(667,108,o),
(640,138,o),
(644,180,cs),
(661,368,l),
(602,358,l),
(598,338,l),
(557,347,o),
(522,352,o),
(495,352,cs),
(380,352,o),
(260,268,o),
(260,188,cs),
(260,130,o),
(323,88,o),
(410,88,cs),
(483,88,o),
(553,116,o),
(600,167,c),
(584,174,l),
(563,121,o),
(612,78,o),
(686,78,cs),
(783,78,o),
(856,150,o),
(856,246,cs),
(856,388,o),
(697,497,o),
(489,497,cs),
(260,497,o),
(90,369,o),
(90,197,cs)
);
},
{
closed = 1;
nodes = (
(397,323,o),
(479,323,cs),
(519,323,o),
(564,310,o),
(594,290,c),
(583,180,l),
(555,143,o),
(499,120,o),
(436,120,cs),
(366,120,o),
(330,146,o),
(330,197,cs),
(330,267,o)
);
}
);
width = 916;
},
{
background = {
shapes = (
{
closed = 1;
nodes = (
(366,180,l),
(394,180,l),
(403,354,l),
(375,347,l)
);
}
);
};
layerId = "2C26E880-80A5-4D19-8A94-7D905A372841";
shapes = (
{
closed = 1;
nodes = (
(81,36,o),
(191,-74,o),
(333,-67,cs),
(415,-63,o),
(471,-35,o),
(520,28,c),
(506,38,l),
(457,-17,o),
(412,-37,o),
(335,-41,cs),
(206,-48,o),
(111,51,o),
(111,193,cs),
(111,346,o),
(208,454,o),
(346,454,cs),
(469,454,o),
(546,368,o),
(546,245,cs),
(546,173,o),
(519,118,o),
(457,118,cs),
(415,118,o),
(399,137,o),
(402,185,cs),
(411,354,l),
(383,347,l),
(382,329,l),
(372,347,o),
(353,354,o),
(337,354,cs),
(278,354,o),
(229,297,o),
(229,197,cs),
(229,129,o),
(255,91,o),
(303,91,cs),
(340,91,o),
(374,123,o),
(397,181,c),
(377,182,l),
(371,123,o),
(396,93,o),
(449,93,cs),
(531,93,o),
(575,163,o),
(575,257,cs),
(575,384,o),
(485,480,o),
(351,480,cs),
(197,480,o),
(81,353,o),
(81,183,cs)
);
},
{
closed = 1;
nodes = (
(259,283,o),
(296,331,o),
(330,331,cs),
(354,331,o),
(373,321,o),
(381,304,c),
(374,180,l),
(362,140,o),
(338,117,o),
(309,117,cs),
(277,117,o),
(259,150,o),
(259,206,cs)
);
}
);
width = 665;
}
);
unicode = 64;
}
{
glyphname = B;
kernLeft = H;
kernRight = B;
layers = (
{
anchors = (
{
name = bottom;
pos = (484,0);
},
{
name = center;
pos = (484,300);
},
{
name = top;
pos = (445,600);
}
);
guides = (
{
angle = 270;
pos = (572,293);
}
);
layerId = "0CCC0E2D-406A-4672-8E6C-854B1DF78A27";
shapes = (
{
closed = 1;
nodes = (
(32,0,l),
(513,1,ls),
(770,2,o),
(881,56,o),
(881,165,cs),
(881,262,o),
(786,307,o),
(609,312,c),
(613,303,l),
(774,316,o),
(846,369,o),
(846,454,cs),
(846,551,o),
(745,600,o),
(513,600,cs),
(32,600,l),
(30,597,l),
(180,550,l),
(180,50,l),
(30,3,l)
);
},
{
closed = 1;
nodes = (
(217,291,l),
(503,291,ls),
(738,291,o),
(844,248,o),
(844,160,cs),
(844,73,o),
(740,28,o),
(533,33,cs),
(217,40,l)
);
},
{
closed = 1;
nodes = (
(217,572,l),
(503,576,ls),
(711,579,o),
(809,536,o),
(809,450,cs),
(809,365,o),
(714,321,o),
(513,321,cs),
(217,321,l)
);
}
);
width = 941;
},
{
associatedMasterId = "0CCC0E2D-406A-4672-8E6C-854B1DF78A27";
guides = (
{
angle = 270;
pos = (606,293);
}
);
layerId = "50E6EA7B-AFCA-42BE-AA86-BD03D217D714";
name = "Mar 27 18, 20:39";
shapes = (
{
closed = 1;
nodes = (
(42,0,l),
(265,0,l),
(265,50,l),
(266,550,l),
(265,600,l),
(42,600,l),
(40,597,l),
(190,550,l),
(190,50,l),
(40,3,l)
);
},
{
closed = 1;
nodes = (
(527,288,ls),
(761,288,o),
(876,265,o),
(876,154,cs),
(876,69,o),
(768,41,o),
(547,41,c),
(226,40,l),
(226,0,l),
(557,1,ls),
(825,2,o),
(956,57,o),
(956,167,cs),
(956,272,o),
(825,323,o),
(557,323,cs),
(211,323,l),
(211,288,l)
);
},
{
closed = 1;
nodes = (
(527,570,l),
(738,569,o),
(841,536,o),
(841,441,cs),
(841,361,o),
(741,322,o),
(536,322,c),
(560,309,l),
(787,300,o),
(921,355,o),
(921,456,cs),
(921,547,o),
(786,600,o),
(557,600,cs),
(211,600,l),
(211,560,l)
);
}
);
width = 1006;
},
{
associatedMasterId = "0CCC0E2D-406A-4672-8E6C-854B1DF78A27";
guides = (
{
angle = 270;
pos = (606,293);
}
);
layerId = "39A7403D-D5F7-476E-B4DD-AC7E852F258F";
name = "Mar 27 18, 20:39";
shapes = (
{
closed = 1;
nodes = (
(42,0,l),
(265,0,l),
(265,50,l),
(266,550,l),
(265,600,l),
(42,600,l),
(40,597,l),
(190,550,l),
(190,50,l),
(40,3,l)
);
},
{
closed = 1;
nodes = (
(527,288,ls),
(761,288,o),
(876,265,o),
(876,154,cs),
(876,69,o),
(768,41,o),
(547,41,c),
(226,40,l),
(226,0,l),
(557,1,ls),
(825,2,o),
(956,57,o),
(956,167,cs),
(956,272,o),
(825,323,o),
(557,323,cs),
(211,323,l),
(211,288,l)
);
},
{
closed = 1;
nodes = (
(527,570,l),
(738,569,o),
(841,536,o),
(841,441,cs),
(841,361,o),
(741,322,o),
(536,322,c),
(560,309,l),
(787,300,o),
(921,355,o),
(921,456,cs),
(921,547,o),
(786,600,o),
(557,600,cs),
(211,600,l),
(211,560,l)
);
}
);
width = 1006;
},
{
anchors = (
{
name = bottom;
pos = (413,0);
},
{
name = center;
pos = (413,300);
},
{
name = top;
pos = (374,600);
}
);
guides = (
{
angle = 270;
pos = (526,293);
}
);
layerId = m002;
shapes = (
{
closed = 1;
nodes = (
(16,0,l),
(426,1,ls),
(724,2,o),
(873,49,o),
(873,173,cs),
(873,256,o),
(771,323,o),
(553,328,c),
(557,311,l),
(703,322,o),
(838,388,o),
(838,462,cs),
(838,559,o),
(717,600,o),
(457,600,cs),
(16,600,l),
(14,589,l),
(164,550,l),
(164,50,l),
(14,11,l)
);
},
{
closed = 1;
nodes = (
(260,283,l),
(416,283,ls),
(696,283,o),
(762,259,o),
(762,152,cs),
(762,102,o),
(690,33,o),
(477,44,cs),
(260,56,l)
);
},
{
closed = 1;
nodes = (
(262,556,l),
(416,560,ls),
(659,566,o),
(727,535,o),
(727,442,cs),
(727,389,o),
(642,329,o),
(457,329,cs),
(262,329,l)
);
}
);
width = 917;
},
{
associatedMasterId = m002;
guides = (
{
angle = 270;
pos = (606,293);
}
);
layerId = "43B2A580-BF78-4B03-8168-D5052E8B1B5D";
name = "Mar 27 18, 20:39";
shapes = (
{
closed = 1;
nodes = (
(42,0,l),
(265,0,l),
(265,50,l),
(266,550,l),
(265,600,l),
(42,600,l),
(40,597,l),
(190,550,l),
(190,50,l),
(40,3,l)
);
},
{
closed = 1;
nodes = (
(527,288,ls),
(761,288,o),
(876,265,o),
(876,154,cs),
(876,69,o),
(768,41,o),
(547,41,c),
(226,40,l),
(226,0,l),
(557,1,ls),
(825,2,o),
(956,57,o),
(956,167,cs),
(956,272,o),
(825,323,o),
(557,323,cs),
(211,323,l),
(211,288,l)
);
},
{
closed = 1;
nodes = (
(527,570,l),
(738,569,o),
(841,536,o),
(841,441,cs),
(841,361,o),
(741,322,o),
(536,322,c),
(560,309,l),
(787,300,o),
(921,355,o),
(921,456,cs),
(921,547,o),
(786,600,o),
(557,600,cs),
(211,600,l),
(211,560,l)
);
}
);
width = 1006;
},
{
associatedMasterId = m002;
guides = (
{
angle = 270;
pos = (606,293);
}
);
layerId = "D68D85A3-5241-4F0D-B719-64BDAE41CD07";
name = "Mar 27 18, 20:39";
shapes = (
{
closed = 1;
nodes = (
(42,0,l),
(265,0,l),
(265,50,l),
(266,550,l),
(265,600,l),
(42,600,l),
(40,597,l),
(190,550,l),
(190,50,l),
(40,3,l)
);
},
{
closed = 1;
nodes = (
(527,288,ls),
(761,288,o),
(876,265,o),
(876,154,cs),
(876,69,o),
(768,41,o),
(547,41,c),
(226,40,l),
(226,0,l),
(557,1,ls),
(825,2,o),
(956,57,o),
(956,167,cs),
(956,272,o),
(825,323,o),
(557,323,cs),
(211,323,l),
(211,288,l)
);
},
{
closed = 1;
nodes = (
(527,570,l),
(738,569,o),
(841,536,o),
(841,441,cs),
(841,361,o),
(741,322,o),
(536,322,c),
(560,309,l),
(787,300,o),
(921,355,o),
(921,456,cs),
(921,547,o),
(786,600,o),
(557,600,cs),
(211,600,l),
(211,560,l)
);
}
);
width = 1006;
},
{
anchors = (
{
name = bottom;
pos = (303,0);
},
{
name = center;
pos = (303,300);
},
{
name = top;
pos = (264,600);
}
);
guides = (
{
angle = 270;
pos = (401,293);
}
);
layerId = m003;
shapes = (
{
closed = 1;
nodes = (
(10,0,l),
(251,1,ls),
(396,2,o),
(482,67,o),
(482,181,cs),
(482,260,o),
(415,330,o),
(312,334,c),
(319,319,l),
(391,330,o),
(437,391,o),
(437,465,cs),
(437,548,o),
(374,600,o),
(266,600,cs),
(10,600,l),
(8,591,l),
(118,555,l),
(118,46,l),
(8,9,l)
);
},
{
closed = 1;
nodes = (
(197,297,l),
(232,297,ls),
(329,297,o),
(397,238,o),
(397,164,cs),
(397,78,o),
(347,35,o),
(266,41,cs),
(197,46,l)
);
},
{
closed = 1;
nodes = (
(198,567,l),
(232,570,ls),
(303,576,o),
(352,526,o),
(352,449,cs),
(352,383,o),
(315,334,o),
(266,334,cs),
(198,334,l)
);
}
);
width = 525;
},
{
associatedMasterId = m003;
guides = (
{
angle = 270;
pos = (606,293);
}
);
layerId = "6C02418F-0930-42E1-A8C1-B67EB353634A";
name = "Mar 27 18, 20:39";
shapes = (
{
closed = 1;
nodes = (
(42,0,l),
(265,0,l),
(265,50,l),
(266,550,l),
(265,600,l),
(42,600,l),
(40,597,l),
(190,550,l),
(190,50,l),
(40,3,l)
);
},
{
closed = 1;
nodes = (
(527,288,ls),
(761,288,o),
(876,265,o),
(876,154,cs),
(876,69,o),
(768,41,o),
(547,41,c),
(226,40,l),
(226,0,l),
(557,1,ls),
(825,2,o),
(956,57,o),
(956,167,cs),
(956,272,o),
(825,323,o),
(557,323,cs),
(211,323,l),
(211,288,l)
);
},
{
closed = 1;
nodes = (
(527,570,l),
(738,569,o),
(841,536,o),
(841,441,cs),
(841,361,o),
(741,322,o),
(536,322,c),
(560,309,l),
(787,300,o),
(921,355,o),
(921,456,cs),
(921,547,o),
(786,600,o),
(557,600,cs),
(211,600,l),
(211,560,l)
);
}
);
width = 1006;
},
{
associatedMasterId = m003;
guides = (
{
angle = 270;
pos = (606,293);
}
);
layerId = "1F67A0A9-1E17-4830-886F-1B348A9F3DC0";
name = "Mar 27 18, 20:39";
shapes = (
{
closed = 1;
nodes = (
(42,0,l),
(265,0,l),
(265,50,l),
(266,550,l),
(265,600,l),
(42,600,l),
(40,597,l),
(190,550,l),
(190,50,l),
(40,3,l)
);
},
{
closed = 1;
nodes = (
(527,288,ls),
(761,288,o),
(876,265,o),
(876,154,cs),
(876,69,o),
(768,41,o),
(547,41,c),
(226,40,l),
(226,0,l),
(557,1,ls),
(825,2,o),
(956,57,o),
(956,167,cs),
(956,272,o),
(825,323,o),
(557,323,cs),
(211,323,l),
(211,288,l)
);
},
{
closed = 1;
nodes = (
(527,570,l),
(738,569,o),
(841,536,o),
(841,441,cs),
(841,361,o),
(741,322,o),
(536,322,c),
(560,309,l),
(787,300,o),
(921,355,o),
(921,456,cs),
(921,547,o),
(786,600,o),
(557,600,cs),
(211,600,l),
(211,560,l)
);
}
);
width = 1006;
},
{
anchors = (
{
name = bottom;
pos = (357,0);
},
{
name = center;
pos = (357,300);
},
{
name = top;
pos = (318,600);
}
);
layerId = "2C26E880-80A5-4D19-8A94-7D905A372841";
shapes = (
{
closed = 1;
nodes = (
(22,0,l),
(306,1,ls),
(403,1,o),
(480,78,o),
(480,175,cs),
(480,257,o),
(423,319,o),
(343,323,c),
(337,313,l),
(392,320,o),
(434,383,o),
(434,459,cs),
(434,543,o),
(379,600,o),
(297,600,cs),
(22,600,l),
(20,597,l),
(130,555,l),
(130,46,l),
(20,3,l)
);
},
{
closed = 1;
nodes = (
(165,301,l),
(286,301,ls),
(379,301,o),
(445,248,o),
(445,170,cs),
(445,91,o),
(380,30,o),
(297,32,cs),
(165,35,l)
);
},
{
closed = 1;
nodes = (
(165,569,l),
(286,573,ls),
(351,575,o),
(400,531,o),
(400,455,cs),
(400,383,o),
(356,331,o),
(297,331,cs),
(165,331,l)
);
}
);
width = 510;
}
);
metricLeft = H;
unicode = 66;
}
{
glyphname = D;
kernLeft = H;
kernRight = O;
layers = (
{
anchors = (
{
name = bottom;
pos = (491,0);
},
{
name = center;
pos = (491,300);
},
{
name = top;
pos = (493,600);
}
);
layerId = "0CCC0E2D-406A-4672-8E6C-854B1DF78A27";
shapes = (
{
closed = 1;
nodes = (
(453,1,ls),
(772,2,o),
(928,93,o),
(928,300,cs),
(928,494,o),
(757,600,o),
(443,600,cs),
(32,600,l),
(30,591,l),
(180,550,l),
(180,50,l),
(30,8,l),
(32,0,l)
);
},
{
closed = 1;
nodes = (
(217,572,l),
(433,572,ls),
(718,572,o),
(887,474,o),
(887,287,cs),
(887,109,o),
(732,32,o),
(463,36,cs),
(217,40,l)
);
}
);
width = 973;
},
{
anchors = (
{
name = bottom;
pos = (511,0);
},
{
name = center;
pos = (511,300);
},
{
name = top;
pos = (513,600);
}
);
layerId = m002;
shapes = (
{
closed = 1;
nodes = (
(441,1,ls),
(809,2,o),
(987,102,o),
(987,300,cs),
(987,505,o),
(819,600,o),
(463,600,cs),
(16,600,l),
(14,591,l),
(164,550,l),
(164,50,l),
(14,8,l),
(16,0,l)
);
},
{
closed = 1;
nodes = (
(262,556,l),
(422,561,ls),
(733,570,o),
(882,474,o),
(882,287,cs),
(882,119,o),
(745,28,o),
(483,43,cs),
(260,56,l)
);
}
);
width = 1016;
},
{
anchors = (
{
name = bottom;
pos = (271,0);
},
{
name = center;
pos = (271,300);
},
{
name = top;
pos = (273,600);
}
);
layerId = m003;
shapes = (
{
closed = 1;
nodes = (
(238,1,ls),
(427,2,o),
(520,101,o),
(520,300,cs),
(520,496,o),
(431,600,o),
(263,600,cs),
(10,600,l),
(8,591,l),
(118,555,l),
(118,45,l),
(8,8,l),
(10,0,l)
);
},
{
closed = 1;
nodes = (
(197,566,l),
(228,568,ls),
(356,576,o),
(432,479,o),
(432,287,cs),
(432,121,o),
(374,42,o),
(253,46,cs),
(196,48,l)
);
}
);
width = 553;
},
{
anchors = (
{
name = bottom;
pos = (258,0);
},
{
name = center;
pos = (258,300);
},
{
name = top;
pos = (260,600);
}
);
layerId = "2C26E880-80A5-4D19-8A94-7D905A372841";
shapes = (
{
closed = 1;
nodes = (
(249,1,ls),
(395,2,o),
(476,109,o),
(476,300,cs),
(476,491,o),
(394,600,o),
(250,600,cs),
(22,600,l),
(20,591,l),
(130,555,l),
(130,45,l),
(20,8,l),
(22,0,l)
);
},
{
closed = 1;
nodes = (
(165,571,l),
(242,571,ls),
(366,571,o),
(440,468,o),
(440,287,cs),
(440,113,o),
(370,24,o),
(240,31,cs),
(165,35,l)
);
}
);
width = 521;
}
);
metricLeft = H;
metricRight = O;
unicode = 68;
}
{
glyphname = F;
kernLeft = H;
kernRight = F;
layers = (
{
anchors = (
{
name = bottom;
pos = (448,0);
},
{
name = top;
pos = (460,600);
}
);
layerId = "0CCC0E2D-406A-4672-8E6C-854B1DF78A27";
shapes = (
{
closed = 1;
nodes = (
(30,592,l),
(180,550,l),
(181,50,l),
(31,8,l),
(33,0,l),
(415,0,l),
(417,8,l),
(218,53,l),
(218,268,l),
(535,266,l),
(600,146,l),
(608,149,l),
(589,280,l),
(606,412,l),
(598,415,l),
(535,295,l),
(218,291,l),
(217,577,l),
(724,581,l),
(748,422,l),
(755,420,l),
(795,612,l),
(32,600,l)
);
}
);
width = 805;
},
{
associatedMasterId = "0CCC0E2D-406A-4672-8E6C-854B1DF78A27";
layerId = "8E3AE6BA-28EB-4BD7-9A6A-D82C415CF13D";
name = "Apr 20 19, 12:25";
shapes = (
{
closed = 1;
nodes = (
(160,550,l),
(161,50,l),
(11,6,l),
(13,0,l),
(433,0,l),
(436,6,l),
(236,53,l),
(235.615,263.668,l),
(591,255,l),
(591,305,l),
(235.555,296.331,l),
(235.056,569.418,l),
(800,561,l),
(825,402,l),
(832,400,l),
(881,615,l),
(582,600,l),
(12,600,l),
(10,597,l)
);
}
);
width = 901;
},
{
associatedMasterId = "0CCC0E2D-406A-4672-8E6C-854B1DF78A27";
layerId = "B26159C7-A002-4A1B-A6BB-21D8CC73AC5D";
name = "Apr 20 19, 12:25";
shapes = (
{
closed = 1;
nodes = (
(160,550,l),
(161,50,l),
(11,6,l),
(13,0,l),
(433,0,l),
(436,6,l),
(236,53,l),
(235.615,263.668,l),
(591,255,l),
(591,305,l),
(235.555,296.331,l),
(235.056,569.418,l),
(800,561,l),
(825,402,l),
(832,400,l),
(881,615,l),
(582,600,l),
(12,600,l),
(10,597,l)
);
}
);
width = 901;
},
{
associatedMasterId = "0CCC0E2D-406A-4672-8E6C-854B1DF78A27";
layerId = "EA982466-DFC0-4B75-BFAC-EDF952505A81";
name = "Apr 20 19, 12:20";
shapes = (
{
closed = 1;
nodes = (
(120,570,l),
(120,30,l),
(30,6,l),
(32,0,l),
(293,0,l),
(295,6,l),
(175,31,l),
(175,283.834,l),
(317,276,l),
(317,311,l),
(175,304.145,l),
(175,579.101,l),
(347,570,l),
(371,402,l),
(375,400,l),
(399,610,l),
(312,600,l),
(32,600,l),
(30,594,l)
);
}
);
width = 419;
},
{
anchors = (
{
name = bottom;
pos = (468,0);
},
{
name = top;
pos = (480,600);
}
);
layerId = m002;
shapes = (
{
closed = 1;
nodes = (
(14,592,l),
(164,550,l),
(165,50,l),
(15,8,l),
(17,0,l),
(458,0,l),
(460,8,l),
(261,53,l),
(261,257,l),
(570,250,l),
(635,130,l),
(643,133,l),
(624,280,l),
(641,428,l),
(633,431,l),
(570,311,l),
(261,302,l),
(260,561,l),
(759,551,l),
(798,392,l),
(805,390,l),
(845,612,l),
(16,600,l)
);
}
);
width = 839;
},
{
associatedMasterId = m002;
layerId = "89670E76-D3F5-4127-A16A-2E9876A3F11A";
name = "Apr 20 19, 12:25";
shapes = (
{
closed = 1;
nodes = (
(160,550,l),
(161,50,l),
(11,6,l),
(13,0,l),
(433,0,l),
(436,6,l),
(236,53,l),
(235.615,263.668,l),
(591,255,l),
(591,305,l),
(235.555,296.331,l),
(235.056,569.418,l),
(800,561,l),
(825,402,l),
(832,400,l),
(881,615,l),
(582,600,l),
(12,600,l),
(10,597,l)
);
}
);
width = 901;
},
{
associatedMasterId = m002;
layerId = "CC1F26F2-EE20-46CB-881E-8364BBA7445B";
name = "Apr 20 19, 12:25";
shapes = (
{
closed = 1;
nodes = (
(160,550,l),
(161,50,l),
(11,6,l),
(13,0,l),
(433,0,l),
(436,6,l),
(236,53,l),
(235.615,263.668,l),
(591,255,l),
(591,305,l),
(235.555,296.331,l),
(235.056,569.418,l),
(800,561,l),
(825,402,l),
(832,400,l),
(881,615,l),
(582,600,l),
(12,600,l),
(10,597,l)
);
}
);
width = 901;
},
{
associatedMasterId = m002;
layerId = "A2D744AB-844D-4C9D-A046-40483784C52A";
name = "Apr 20 19, 12:20";
shapes = (
{
closed = 1;
nodes = (
(120,570,l),
(120,30,l),
(30,6,l),
(32,0,l),
(293,0,l),
(295,6,l),
(175,31,l),
(175,283.834,l),
(317,276,l),
(317,311,l),
(175,304.145,l),
(175,579.101,l),
(347,570,l),
(371,402,l),
(375,400,l),
(399,610,l),
(312,600,l),
(32,600,l),
(30,594,l)
);
}
);
width = 419;
},
{
anchors = (
{
name = bottom;
pos = (255,0);
},
{
name = top;
pos = (267,600);
}
);
layerId = m003;
shapes = (
{
closed = 1;
nodes = (
(8,592,l),
(118,555,l),
(118,45,l),
(8,8,l),
(10,0,l),
(367,0,l),
(369,8,l),
(197,45,l),
(197,265,l),
(291,263,l),
(351,141,l),
(359,143,l),
(340,283,l),
(357,425,l),
(349,427,l),
(291,305,l),
(198,303,l),
(198,570,l),
(398,564,l),
(430,403,l),
(438,401,l),
(477,612,l),
(10,600,l)
);
}
);
width = 474;
},
{
associatedMasterId = m003;
layerId = "9EC86ED5-0CBE-4066-B329-5855C57D4A20";
name = "Apr 20 19, 12:25";
shapes = (
{
closed = 1;
nodes = (
(160,550,l),
(161,50,l),
(11,6,l),
(13,0,l),
(433,0,l),
(436,6,l),
(236,53,l),
(235.615,263.668,l),
(591,255,l),
(591,305,l),
(235.555,296.331,l),
(235.056,569.418,l),
(800,561,l),
(825,402,l),
(832,400,l),
(881,615,l),
(582,600,l),
(12,600,l),
(10,597,l)
);
}
);
width = 901;
},
{
associatedMasterId = m003;
layerId = "81D320CF-B678-4791-9A53-47CFBDE6A85F";
name = "Apr 20 19, 12:25";
shapes = (
{
closed = 1;
nodes = (
(160,550,l),
(161,50,l),
(11,6,l),
(13,0,l),
(433,0,l),
(436,6,l),
(236,53,l),
(235.615,263.668,l),
(591,255,l),
(591,305,l),
(235.555,296.331,l),
(235.056,569.418,l),
(800,561,l),
(825,402,l),
(832,400,l),
(881,615,l),
(582,600,l),
(12,600,l),
(10,597,l)
);
}
);
width = 901;
},
{
associatedMasterId = m003;
layerId = "ADD57032-0487-4C9E-8088-7A92222FE6E5";
name = "Apr 20 19, 12:20";
shapes = (
{
closed = 1;
nodes = (
(120,570,l),
(120,30,l),
(30,6,l),
(32,0,l),
(293,0,l),
(295,6,l),
(175,31,l),
(175,283.834,l),
(317,276,l),
(317,311,l),
(175,304.145,l),
(175,579.101,l),
(347,570,l),
(371,402,l),
(375,400,l),
(399,610,l),
(312,600,l),
(32,600,l),
(30,594,l)
);
}
);
width = 419;
},
{
anchors = (
{
name = bottom;
pos = (238,0);
},
{
name = top;
pos = (250,600);
}
);
background = {
shapes = (
{
closed = 1;
nodes = (
(22,0,l),
(323,0,l),
(325,8,l),
(165,45,l),
(165,271,l),
(260,271,l),
(320,148,l),
(328,150,l),
(309,282,l),
(326,419,l),
(318,421,l),
(260,297,l),
(164,297,l),
(164,582,l),
(369,578,l),
(389,426,l),
(397,424,l),
(436,612,l),
(22,600,l),
(20,592,l),
(130,555,l),
(130,45,l),
(20,8,l)
);
}
);
};
layerId = "2C26E880-80A5-4D19-8A94-7D905A372841";
shapes = (
{
closed = 1;
nodes = (
(20,592,l),
(130,555,l),
(130,45,l),
(20,8,l),
(22,0,l),
(323,0,l),
(325,8,l),
(165,45,l),
(165,269,l),
(260,269,l),
(320,146,l),
(328,148,l),
(309,282,l),
(326,421,l),
(318,423,l),
(260,299,l),
(164,299,l),
(164,579,l),
(369,575,l),
(389,423,l),
(397,421,l),
(436,612,l),
(22,600,l)
);
}
);
width = 446;
}
);
metricLeft = H;
unicode = 70;
}
{
glyphname = G;
kernLeft = O;
kernRight = G;
layers = (
{
anchors = (
{
name = bottom;
pos = (473,0);
},
{
name = top;
pos = (452,600);
}
);
background = {
anchors = (
{
name = bottom;
pos = (432,0);
},
{
name = top;
pos = (459,600);
}
);
shapes = (
{
closed = 1;
nodes = (
(40,106,o),
(205,-20,o),
(465,-20,cs),
(600,-20,o),
(708,16,o),
(795,91,c),
(782,105,l),
(703,42,o),
(605,10,o),
(489,10,cs),
(250,10,o),
(80,134,o),
(80,310,cs),
(80,483,o),
(226,595,o),
(450,595,cs),
(551,595,o),
(671,573,o),
(729,545,c),
(746,362,l),
(754,360,l),
(815,546,l),
(737,594,o),
(598,625,o),
(463,625,cs),
(202,625,o),
(40,502,o),
(40,304,cs)
);
}
);
};
layerId = "0CCC0E2D-406A-4672-8E6C-854B1DF78A27";
shapes = (
{
closed = 1;
nodes = (
(776,-15,l),
(786,-17,l),
(801,269,l),
(346,272,l),
(348,257,l),
(741,212,l)
);
},
{
closed = 1;
nodes = (
(551,593,o),
(671,573,o),
(719,555,c),
(736,378,l),
(744,376,l),
(805,572,l),
(733,597,o),
(595,625,o),
(453,625,cs),
(192,625,o),
(40,502,o),
(40,304,cs),
(40,106,o),
(205,-20,o),
(465,-20,cs),
(600,-20,o),
(708,12,o),
(785,77,c),
(772,97,l),
(703,44,o),
(595,12,o),
(479,12,cs),
(240,12,o),
(78,134,o),
(78,310,cs),
(78,483,o),
(226,593,o),
(450,593,cs)
);
}
);
width = 875;
},
{
associatedMasterId = "0CCC0E2D-406A-4672-8E6C-854B1DF78A27";
layerId = "0BFE6188-949A-456E-A6EC-EA65FB64DE6E";
name = "Sep 12 19, 11:21";
shapes = (
{
closed = 1;
nodes = (
(60,112,o),
(244,-20,o),
(505,-20,cs),
(627.98,-20,o),
(742.41,9.925,o),
(820.62,62.66,c),
(829,4,l),
(857,0,l),
(867,269,l),
(343,269,l),
(356,249,l),
(797,228,l),
(814.876,102.866,l),
(747.185,45.265,o),
(646.404,25,o),
(549,25,cs),
(309,25,o),
(140,149,o),
(140,325,cs),
(140,477,o),
(252,580,o),
(481,580,cs),
(599,580,o),
(710,557,o),
(779,500,c),
(797,332,l),
(804,330,l),
(865,511,l),
(789,579,o),
(662,625,o),
(524,625,cs),
(252,625,o),
(60,490,o),
(60,299,cs)
);
}
);
width = 957;
},
{
anchors = (
{
name = bottom;
pos = (498,0);
},
{
name = top;
pos = (477,600);
}
);
layerId = m002;
shapes = (
{
closed = 1;
nodes = (
(825,-16,l),
(835,-18,l),
(856,269,l),
(370,268,l),
(372,253,l),
(776,206,l)
);
},
{
closed = 1;
nodes = (
(560,573,o),
(677,552,o),
(765,519,c),
(782,358,l),
(790,356,l),
(851,576,l),
(763,605,o),
(625,625,o),
(516,625,cs),
(234,625,o),
(24,485,o),
(24,296,cs),
(24,110,o),
(212,-20,o),
(481,-20,cs),
(625,-20,o),
(756,16,o),
(822,74,c),
(818,109,l),
(773,64,o),
(659,32,o),
(541,32,cs),
(313,32,o),
(127,167,o),
(127,334,cs),
(127,475,o),
(266,573,o),
(467,573,cs)
);
}
);
width = 909;
},
{
associatedMasterId = m002;
layerId = "D1021EB0-D77D-44F0-A622-BDCF0C8F9750";
name = "Sep 12 19, 11:21";
shapes = (
{
closed = 1;
nodes = (
(60,112,o),
(244,-20,o),
(505,-20,cs),
(627.98,-20,o),
(742.41,9.925,o),
(820.62,62.66,c),
(829,4,l),
(857,0,l),
(867,269,l),
(343,269,l),
(356,249,l),
(797,228,l),
(814.876,102.866,l),
(747.185,45.265,o),
(646.404,25,o),
(549,25,cs),
(309,25,o),
(140,149,o),
(140,325,cs),
(140,477,o),
(252,580,o),
(481,580,cs),
(599,580,o),
(710,557,o),
(779,500,c),
(797,332,l),
(804,330,l),
(865,511,l),
(789,579,o),
(662,625,o),
(524,625,cs),
(252,625,o),
(60,490,o),
(60,299,cs)
);
}
);
width = 957;
},
{
anchors = (
{
name = bottom;
pos = (301,0);
},
{
name = top;
pos = (280,600);
}
);
layerId = m003;
shapes = (
{
closed = 1;
nodes = (
(443,-16,l),
(455,-18,l),
(474,269,l),
(264,269,l),
(266,261,l),
(400,214,l)
);
},
{
closed = 1;
nodes = (
(335,577,o),
(367,567,o),
(390,556,c),
(407,389,l),
(415,387,l),
(466,594,l),
(403,612,o),
(358,621,o),
(305,621,cs),
(132,621,o),
(26,493,o),
(26,288,cs),
(26,107,o),
(123,-20,o),
(266,-20,cs),
(339,-20,o),
(392,6,o),
(448,64,c),
(436,85,l),
(392,49,o),
(353,36,o),
(307,36,cs),
(194,36,o),
(116,147,o),
(116,306,cs),
(116,446,o),
(156,574,o),
(288,576,cs)
);
}
);
width = 522;
},
{
associatedMasterId = m003;
layerId = "EE3D0923-803A-4EED-AC62-0D021C8E5589";
name = "Sep 12 19, 11:21";
shapes = (
{
closed = 1;
nodes = (
(60,112,o),
(244,-20,o),
(505,-20,cs),
(627.98,-20,o),
(742.41,9.925,o),
(820.62,62.66,c),
(829,4,l),
(857,0,l),
(867,269,l),
(343,269,l),
(356,249,l),
(797,228,l),
(814.876,102.866,l),
(747.185,45.265,o),
(646.404,25,o),
(549,25,cs),
(309,25,o),
(140,149,o),
(140,325,cs),
(140,477,o),
(252,580,o),
(481,580,cs),
(599,580,o),
(710,557,o),
(779,500,c),
(797,332,l),
(804,330,l),
(865,511,l),
(789,579,o),
(662,625,o),
(524,625,cs),
(252,625,o),
(60,490,o),
(60,299,cs)
);
}
);
width = 957;
},
{
anchors = (
{
name = bottom;
pos = (290,0);
},
{
name = top;
pos = (269,600);
}
);
layerId = "2C26E880-80A5-4D19-8A94-7D905A372841";
shapes = (
{
closed = 1;
nodes = (
(405,-16,l),
(417,-18,l),
(436,269,l),
(236,269,l),
(238,261,l),
(375,224,l)
);
},
{
closed = 1;
nodes = (
(283,587,o),
(319,582,o),
(334,575,c),
(351,413,l),
(359,411,l),
(410,589,l),
(376,607,o),
(313,620,o),
(261,620,cs),
(120,620,o),
(45,507,o),
(45,294,cs),
(45,92,o),
(128,-20,o),
(259,-20,cs),
(326,-20,o),
(374,10,o),
(422,68,c),
(414,92,l),
(367,38,o),
(323,10,o),
(265,10,cs),
(155,10,o),
(84,114,o),
(84,300,cs),
(84,494,o),
(139,587,o),
(254,587,cs)
);
}
);
width = 499;
}
);
metricLeft = O;
unicode = 71;
}
{
glyphname = H;
kernLeft = H;
kernRight = H;
layers = (
{
anchors = (
{
name = bar;
pos = (524,477);
},
{
name = bottom;
pos = (525,0);
},
{
name = center;
pos = (525,300);
},
{
name = top;
pos = (525,600);
},
{
name = topleft;
pos = (-28,600);
}
);
layerId = "0CCC0E2D-406A-4672-8E6C-854B1DF78A27";
shapes = (
{
closed = 1;
nodes = (
(197,555,l),
(367,592,l),
(365,600,l),
(32,600,l),
(30,592,l),
(160,555,l),
(160,50,l),
(30,8,l),
(32,0,l),
(365,0,l),
(367,8,l),
(197,50,l)
);
},
{
closed = 1;
nodes = (
(868,315,l),
(178,315,l),
(178,285,l),
(868,285,l)
);
},
{
closed = 1;
nodes = (
(853,50,l),
(683,8,l),
(685,0,l),
(1018,0,l),
(1020,8,l),
(890,50,l),
(890,555,l),
(1020,592,l),
(1018,600,l),
(685,600,l),
(683,592,l),
(853,555,l)
);
}
);
width = 1050;
},
{
anchors = (
{
name = bar;
pos = (548,477);
},
{
name = bottom;
pos = (545,0);
},
{
name = center;
pos = (545,300);
},
{
name = top;
pos = (545,600);
},
{
name = topleft;
pos = (-8,600);
}
);
layerId = m002;
shapes = (
{
closed = 1;
nodes = (
(241,555,l),
(411,592,l),
(409,600,l),
(16,600,l),
(14,592,l),
(144,555,l),
(144,50,l),
(14,8,l),
(16,0,l),
(409,0,l),
(411,8,l),
(241,50,l)
);
},
{
closed = 1;
nodes = (
(925,323,l),
(186,323,l),
(186,277,l),
(925,277,l)
);
},
{
closed = 1;
nodes = (
(849,50,l),
(679,8,l),
(681,0,l),
(1074,0,l),
(1076,8,l),
(946,50,l),
(946,555,l),
(1076,592,l),
(1074,600,l),
(681,600,l),
(679,592,l),
(849,555,l)
);
}
);
width = 1090;
},
{
anchors = (
{
name = bar;
pos = (323,471);
},
{
name = bottom;
pos = (331,0);
},
{
name = center;
pos = (321,300);
},
{
name = top;
pos = (321,600);
},
{
name = topleft;
pos = (-72,600);
}
);
layerId = m003;
shapes = (
{
closed = 1;
nodes = (
(197,555,l),
(307,592,l),
(305,600,l),
(10,600,l),
(8,592,l),
(118,555,l),
(118,45,l),
(8,8,l),
(10,0,l),
(305,0,l),
(307,8,l),
(197,45,l)
);
},
{
closed = 1;
nodes = (
(518,319,l),
(148,319,l),
(148,282,l),
(518,282,l)
);
},
{
closed = 1;
nodes = (
(455,45,l),
(345,8,l),
(347,0,l),
(642,0,l),
(644,8,l),
(534,45,l),
(534,555,l),
(644,592,l),
(642,600,l),
(347,600,l),
(345,592,l),
(455,555,l)
);
}
);
width = 652;
},
{
anchors = (
{
name = bar;
pos = (313,471);
},
{
name = bottom;
pos = (317,0);
},
{
name = center;
pos = (307,300);
},
{
name = top;
pos = (307,600);
},
{
name = topleft;
pos = (-86,600);
}
);
layerId = "2C26E880-80A5-4D19-8A94-7D905A372841";
shapes = (
{
closed = 1;
nodes = (
(165,555,l),
(275,592,l),
(273,600,l),
(22,600,l),
(20,592,l),
(130,555,l),
(130,45,l),
(20,8,l),
(22,0,l),
(273,0,l),
(275,8,l),
(165,45,l)
);
},
{
closed = 1;
nodes = (
(475,316,l),
(143,316,l),
(143,286,l),
(475,286,l)
);
},
{
closed = 1;
nodes = (
(458,45,l),
(348,8,l),
(350,0,l),
(600,0,l),
(602,8,l),
(492,45,l),
(492,555,l),
(602,592,l),
(600,600,l),
(350,600,l),
(348,592,l),
(458,555,l)
);
}
);
width = 622;
}
);
unicode = 72;
}
{
glyphname = K;
kernLeft = H;
kernRight = K;
layers = (
{
associatedMasterId = "0CCC0E2D-406A-4672-8E6C-854B1DF78A27";
layerId = "590979A8-FF2F-4509-A2A3-14684D938160";
name = "Extended Mar 31 18, 15:49";
shapes = (
{
closed = 1;
nodes = (
(37,0,l),
(412,0,l),
(414,6,l),
(264,50,l),
(264,550,l),
(419,594,l),
(417,600,l),
(42,600,l),
(40,594,l),
(190,550,l),
(190,50,l),
(35,6,l)
);
},
{
closed = 1;
nodes = (
(259,145,l),
(817,550,l),
(967,594,l),
(970,600,l),
(589,600,l),
(587,594,l),
(737,550,l),
(190,145,l)
);
},
{
closed = 1;
nodes = (
(909,-66,l),
(958,-56,l),
(523,382,l),
(462,310,l)
);
}
);
width = 1035;
},
{
anchors = (
{
name = bottom;
pos = (493,0);
},
{
name = top;
pos = (493,600);
}
);
layerId = "0CCC0E2D-406A-4672-8E6C-854B1DF78A27";
shapes = (
{
closed = 1;
nodes = (
(435,333,l),
(752,50,l),
(612,8,l),
(614,0,l),
(956,0,l),
(958,8,l),
(803,50,l),
(456,357,l)
);
},
{
closed = 1;
nodes = (
(198,150,l),
(763,550,l),
(913,592,l),
(911,600,l),
(563,600,l),
(561,592,l),
(711,550,l),
(198,189,l)
);
},
{
closed = 1;
nodes = (
(222,550,l),
(377,592,l),
(375,600,l),
(37,600,l),
(35,592,l),
(185,550,l),
(185,50,l),
(30,8,l),
(32,0,l),
(370,0,l),
(372,8,l),
(222,50,l)
);
}
);
width = 966;
},
{
associatedMasterId = "0CCC0E2D-406A-4672-8E6C-854B1DF78A27";
layerId = "32157E01-D1D7-4E57-A950-BE1247EEB11C";
name = "Extended Mar 31 18, 15:49";
shapes = (
{
closed = 1;
nodes = (
(37,0,l),
(412,0,l),
(414,6,l),
(264,50,l),
(264,550,l),
(419,594,l),
(417,600,l),
(42,600,l),
(40,594,l),
(190,550,l),
(190,50,l),
(35,6,l)
);
},
{
closed = 1;
nodes = (
(259,145,l),
(817,550,l),
(967,594,l),
(970,600,l),
(589,600,l),
(587,594,l),
(737,550,l),
(190,145,l)
);
},
{
closed = 1;
nodes = (
(909,-66,l),
(958,-56,l),
(523,382,l),
(462,310,l)
);
}
);
width = 1035;
},
{
associatedMasterId = m002;
layerId = "72398B1D-A87D-49EF-91A3-BC09134A37E2";
name = "Extended Mar 31 18, 15:49";
shapes = (
{
closed = 1;
nodes = (
(37,0,l),
(412,0,l),
(414,6,l),
(264,50,l),
(264,550,l),
(419,594,l),
(417,600,l),
(42,600,l),
(40,594,l),
(190,550,l),
(190,50,l),
(35,6,l)
);
},
{
closed = 1;
nodes = (
(259,145,l),
(817,550,l),
(967,594,l),
(970,600,l),
(589,600,l),
(587,594,l),
(737,550,l),
(190,145,l)
);
},
{
closed = 1;
nodes = (
(909,-66,l),
(958,-56,l),
(523,382,l),
(462,310,l)
);
}
);
width = 1035;
},
{
anchors = (
{
name = bottom;
pos = (513,0);
},
{
name = top;
pos = (513,600);
}
);
layerId = m002;
shapes = (
{
closed = 1;
nodes = (
(435,316,l),
(735,50,l),
(595,8,l),
(597,0,l),
(1010,0,l),
(1012,8,l),
(878,50,l),
(521,368,l)
);
},
{
closed = 1;
nodes = (
(218,138,l),
(813,550,l),
(979,592,l),
(977,600,l),
(584,600,l),
(582,592,l),
(716,550,l),
(218,188,l)
);
},
{
closed = 1;
nodes = (
(265,550,l),
(420,592,l),
(418,600,l),
(21,600,l),
(19,592,l),
(169,550,l),
(169,50,l),
(14,8,l),
(16,0,l),
(413,0,l),
(415,8,l),
(265,50,l)
);
}
);
width = 1008;
},
{
associatedMasterId = m002;
layerId = "C15363E9-21E1-4023-B213-9165D2E3AD33";
name = "Extended Mar 31 18, 15:49";
shapes = (
{
closed = 1;
nodes = (
(37,0,l),
(412,0,l),
(414,6,l),
(264,50,l),
(264,550,l),
(419,594,l),
(417,600,l),
(42,600,l),
(40,594,l),
(190,550,l),
(190,50,l),
(35,6,l)
);
},
{
closed = 1;
nodes = (
(259,145,l),
(817,550,l),
(967,594,l),
(970,600,l),
(589,600,l),
(587,594,l),
(737,550,l),
(190,145,l)
);
},
{
closed = 1;
nodes = (
(909,-66,l),
(958,-56,l),
(523,382,l),
(462,310,l)
);
}
);
width = 1035;
},
{
associatedMasterId = m003;
layerId = "0EBFFA9A-FBF9-4452-84EF-1ACE04C05819";
name = "Extended Mar 31 18, 15:49";
shapes = (
{
closed = 1;
nodes = (
(37,0,l),
(412,0,l),
(414,6,l),
(264,50,l),
(264,550,l),
(419,594,l),
(417,600,l),
(42,600,l),
(40,594,l),
(190,550,l),
(190,50,l),
(35,6,l)
);
},
{
closed = 1;
nodes = (
(259,145,l),
(817,550,l),
(967,594,l),
(970,600,l),
(589,600,l),
(587,594,l),
(737,550,l),
(190,145,l)
);
},
{
closed = 1;
nodes = (
(909,-66,l),
(958,-56,l),
(523,382,l),
(462,310,l)
);
}
);
width = 1035;
},
{
anchors = (
{
name = bottom;
pos = (321,0);
},
{
name = top;
pos = (301,600);
}
);
layerId = m003;
shapes = (
{
closed = 1;
nodes = (
(266,313,l),
(411,45,l),
(322,8,l),
(324,0,l),
(598,0,l),
(600,8,l),
(495,45,l),
(313,374,l)
);
},
{
closed = 1;
nodes = (
(164,132,l),
(463,555,l),
(575,592,l),
(573,600,l),
(323,600,l),
(321,592,l),
(409,555,l),
(164,198,l)
);
},
{
closed = 1;
nodes = (
(197,555,l),
(289,592,l),
(287,600,l),
(10,600,l),
(8,592,l),
(118,555,l),
(118,45,l),
(10,8,l),
(12,0,l),
(305,0,l),
(307,8,l),
(197,45,l)
);
}
);
width = 605;
},
{
associatedMasterId = m003;
layerId = "628ED45E-E92A-4DC6-B31E-5B8D87C3902E";
name = "Extended Mar 31 18, 15:49";
shapes = (
{
closed = 1;
nodes = (
(37,0,l),
(412,0,l),
(414,6,l),
(264,50,l),
(264,550,l),
(419,594,l),
(417,600,l),
(42,600,l),
(40,594,l),
(190,550,l),
(190,50,l),
(35,6,l)
);
},
{
closed = 1;
nodes = (
(259,145,l),
(817,550,l),
(967,594,l),
(970,600,l),
(589,600,l),
(587,594,l),
(737,550,l),
(190,145,l)
);
},
{
closed = 1;
nodes = (
(909,-66,l),
(958,-56,l),
(523,382,l),
(462,310,l)
);
}
);
width = 1035;
},
{
anchors = (
{
name = bottom;
pos = (313,0);
},
{
name = top;
pos = (293,600);
}
);
layerId = "2C26E880-80A5-4D19-8A94-7D905A372841";
shapes = (
{
closed = 1;
nodes = (
(261,328,l),
(426,45,l),
(327,8,l),
(329,0,l),
(590,0,l),
(592,8,l),
(468,45,l),
(277,361,l)
);
},
{
closed = 1;
nodes = (
(156,147,l),
(438,555,l),
(539,592,l),
(537,600,l),
(302,600,l),
(300,592,l),
(399,555,l),
(156,203,l)
);
},
{
closed = 1;
nodes = (
(171,555,l),
(251,592,l),
(249,600,l),
(28,600,l),
(26,592,l),
(136,555,l),
(136,45,l),
(20,8,l),
(22,0,l),
(279,0,l),
(281,8,l),
(171,45,l)
);
}
);
width = 604;
}
);
metricLeft = H;
unicode = 75;
}
{
glyphname = L;
kernLeft = H;
kernRight = L;
layers = (
{
anchors = (
{
name = bottom;
pos = (439,0);
},
{
name = center;
pos = (439,300);
},
{
name = top;
pos = (239,600);
},
{
name = topright;
pos = (459,600);
}
);
layerId = "0CCC0E2D-406A-4672-8E6C-854B1DF78A27";
shapes = (
{
closed = 1;
nodes = (
(32,0,l),
(767,0,l),
(746,199,l),
(738,197,l),
(697,25,l),
(217,25,l),
(217,550,l),
(372,592,l),
(370,600,l),
(32,600,l),
(30,592,l),
(180,550,l),
(180,50,l),
(30,8,l)
);
}
);
width = 837;
},
{
anchors = (
{
name = bottom;
pos = (457,0);
},
{
name = center;
pos = (457,300);
},
{
name = top;
pos = (257,600);
},
{
name = topright;
pos = (477,600);
}
);
layerId = m002;
shapes = (
{
closed = 1;
nodes = (
(16,0,l),
(820,0,l),
(800,240,l),
(792,238,l),
(734,63,l),
(260,42,l),
(262,550,l),
(409,592,l),
(407,600,l),
(17,600,l),
(15,592,l),
(165,550,l),
(164,50,l),
(14,8,l)
);
}
);
width = 874;
},
{
anchors = (
{
name = bottom;
pos = (254,0);
},
{
name = center;
pos = (414,300);
},
{
name = top;
pos = (164,600);
},
{
name = topright;
pos = (367,600);
}
);
layerId = m003;
shapes = (
{
closed = 1;
nodes = (
(10,0,l),
(449,0,l),
(428,220,l),
(420,218,l),
(372,42,l),
(197,32,l),
(197,555,l),
(305,592,l),
(303,600,l),
(10,600,l),
(8,592,l),
(118,555,l),
(118,45,l),
(8,8,l)
);
}
);
width = 512;
},
{
anchors = (
{
name = bottom;
pos = (241,0);
},
{
name = center;
pos = (401,300);
},
{
name = top;
pos = (151,600);
},
{
name = topright;
pos = (341,600);
}
);
layerId = "2C26E880-80A5-4D19-8A94-7D905A372841";
shapes = (
{
closed = 1;
nodes = (
(22,0,l),
(411,0,l),
(390,195,l),
(382,193,l),
(345,32,l),
(165,26,l),
(165,555,l),
(282,592,l),
(280,600,l),
(22,600,l),
(20,592,l),
(130,555,l),
(130,45,l),
(20,8,l)
);
}
);
width = 461;
}
);
metricLeft = H;
unicode = 76;
}
{
glyphname = N;
kernLeft = N;
kernRight = N;
layers = (
{
anchors = (
{
name = bottom;
pos = (529,0);
},
{
name = top;
pos = (529,600);
}
);
layerId = "0CCC0E2D-406A-4672-8E6C-854B1DF78A27";
shapes = (
{
closed = 1;
nodes = (
(893,0,l),
(893,550,l),
(1014,592,l),
(1012,600,l),
(679,600,l),
(677,592,l),
(856,550,l),
(856,50,l),
(883,48,l),
(198,600,l),
(22,600,l),
(20,592,l),
(170,550,l),
(170,50,l),
(50,8,l),
(50,0,l),
(388,0,l),
(388,8,l),
(207,50,l),
(207,550,l),
(193,553,l),
(880,-2,l)
);
}
);
width = 1034;
},
{
anchors = (
{
name = bottom;
pos = (524,0);
},
{
name = top;
pos = (524,600);
}
);
layerId = m002;
shapes = (
{
closed = 1;
nodes = (
(888,0,l),
(893,550,l),
(1014,592,l),
(1012,600,l),
(657,600,l),
(655,592,l),
(834,550,l),
(839,50,l),
(878,80,l),
(208,600,l),
(6,600,l),
(4,592,l),
(154,550,l),
(150,50,l),
(30,8,l),
(30,0,l),
(389,0,l),
(389,8,l),
(208,50,l),
(202,550,l),
(157,523,l),
(843,-13,l)
);
}
);
width = 1018;
},
{
anchors = (
{
name = bottom;
pos = (289,0);
},
{
name = top;
pos = (289,600);
}
);
layerId = m003;
shapes = (
{
closed = 1;
nodes = (
(466,0,l),
(468,555,l),
(578,592,l),
(576,600,l),
(301,600,l),
(299,592,l),
(409,555,l),
(417,80,l),
(438,81,l),
(191,600,l),
(12,600,l),
(10,592,l),
(120,555,l),
(114,45,l),
(4,8,l),
(6,0,l),
(281,0,l),
(283,8,l),
(173,45,l),
(168,527,l),
(145,524,l),
(404,-11,l)
);
}
);
width = 586;
},
{
anchors = (
{
name = bottom;
pos = (282,0);
},
{
name = top;
pos = (282,600);
}
);
layerId = "2C26E880-80A5-4D19-8A94-7D905A372841";
shapes = (
{
closed = 1;
nodes = (
(447,0,l),
(447,555,l),
(557,592,l),
(555,600,l),
(309,600,l),
(307,592,l),
(417,555,l),
(417,42,l),
(431,61,l),
(173,600,l),
(22,600,l),
(20,592,l),
(130,555,l),
(131,45,l),
(21,8,l),
(23,0,l),
(269,0,l),
(271,8,l),
(161,45,l),
(161,583,l),
(149,569,l),
(420,-2,l)
);
}
);
width = 577;
}
);
unicode = 78;
}
{
glyphname = P;
kernLeft = H;
kernRight = P;
layers = (
{
anchors = (
{
name = bottom;
pos = (431,0);
},
{
name = top;
pos = (431,600);
}
);
layerId = "0CCC0E2D-406A-4672-8E6C-854B1DF78A27";
shapes = (
{
closed = 1;
nodes = (
(42,0,l),
(406,0,l),
(408,8,l),
(217,52,l),
(217,255,l),
(518,256,ls),
(696,257,o),
(789,315,o),
(789,426,cs),
(789,540,o),
(693,600,o),
(508,600,cs),
(32,600,l),
(30,592,l),
(180,550,l),
(180,50,l),
(40,8,l)
);
},
{
closed = 1;
nodes = (
(217,573,l),
(508,573,ls),
(668,573,o),
(751,520,o),
(751,418,cs),
(751,331,o),
(675,285,o),
(528,285,cs),
(217,285,l)
);
}
);
width = 829;
},
{
anchors = (
{
name = bottom;
pos = (449,0);
},
{
name = top;
pos = (449,600);
}
);
layerId = m002;
shapes = (
{
closed = 1;
nodes = (
(26,0,l),
(447,0,l),
(449,8,l),
(260,52,l),
(260,252,l),
(520,252,ls),
(720,252,o),
(846,299,o),
(846,433,cs),
(846,557,o),
(721,600,o),
(526,600,cs),
(16,600,l),
(14,592,l),
(164,550,l),
(164,50,l),
(24,8,l)
);
},
{
closed = 1;
nodes = (
(260,553,l),
(480,553,ls),
(609,553,o),
(743,548,o),
(743,415,cs),
(743,313,o),
(639,287,o),
(500,293,cs),
(260,304,l)
);
}
);
width = 870;
},
{
anchors = (
{
name = bottom;
pos = (261,0);
},
{
name = top;
pos = (261,600);
}
);
background = {
shapes = (
{
closed = 1;
nodes = (
(12,0,l),
(298,0,l),
(300,8,l),
(190,45,l),
(190,555,l),
(300,592,l),
(298,600,l),
(12,600,l),
(10,592,l),
(120,555,l),
(120,45,l),
(10,8,l)
);
}
);
};
layerId = m003;
shapes = (
{
closed = 1;
nodes = (
(10,0,l),
(335,0,l),
(337,8,l),
(197,47,l),
(197,256,l),
(273,256,ls),
(384,256,o),
(470,333,o),
(470,431,cs),
(470,524,o),
(391,600,o),
(296,600,cs),
(10,600,l),
(8,592,l),
(118,555,l),
(118,45,l),
(8,8,l)
);
},
{
closed = 1;
nodes = (
(197,562,l),
(261,566,ls),
(327,570,o),
(385,510,o),
(385,416,cs),
(385,341,o),
(326,285,o),
(259,291,cs),
(197,297,l)
);
}
);
width = 498;
},
{
anchors = (
{
name = bottom;
pos = (248,0);
},
{
name = top;
pos = (248,600);
}
);
layerId = "2C26E880-80A5-4D19-8A94-7D905A372841";
shapes = (
{
closed = 1;
nodes = (
(22,0,l),
(304,0,l),
(306,8,l),
(165,47,l),
(165,257,l),
(259,258,ls),
(357,259,o),
(427,329,o),
(427,426,cs),
(427,523,o),
(358,600,o),
(270,600,cs),
(22,600,l),
(20,592,l),
(130,555,l),
(130,45,l),
(20,8,l)
);
},
{
closed = 1;
nodes = (
(165,571,l),
(258,575,ls),
(333,578,o),
(392,504,o),
(392,418,cs),
(392,341,o),
(342,283,o),
(268,285,cs),
(165,288,l)
);
}
);
width = 467;
}
);
metricLeft = H;
unicode = 80;
}
{
glyphname = Q;
kernLeft = O;
kernRight = O;
layers = (
{
associatedMasterId = "0CCC0E2D-406A-4672-8E6C-854B1DF78A27";
layerId = "37ACA70E-5713-4BE5-ACC0-CFF013DC889D";
name = "Mar 28 18, 15:13";
shapes = (
{
closed = 1;
nodes = (
(744,-20,o),
(928,115,o),
(928,307,cs),
(928,493,o),
(752,625,o),
(504,625,cs),
(232,625,o),
(40,490,o),
(40,299,cs),
(40,112,o),
(224,-20,o),
(485,-20,cs)
);
},
{
closed = 1;
nodes = (
(289,25,o),
(120,145,o),
(120,325,cs),
(120,474,o),
(261,580,o),
(461,580,cs),
(688,580,o),
(848,457,o),
(848,282,cs),
(848,131,o),
(716,25,o),
(529,25,cs)
);
},
{
closed = 1;
nodes = (
(524,202,l),
(484,195,l),
(701,-158,l),
(786,-145,l)
);
}
);
width = 968;
},
{
associatedMasterId = "0CCC0E2D-406A-4672-8E6C-854B1DF78A27";
layerId = "047676F6-4566-4037-A2C9-BC1BAA19EAE7";
name = "Jun 9 18, 17:17";
shapes = (
{
closed = 1;
nodes = (
(764,-20,o),
(948,115,o),
(948,307,cs),
(948,493,o),
(772,625,o),
(524,625,cs),
(252,625,o),
(60,490,o),
(60,299,cs),
(60,112,o),
(244,-20,o),
(505,-20,cs)
);
},
{
closed = 1;
nodes = (
(309,25,o),
(140,145,o),
(140,325,cs),
(140,474,o),
(281,580,o),
(481,580,cs),
(708,580,o),
(868,457,o),
(868,282,cs),
(868,131,o),
(736,25,o),
(549,25,cs)
);
},
{
closed = 1;
nodes = (
(463,172,l),
(829,-163,l),
(860,-137,l),
(531,229,l)
);
}
);
width = 1008;
},
{
associatedMasterId = "0CCC0E2D-406A-4672-8E6C-854B1DF78A27";
layerId = "1AC5EE05-1C4B-4860-A927-501E2FFF3073";
name = "Mar 28 18, 15:13";
shapes = (
{
closed = 1;
nodes = (
(744,-20,o),
(928,115,o),
(928,307,cs),
(928,493,o),
(752,625,o),
(504,625,cs),
(232,625,o),
(40,490,o),
(40,299,cs),
(40,112,o),
(224,-20,o),
(485,-20,cs)
);
},
{
closed = 1;
nodes = (
(289,25,o),
(120,145,o),
(120,325,cs),
(120,474,o),
(261,580,o),
(461,580,cs),
(688,580,o),
(848,457,o),
(848,282,cs),
(848,131,o),
(716,25,o),
(529,25,cs)
);
},
{
closed = 1;
nodes = (
(524,202,l),
(484,195,l),
(701,-158,l),
(786,-145,l)
);
}
);
width = 968;
},
{
associatedMasterId = "0CCC0E2D-406A-4672-8E6C-854B1DF78A27";
layerId = "65FE9274-A69F-4605-954C-5F86FE1E3C13";
name = "Jun 9 18, 17:17";
shapes = (
{
closed = 1;
nodes = (
(764,-20,o),
(948,115,o),
(948,307,cs),
(948,493,o),
(772,625,o),
(524,625,cs),
(252,625,o),
(60,490,o),
(60,299,cs),
(60,112,o),
(244,-20,o),
(505,-20,cs)
);
},
{
closed = 1;
nodes = (
(309,25,o),
(140,145,o),
(140,325,cs),
(140,474,o),
(281,580,o),
(481,580,cs),
(708,580,o),
(868,457,o),
(868,282,cs),
(868,131,o),
(736,25,o),
(549,25,cs)
);
},
{
closed = 1;
nodes = (
(463,172,l),
(829,-163,l),
(860,-137,l),
(531,229,l)
);
}
);
width = 1008;
},
{
associatedMasterId = "0CCC0E2D-406A-4672-8E6C-854B1DF78A27";
layerId = "81BB2019-E811-4380-A657-0C2A9AD5BC57";
name = "8 Dec 21, 16:04";
shapes = (
{
closed = 1;
nodes = (
(40,112,o),
(224,-20,o),
(485,-20,cs),
(538,-20,o),
(589,-14,o),
(635,-3,c),
(809,-163,l),
(840,-137,l),
(702,17,l),
(841,70,o),
(928,175,o),
(928,307,cs),
(928,493,o),
(752,625,o),
(504,625,cs),
(232,625,o),
(40,490,o),
(40,299,cs)
);
},
{
closed = 1;
nodes = (
(120,474,o),
(244,580,o),
(461,580,cs),
(689,580,o),
(848,457,o),
(848,282,cs),
(848,172,o),
(788,85,o),
(675,47,c),
(511,229,l),
(443,172,l),
(599,29,l),
(577,27,o),
(554,25,o),
(529,25,cs),
(289,25,o),
(120,145,o),
(120,325,cs)
);
}
);
width = 968;
},
{
anchors = (
{
name = bottom;
pos = (484,0);
},
{
name = top;
pos = (484,600);
}
);
associatedMasterId = "0CCC0E2D-406A-4672-8E6C-854B1DF78A27";
layerId = "E5726C61-028B-4038-916C-25E98D51B7DA";
name = "16 Dec 21, 11:59";
shapes = (
{
closed = 1;
nodes = (
(568,204,o),
(661,128,o),
(852,-117,c),
(878,-98,l),
(733,140,o),
(623,255,o),
(445,255,cs),
(318,255,o),
(228,225,o),
(133,140,c),
(153,94,l),
(241,173,o),
(312,204,o),
(410,204,cs)
);
},
{
ref = O;
}
);
width = 968;
},
{
anchors = (
{
name = bottom;
pos = (484,0);
},
{
name = center;
pos = (461,300);
},
{
name = ogonek;
pos = (848,10);
},
{
name = top;
pos = (484,600);
},
{
name = topleft;
pos = (-3,600);
},
{
name = topright;
pos = (925,600);
}
);
layerId = "0CCC0E2D-406A-4672-8E6C-854B1DF78A27";
name = Extended;
shapes = (
{
closed = 1;
nodes = (
(579,205,o),
(696,119,o),
(696,2,cs),
(696,-65,o),
(664,-140,o),
(602,-202,c),
(612,-212,l),
(686,-158,o),
(732,-72,o),
(732,12,cs),
(732,143,o),
(606,240,o),
(435,240,cs),
(323,240,o),
(212,198,o),
(133,125,c),
(153,100,l),
(231,169,o),
(327,205,o),
(425,205,cs)
);
},
{
closed = 1;
nodes = (
(718,-20,o),
(882,107,o),
(882,297,cs),
(882,494,o),
(718,625,o),
(471,625,cs),
(212,625,o),
(40,499,o),
(40,309,cs),
(40,112,o),
(213,-20,o),
(472,-20,cs)
);
},
{
closed = 1;
nodes = (
(240,15,o),
(82,135,o),
(82,315,cs),
(82,480,o),
(236,590,o),
(468,590,cs),
(691,590,o),
(840,471,o),
(840,292,cs),
(840,126,o),
(694,15,o),
(476,15,cs)
);
}
);
width = 927;
},
{
associatedMasterId = m002;
layerId = "EF7AD874-CB00-4657-8BCE-EC0829BD2124";
name = "Mar 28 18, 15:13";
shapes = (
{
closed = 1;
nodes = (
(744,-20,o),
(928,115,o),
(928,307,cs),
(928,493,o),
(752,625,o),
(504,625,cs),
(232,625,o),
(40,490,o),
(40,299,cs),
(40,112,o),
(224,-20,o),
(485,-20,cs)
);
},
{
closed = 1;
nodes = (
(289,25,o),
(120,145,o),
(120,325,cs),
(120,474,o),
(261,580,o),
(461,580,cs),
(688,580,o),
(848,457,o),
(848,282,cs),
(848,131,o),
(716,25,o),
(529,25,cs)
);
},
{
closed = 1;
nodes = (
(524,202,l),
(484,195,l),
(701,-158,l),
(786,-145,l)
);
}
);
width = 968;
},
{
associatedMasterId = m002;
layerId = "D331C81A-C313-4B7E-94FC-1031B7FE440B";
name = "Jun 9 18, 17:17";
shapes = (
{
closed = 1;
nodes = (
(764,-20,o),
(948,115,o),
(948,307,cs),
(948,493,o),
(772,625,o),
(524,625,cs),
(252,625,o),
(60,490,o),
(60,299,cs),
(60,112,o),
(244,-20,o),
(505,-20,cs)
);
},
{
closed = 1;
nodes = (
(309,25,o),
(140,145,o),
(140,325,cs),
(140,474,o),
(281,580,o),
(481,580,cs),
(708,580,o),
(868,457,o),
(868,282,cs),
(868,131,o),
(736,25,o),
(549,25,cs)
);
},
{
closed = 1;
nodes = (
(463,172,l),
(829,-163,l),
(860,-137,l),
(531,229,l)
);
}
);
width = 1008;
},
{
associatedMasterId = m002;
layerId = "D2B8386D-5C59-4216-A6B2-B5023A7B5E33";
name = "Mar 28 18, 15:13";
shapes = (
{
closed = 1;
nodes = (
(744,-20,o),
(928,115,o),
(928,307,cs),
(928,493,o),
(752,625,o),
(504,625,cs),
(232,625,o),
(40,490,o),
(40,299,cs),
(40,112,o),
(224,-20,o),
(485,-20,cs)
);
},
{
closed = 1;
nodes = (
(289,25,o),
(120,145,o),
(120,325,cs),
(120,474,o),
(261,580,o),
(461,580,cs),
(688,580,o),
(848,457,o),
(848,282,cs),
(848,131,o),
(716,25,o),
(529,25,cs)
);
},
{
closed = 1;
nodes = (
(524,202,l),
(484,195,l),
(701,-158,l),
(786,-145,l)
);
}
);
width = 968;
},
{
associatedMasterId = m002;
layerId = "D5F57928-6493-40A8-AA00-5C744BC4C704";
name = "Jun 9 18, 17:17";
shapes = (
{
closed = 1;
nodes = (
(764,-20,o),
(948,115,o),
(948,307,cs),
(948,493,o),
(772,625,o),
(524,625,cs),
(252,625,o),
(60,490,o),
(60,299,cs),
(60,112,o),
(244,-20,o),
(505,-20,cs)
);
},
{
closed = 1;
nodes = (
(309,25,o),
(140,145,o),
(140,325,cs),
(140,474,o),
(281,580,o),
(481,580,cs),
(708,580,o),
(868,457,o),
(868,282,cs),
(868,131,o),
(736,25,o),
(549,25,cs)
);
},
{
closed = 1;
nodes = (
(463,172,l),
(829,-163,l),
(860,-137,l),
(531,229,l)
);
}
);
width = 1008;
},
{
associatedMasterId = m002;
layerId = "712C5D4C-FAE0-4027-98FA-5F35D423EB8D";
name = "8 Dec 21, 16:04";
shapes = (
{
closed = 1;
nodes = (
(40,112,o),
(224,-20,o),
(485,-20,cs),
(538,-20,o),
(589,-14,o),
(635,-3,c),
(809,-163,l),
(840,-137,l),
(702,17,l),
(841,70,o),
(928,175,o),
(928,307,cs),
(928,493,o),
(752,625,o),
(504,625,cs),
(232,625,o),
(40,490,o),
(40,299,cs)
);
},
{
closed = 1;
nodes = (
(120,474,o),
(244,580,o),
(461,580,cs),
(689,580,o),
(848,457,o),
(848,282,cs),
(848,172,o),
(788,85,o),
(675,47,c),
(511,229,l),
(443,172,l),
(599,29,l),
(577,27,o),
(554,25,o),
(529,25,cs),
(289,25,o),
(120,145,o),
(120,325,cs)
);
}
);
width = 968;
},
{
anchors = (
{
name = bottom;
pos = (484,0);
},
{
name = top;
pos = (484,600);
}
);
associatedMasterId = m002;
layerId = "2985386E-6012-4042-9DD9-61390526335B";
name = "16 Dec 21, 11:59";
shapes = (
{
closed = 1;
nodes = (
(568,204,o),
(661,128,o),
(852,-117,c),
(878,-98,l),
(733,140,o),
(623,255,o),
(445,255,cs),
(318,255,o),
(228,225,o),
(133,140,c),
(153,94,l),
(241,173,o),
(312,204,o),
(410,204,cs)
);
},
{
ref = O;
}
);
width = 968;
},
{
anchors = (
{
name = bottom;
pos = (484,0);
},
{
name = center;
pos = (481,300);
},
{
name = ogonek;
pos = (868,10);
},
{
name = top;
pos = (484,600);
},
{
name = topleft;
pos = (17,600);
},
{
name = topright;
pos = (945,600);
}
);
layerId = m002;
name = Extended;
shapes = (
{
closed = 1;
nodes = (
(563,204,o),
(679,100,o),
(679,-44,cs),
(679,-118,o),
(648,-182,o),
(602,-202,c),
(612,-212,l),
(703,-183,o),
(768,-89,o),
(768,12,cs),
(768,156,o),
(638,256,o),
(451,256,cs),
(330,256,o),
(221,214,o),
(133,133,c),
(153,91,l),
(240,171,o),
(312,204,o),
(402,204,cs)
);
},
{
closed = 1;
nodes = (
(733,-20,o),
(938,127,o),
(938,313,cs),
(938,506,o),
(773,625,o),
(507,625,cs),
(240,625,o),
(24,478,o),
(24,293,cs),
(24,99,o),
(196,-20,o),
(476,-20,cs)
);
},
{
closed = 1;
nodes = (
(277,31,o),
(126,147,o),
(126,331,cs),
(126,483,o),
(257,574,o),
(472,574,cs),
(697,574,o),
(836,462,o),
(836,276,cs),
(836,117,o),
(723,31,o),
(512,31,cs)
);
}
);
width = 967;
},
{
associatedMasterId = m003;
layerId = "087D7EDF-81EE-4F90-B614-AADC1B080DA8";
name = "Mar 28 18, 15:13";
shapes = (
{
closed = 1;
nodes = (
(744,-20,o),
(928,115,o),
(928,307,cs),
(928,493,o),
(752,625,o),
(504,625,cs),
(232,625,o),
(40,490,o),
(40,299,cs),
(40,112,o),
(224,-20,o),
(485,-20,cs)
);
},
{
closed = 1;
nodes = (
(289,25,o),
(120,145,o),
(120,325,cs),
(120,474,o),
(261,580,o),
(461,580,cs),
(688,580,o),
(848,457,o),
(848,282,cs),
(848,131,o),
(716,25,o),
(529,25,cs)
);
},
{
closed = 1;
nodes = (
(524,202,l),
(484,195,l),
(701,-158,l),
(786,-145,l)
);
}
);
width = 968;
},
{
associatedMasterId = m003;
layerId = "BD8D46B9-C8F6-4BFC-9EB8-17F28EFFEDAC";
name = "Jun 9 18, 17:17";
shapes = (
{
closed = 1;
nodes = (
(764,-20,o),
(948,115,o),
(948,307,cs),
(948,493,o),
(772,625,o),
(524,625,cs),
(252,625,o),
(60,490,o),
(60,299,cs),
(60,112,o),
(244,-20,o),
(505,-20,cs)
);
},
{
closed = 1;
nodes = (
(309,25,o),
(140,145,o),
(140,325,cs),
(140,474,o),
(281,580,o),
(481,580,cs),
(708,580,o),
(868,457,o),
(868,282,cs),
(868,131,o),
(736,25,o),
(549,25,cs)
);
},
{
closed = 1;
nodes = (
(463,172,l),
(829,-163,l),
(860,-137,l),
(531,229,l)
);
}
);
width = 1008;
},
{
associatedMasterId = m003;
layerId = "88BC52F5-D8A2-4BA7-BBA2-AEB146113B1C";
name = "Mar 28 18, 15:13";
shapes = (
{
closed = 1;
nodes = (
(744,-20,o),
(928,115,o),
(928,307,cs),
(928,493,o),
(752,625,o),
(504,625,cs),
(232,625,o),
(40,490,o),
(40,299,cs),
(40,112,o),
(224,-20,o),
(485,-20,cs)
);
},
{
closed = 1;
nodes = (
(289,25,o),
(120,145,o),
(120,325,cs),
(120,474,o),
(261,580,o),
(461,580,cs),
(688,580,o),
(848,457,o),
(848,282,cs),
(848,131,o),
(716,25,o),
(529,25,cs)
);
},
{
closed = 1;
nodes = (
(524,202,l),
(484,195,l),
(701,-158,l),
(786,-145,l)
);
}
);
width = 968;
},
{
associatedMasterId = m003;
layerId = "35D681DB-F282-474F-9116-DEBCD07AC371";
name = "Jun 9 18, 17:17";
shapes = (
{
closed = 1;
nodes = (
(764,-20,o),
(948,115,o),
(948,307,cs),
(948,493,o),
(772,625,o),
(524,625,cs),
(252,625,o),
(60,490,o),
(60,299,cs),
(60,112,o),
(244,-20,o),
(505,-20,cs)
);
},
{
closed = 1;
nodes = (
(309,25,o),
(140,145,o),
(140,325,cs),
(140,474,o),
(281,580,o),
(481,580,cs),
(708,580,o),
(868,457,o),
(868,282,cs),
(868,131,o),
(736,25,o),
(549,25,cs)
);
},
{
closed = 1;
nodes = (
(463,172,l),
(829,-163,l),
(860,-137,l),
(531,229,l)
);
}
);
width = 1008;
},
{
associatedMasterId = m003;
layerId = "2C38DAAC-416F-4C23-BC84-75CF1D76DBAB";
name = "8 Dec 21, 16:04";
shapes = (
{
closed = 1;
nodes = (
(40,112,o),
(224,-20,o),
(485,-20,cs),
(538,-20,o),
(589,-14,o),
(635,-3,c),
(809,-163,l),
(840,-137,l),
(702,17,l),
(841,70,o),
(928,175,o),
(928,307,cs),
(928,493,o),
(752,625,o),
(504,625,cs),
(232,625,o),
(40,490,o),
(40,299,cs)
);
},
{
closed = 1;
nodes = (
(120,474,o),
(244,580,o),
(461,580,cs),
(689,580,o),
(848,457,o),
(848,282,cs),
(848,172,o),
(788,85,o),
(675,47,c),
(511,229,l),
(443,172,l),
(599,29,l),
(577,27,o),
(554,25,o),
(529,25,cs),
(289,25,o),
(120,145,o),
(120,325,cs)
);
}
);
width = 968;
},
{
anchors = (
{
name = bottom;
pos = (484,0);
},
{
name = top;
pos = (484,600);
}
);
associatedMasterId = m003;
layerId = "5AAA4791-3826-4F9E-8AA3-A9508B7137EF";
name = "16 Dec 21, 11:59";
shapes = (
{
closed = 1;
nodes = (
(568,204,o),
(661,128,o),
(852,-117,c),
(878,-98,l),
(733,140,o),
(623,255,o),
(445,255,cs),
(318,255,o),
(228,225,o),
(133,140,c),
(153,94,l),
(241,173,o),
(312,204,o),
(410,204,cs)
);
},
{
ref = O;
}
);
width = 968;
},
{
anchors = (
{
name = bottom;
pos = (263,0);
},
{
name = center;
pos = (261,300);
},
{
name = ogonek;
pos = (343,10);
},
{
name = top;
pos = (263,600);
},
{
name = topleft;
pos = (7,600);
},
{
name = topright;
pos = (420,600);
}
);
layerId = m003;
name = Extended;
shapes = (
{
closed = 1;
nodes = (
(245,203,o),
(280,145,o),
(280,48,cs),
(280,-53,o),
(242,-130,o),
(162,-193,c),
(171,-202,l),
(283,-149,o),
(352,-37,o),
(352,92,cs),
(352,197,o),
(309,252,o),
(227,252,cs),
(159,252,o),
(111,215,o),
(98,161,c),
(111,143,l),
(130,187,o),
(155,203,o),
(186,203,cs)
);
},
{
closed = 1;
nodes = (
(406,-20,o),
(496,115,o),
(496,309,cs),
(496,492,o),
(415,620,o),
(272,620,cs),
(116,620,o),
(26,488,o),
(26,298,cs),
(26,111,o),
(107,-20,o),
(250,-20,cs)
);
},
{
closed = 1;
nodes = (
(167,26,o),
(106,152,o),
(106,327,cs),
(106,471,o),
(163,574,o),
(250,574,cs),
(355,574,o),
(416,452,o),
(416,281,cs),
(416,132,o),
(358,26,o),
(273,26,cs)
);
}
);
width = 529;
},
{
anchors = (
{
name = bottom;
pos = (264,0);
},
{
name = top;
pos = (264,600);
}
);
associatedMasterId = m003;
layerId = "1D6F2FB5-EE0D-492B-AB5A-8E0B0C038722";
name = "12 Mar 22, 12:54";
shapes = (
{
closed = 1;
nodes = (
(258,204,o),
(315,125,o),
(315,32,cs),
(315,-44,o),
(275,-112,o),
(182,-192,c),
(192,-202,l),
(309,-137,o),
(380,-34,o),
(380,72,cs),
(380,176,o),
(315,250,o),
(225,250,cs),
(163,250,o),
(113,216,o),
(93,160,c),
(106,144,l),
(129,185,o),
(157,204,o),
(190,204,cs)
);
},
{
ref = O;
}
);
width = 523;
},
{
anchors = (
{
name = bottom;
pos = (269,0);
},
{
name = center;
pos = (250,300);
},
{
name = ogonek;
pos = (332,10);
},
{
name = top;
pos = (269,600);
},
{
name = topleft;
pos = (-4,600);
},
{
name = topright;
pos = (409,600);
}
);
layerId = "2C26E880-80A5-4D19-8A94-7D905A372841";
name = Extended;
shapes = (
{
closed = 1;
nodes = (
(263,207,o),
(306,149,o),
(306,70,cs),
(306,-7,o),
(266,-80,o),
(162,-189,c),
(176,-204,l),
(286,-104,o),
(341,-6,o),
(341,92,cs),
(341,182,o),
(292,241,o),
(217,241,cs),
(165,241,o),
(118,213,o),
(74,155,c),
(87,150,l),
(128,187,o),
(169,207,o),
(205,207,cs)
);
},
{
closed = 1;
nodes = (
(382,-20,o),
(455,94,o),
(455,298,cs),
(455,505,o),
(384,620,o),
(255,620,cs),
(120,620,o),
(45,507,o),
(45,303,cs),
(45,95,o),
(118,-20,o),
(250,-20,cs)
);
},
{
closed = 1;
nodes = (
(145,11,o),
(79,121,o),
(79,316,cs),
(79,491,o),
(142,588,o),
(250,588,cs),
(358,588,o),
(421,481,o),
(421,287,cs),
(421,110,o),
(361,11,o),
(257,11,cs)
);
}
);
width = 500;
}
);
metricLeft = O;
metricRight = O;
unicode = 81;
}
{
glyphname = R;
kernLeft = H;
kernRight = R;
layers = (
{
associatedMasterId = "0CCC0E2D-406A-4672-8E6C-854B1DF78A27";
layerId = "F3BBF246-7A5F-47B7-9EE5-022757B0F994";
name = "Extended Mar 31 18, 15:49";
shapes = (
{
closed = 1;
nodes = (
(190,550,l),
(190,50,l),
(40,3,l),
(42,0,l),
(414,0,l),
(416,4,l),
(266,50,l),
(265,550,l),
(265,600,l),
(42,600,l),
(40,597,l)
);
},
{
closed = 1;
nodes = (
(551,267,l),
(909,-68,l),
(958,-58,l),
(657,277,l)
);
},
{
closed = 1;
nodes = (
(620,560,ls),
(761,560,o),
(876,538,o),
(876,416,cs),
(876,323,o),
(768,293,o),
(640,293,c),
(226,292,l),
(226,253,l),
(650,254,ls),
(842,255,o),
(956,305,o),
(956,430,cs),
(956,551,o),
(842,600,o),
(650,600,cs),
(211,600,l),
(211,560,l)
);
}
);
width = 996;
},
{
anchors = (
{
name = bottom;
pos = (480,0);
},
{
name = top;
pos = (460,600);
}
);
layerId = "0CCC0E2D-406A-4672-8E6C-854B1DF78A27";
shapes = (
{
closed = 1;
nodes = (
(568,276,ls),
(766,277,o),
(839,337,o),
(839,436,cs),
(839,544,o),
(743,600,o),
(558,600,cs),
(32,600,l),
(30,592,l),
(180,550,l),
(180,50,l),
(40,8,l),
(42,0,l),
(406,0,l),
(408,8,l),
(217,52,l),
(217,275,l)
);
},
{
closed = 1;
nodes = (
(217,573,l),
(558,573,ls),
(718,573,o),
(801,523,o),
(801,428,cs),
(801,361,o),
(760,305,o),
(578,305,cs),
(217,305,l)
);
},
{
closed = 1;
nodes = (
(538,285,l),
(679,50,l),
(539,8,l),
(541,0,l),
(878,0,l),
(880,8,l),
(720,50,l),
(579,285,l)
);
}
);
width = 895;
},
{
associatedMasterId = "0CCC0E2D-406A-4672-8E6C-854B1DF78A27";
layerId = "54BA13CA-5A69-4900-A9F3-01EF8D357D37";
name = "Extended Mar 31 18, 15:49";
shapes = (
{
closed = 1;
nodes = (
(190,550,l),
(190,50,l),
(40,3,l),
(42,0,l),
(414,0,l),
(416,4,l),
(266,50,l),
(265,550,l),
(265,600,l),
(42,600,l),
(40,597,l)
);
},
{
closed = 1;
nodes = (
(551,267,l),
(909,-68,l),
(958,-58,l),
(657,277,l)
);
},
{
closed = 1;
nodes = (
(620,560,ls),
(761,560,o),
(876,538,o),
(876,416,cs),
(876,323,o),
(768,293,o),
(640,293,c),
(226,292,l),
(226,253,l),
(650,254,ls),
(842,255,o),
(956,305,o),
(956,430,cs),
(956,551,o),
(842,600,o),
(650,600,cs),
(211,600,l),
(211,560,l)
);
}
);
width = 996;
},
{
associatedMasterId = m002;
layerId = "27EFD73D-BDE1-42BE-89E3-4AFFE868A76E";
name = "Extended Mar 31 18, 15:49";
shapes = (
{
closed = 1;
nodes = (
(190,550,l),
(190,50,l),
(40,3,l),
(42,0,l),
(414,0,l),
(416,4,l),
(266,50,l),
(265,550,l),
(265,600,l),
(42,600,l),
(40,597,l)
);
},
{
closed = 1;
nodes = (
(551,267,l),
(909,-68,l),
(958,-58,l),
(657,277,l)
);
},
{
closed = 1;
nodes = (
(620,560,ls),
(761,560,o),
(876,538,o),
(876,416,cs),
(876,323,o),
(768,293,o),
(640,293,c),
(226,292,l),
(226,253,l),
(650,254,ls),
(842,255,o),
(956,305,o),
(956,430,cs),
(956,551,o),
(842,600,o),
(650,600,cs),
(211,600,l),
(211,560,l)
);
}
);
width = 996;
},
{
anchors = (
{
name = bottom;
pos = (502,0);
},
{
name = top;
pos = (482,600);
}
);
layerId = m002;
shapes = (
{
closed = 1;
nodes = (
(650,262,ls),
(783,263,o),
(911,326,o),
(911,436,cs),
(911,563,o),
(788,600,o),
(592,600,cs),
(16,600,l),
(14,592,l),
(164,550,l),
(164,50,l),
(40,4,l),
(42,0,l),
(418,0,l),
(420,5,l),
(262,49,l),
(262,258,l)
);
},
{
closed = 1;
nodes = (
(260,553,l),
(545,553,ls),
(672,553,o),
(809,555,o),
(809,419,cs),
(809,328,o),
(701,305,o),
(565,308,cs),
(260,314,l)
);
},
{
closed = 1;
nodes = (
(532,285,l),
(685,50,l),
(545,8,l),
(547,0,l),
(958,0,l),
(960,8,l),
(800,50,l),
(643,285,l)
);
}
);
width = 985;
},
{
associatedMasterId = m002;
layerId = "F9024B12-2AC0-43D4-B65C-CC7BB46488A1";
name = "Extended Mar 31 18, 15:49";
shapes = (
{
closed = 1;
nodes = (
(190,550,l),
(190,50,l),
(40,3,l),
(42,0,l),
(414,0,l),
(416,4,l),
(266,50,l),
(265,550,l),
(265,600,l),
(42,600,l),
(40,597,l)
);
},
{
closed = 1;
nodes = (
(551,267,l),
(909,-68,l),
(958,-58,l),
(657,277,l)
);
},
{
closed = 1;
nodes = (
(620,560,ls),
(761,560,o),
(876,538,o),
(876,416,cs),
(876,323,o),
(768,293,o),
(640,293,c),
(226,292,l),
(226,253,l),
(650,254,ls),
(842,255,o),
(956,305,o),
(956,430,cs),
(956,551,o),
(842,600,o),
(650,600,cs),
(211,600,l),
(211,560,l)
);
}
);
width = 996;
},
{
associatedMasterId = m003;
layerId = "3559C86F-44CC-4889-900D-CF986CC5DF0D";
name = "Extended Mar 31 18, 15:49";
shapes = (
{
closed = 1;
nodes = (
(190,550,l),
(190,50,l),
(40,3,l),
(42,0,l),
(414,0,l),
(416,4,l),
(266,50,l),
(265,550,l),
(265,600,l),
(42,600,l),
(40,597,l)
);
},
{
closed = 1;
nodes = (
(551,267,l),
(909,-68,l),
(958,-58,l),
(657,277,l)
);
},
{
closed = 1;
nodes = (
(620,560,ls),
(761,560,o),
(876,538,o),
(876,416,cs),
(876,323,o),
(768,293,o),
(640,293,c),
(226,292,l),
(226,253,l),
(650,254,ls),
(842,255,o),
(956,305,o),
(956,430,cs),
(956,551,o),
(842,600,o),
(650,600,cs),
(211,600,l),
(211,560,l)
);
}
);
width = 996;
},
{
associatedMasterId = m003;
layerId = "BF99D1A1-E071-43FA-A6EA-6FF931E373C1";
name = "Extended Mar 31 18, 15:49";
shapes = (
{
closed = 1;
nodes = (
(190,550,l),
(190,50,l),
(40,3,l),
(42,0,l),
(414,0,l),
(416,4,l),
(266,50,l),
(265,550,l),
(265,600,l),
(42,600,l),
(40,597,l)
);
},
{
closed = 1;
nodes = (
(551,267,l),
(909,-68,l),
(958,-58,l),
(657,277,l)
);
},
{
closed = 1;
nodes = (
(620,560,ls),
(761,560,o),
(876,538,o),
(876,416,cs),
(876,323,o),
(768,293,o),
(640,293,c),
(226,292,l),
(226,253,l),
(650,254,ls),
(842,255,o),
(956,305,o),
(956,430,cs),
(956,551,o),
(842,600,o),
(650,600,cs),
(211,600,l),
(211,560,l)
);
}
);
width = 996;
},
{
anchors = (
{
name = bottom;
pos = (268,0);
},
{
name = top;
pos = (253,600);
}
);
layerId = "2C26E880-80A5-4D19-8A94-7D905A372841";
shapes = (
{
closed = 1;
nodes = (
(282,264,ls),
(344,265,o),
(437,322,o),
(437,431,cs),
(437,528,o),
(368,600,o),
(280,600,cs),
(22,600,l),
(20,592,l),
(130,555,l),
(130,45,l),
(20,8,l),
(22,0,l),
(243,0,l),
(245,8,l),
(165,47,l),
(165,263,l)
);
},
{
closed = 1;
nodes = (
(165,571,l),
(268,575,ls),
(343,578,o),
(402,509,o),
(402,423,cs),
(402,336,o),
(332,289,o),
(272,291,cs),
(165,294,l)
);
},
{
closed = 1;
nodes = (
(254,275,l),
(350,45,l),
(280,8,l),
(282,0,l),
(494,0,l),
(496,8,l),
(386,45,l),
(285,288,l)
);
}
);
width = 506;
},
{
anchors = (
{
name = bottom;
pos = (495,0);
},
{
name = top;
pos = (475,600);
}
);
associatedMasterId = m002;
layerId = "ED6913F8-8F03-4859-93E4-41BA79BDBB58";
name = "2 Sep 22, 10:24";
shapes = (
{
closed = 1;
nodes = (
(621,267,ls),
(770,268,o),
(886,327,o),
(886,436,cs),
(886,556,o),
(772,600,o),
(580,600,cs),
(22,600,l),
(20,592,l),
(170,550,l),
(170,50,l),
(40,5,l),
(42,0,l),
(414,0,l),
(416,6,l),
(246,50,l),
(246,264,l)
);
},
{
closed = 1;
nodes = (
(245,560,l),
(550,560,ls),
(691,560,o),
(806,543,o),
(806,422,cs),
(806,329,o),
(698,305,o),
(570,307,cs),
(245,311,l)
);
},
{
closed = 1;
nodes = (
(588,285,l),
(779,50,l),
(599,8,l),
(601,0,l),
(991,0,l),
(993,8,l),
(873,50,l),
(679,285,l)
);
}
);
width = 983;
},
{
anchors = (
{
name = bottom;
pos = (480,0);
},
{
name = top;
pos = (460,600);
}
);
associatedMasterId = "0CCC0E2D-406A-4672-8E6C-854B1DF78A27";
layerId = "F6575CD0-A92F-4CA7-95ED-F31B3C1828F3";
name = "2 Sep 22, 10:46";
shapes = (
{
closed = 1;
nodes = (
(568,276,ls),
(746,277,o),
(839,332,o),
(839,436,cs),
(839,544,o),
(743,600,o),
(558,600,cs),
(32,600,l),
(30,592,l),
(180,550,l),
(180,50,l),
(40,8,l),
(42,0,l),
(406,0,l),
(408,8,l),
(217,52,l),
(217,275,l)
);
},
{
closed = 1;
nodes = (
(217,573,l),
(558,573,ls),
(718,573,o),
(801,523,o),
(801,428,cs),
(801,347,o),
(725,305,o),
(578,305,cs),
(217,305,l)
);
},
{
closed = 1;
nodes = (
(578,285,l),
(769,50,l),
(589,8,l),
(591,0,l),
(933,0,l),
(935,8,l),
(815,50,l),
(621,285,l)
);
}
);
width = 935;
},
{
anchors = (
{
name = bottom;
pos = (295,0);
},
{
name = top;
pos = (275,600);
}
);
associatedMasterId = m003;
layerId = "1BB60639-2837-4BFA-BA68-446B2636C0B4";
name = "2 Sep 22, 10:49";
shapes = (
{
closed = 1;
nodes = (
(290,256,ls),
(408,257,o),
(481,332,o),
(481,430,cs),
(481,524,o),
(395,600,o),
(300,600,cs),
(12,600,l),
(10,592,l),
(120,555,l),
(120,45,l),
(10,8,l),
(12,0,l),
(268,0,l),
(270,8,l),
(190,45,l),
(190,255,l)
);
},
{
closed = 1;
nodes = (
(190,565,l),
(270,565,ls),
(337,565,o),
(406,494,o),
(406,416,cs),
(406,341,o),
(349,284,o),
(260,290,cs),
(190,295,l)
);
},
{
closed = 1;
nodes = (
(296,275,l),
(408,45,l),
(318,8,l),
(320,0,l),
(577,0,l),
(579,8,l),
(479,45,l),
(364,275,l)
);
}
);
width = 578;
},
{
anchors = (
{
name = bottom;
pos = (268,0);
},
{
name = top;
pos = (253,600);
}
);
associatedMasterId = "2C26E880-80A5-4D19-8A94-7D905A372841";
layerId = "D807F695-3177-44B2-8D22-846A0B8A0B01";
name = "2 Sep 22, 10:52";
shapes = (
{
closed = 1;
nodes = (
(269,264,ls),
(367,265,o),
(437,334,o),
(437,431,cs),
(437,528,o),
(368,600,o),
(280,600,cs),
(22,600,l),
(20,592,l),
(130,555,l),
(130,45,l),
(20,8,l),
(22,0,l),
(243,0,l),
(245,8,l),
(165,47,l),
(165,263,l)
);
},
{
closed = 1;
nodes = (
(165,571,l),
(268,575,ls),
(343,578,o),
(402,509,o),
(402,423,cs),
(402,346,o),
(352,289,o),
(278,291,cs),
(165,294,l)
);
},
{
closed = 1;
nodes = (
(297,275,l),
(400,45,l),
(310,8,l),
(312,0,l),
(525,0,l),
(527,8,l),
(437,45,l),
(332,275,l)
);
}
);
width = 537;
},
{
anchors = (
{
name = bottom;
pos = (302,0);
},
{
name = top;
pos = (281,600);
}
);
associatedMasterId = m003;
layerId = "BB9C9991-12A9-4CC6-8577-8B37327123D7";
name = "25 Sep 22, 14:02";
shapes = (
{
closed = 1;
nodes = (
(286,254,ls),
(414,255,o),
(493,325,o),
(493,430,cs),
(493,523,o),
(402,600,o),
(306,600,cs),
(10,600,l),
(8,592,l),
(118,555,l),
(118,45,l),
(8,8,l),
(10,0,l),
(262,0,l),
(264,8,l),
(197,45,l),
(197,253,l)
);
},
{
closed = 1;
nodes = (
(197,564,l),
(271,563,ls),
(336,562,o),
(408,490,o),
(408,414,cs),
(408,341,o),
(349,282,o),
(254,290,cs),
(197,295,l)
);
},
{
closed = 1;
nodes = (
(285,275,l),
(376,45,l),
(298,8,l),
(300,0,l),
(530,0,l),
(532,8,l),
(454,45,l),
(361,272,l)
);
}
);
width = 529;
},
{
anchors = (
{
name = bottom;
pos = (272,0);
},
{
name = top;
pos = (261,600);
}
);
associatedMasterId = m003;
layerId = "3CD9F8BB-F10D-48DF-9B76-2604E1BC258F";
name = "25 Sep 22, 14:10";
shapes = (
{
closed = 1;
nodes = (
(286,254,ls),
(414,255,o),
(493,325,o),
(493,430,cs),
(493,523,o),
(402,600,o),
(306,600,cs),
(10,600,l),
(8,592,l),
(118,555,l),
(118,45,l),
(8,8,l),
(10,0,l),
(262,0,l),
(264,8,l),
(197,45,l),
(197,253,l)
);
},
{
closed = 1;
nodes = (
(197,564,l),
(271,563,ls),
(336,562,o),
(408,490,o),
(408,414,cs),
(408,341,o),
(349,282,o),
(254,290,cs),
(197,295,l)
);
},
{
closed = 1;
nodes = (
(271,263,l),
(310,178,ls),
(354,82,o),
(410,5,o),
(505,-43,c),
(507,-35,l),
(356,244,l)
);
}
);
width = 539;
},
{
anchors = (
{
name = bottom;
pos = (272,0);
},
{
name = top;
pos = (261,600);
}
);
layerId = m003;
name = Condensed;
shapes = (
{
closed = 1;
nodes = (
(286,254,ls),
(414,255,o),
(493,325,o),
(493,430,cs),
(493,523,o),
(402,600,o),
(306,600,cs),
(10,600,l),
(8,592,l),
(118,555,l),
(118,45,l),
(8,8,l),
(10,0,l),
(272,0,l),
(274,8,l),
(197,45,l),
(197,253,l)
);
},
{
closed = 1;
nodes = (
(197,564,l),
(271,563,ls),
(336,562,o),
(408,490,o),
(408,414,cs),
(408,341,o),
(349,282,o),
(254,290,cs),
(197,295,l)
);
},
{
closed = 1;
nodes = (
(249,275,l),
(360,45,l),
(300,8,l),
(302,0,l),
(520,0,l),
(522,8,l),
(444,45,l),
(331,272,l)
);
}
);
width = 529;
}
);
metricLeft = H;
unicode = 82;
}
{
glyphname = U;
kernLeft = U;
kernRight = U;
layers = (
{
anchors = (
{
name = bottom;
pos = (526,0);
},
{
name = ogonek;
pos = (691,10);
},
{
name = top;
pos = (526,600);
},
{
name = topright;
pos = (1064,600);
}
);
layerId = "0CCC0E2D-406A-4672-8E6C-854B1DF78A27";
shapes = (
{
closed = 1;
nodes = (
(160,83,o),
(284,-20,o),
(523,-20,cs),
(754,-20,o),
(874,96,o),
(874,261,cs),
(874,550,l),
(1024,592,l),
(1022,600,l),
(689,600,l),
(687,592,l),
(837,550,l),
(837,256,ls),
(837,118,o),
(731,15,o),
(527,15,cs),
(310,15,o),
(197,108,o),
(197,285,cs),
(197,550,l),
(347,592,l),
(345,600,l),
(12,600,l),
(10,592,l),
(160,550,l),
(160,279,ls)
);
}
);
width = 1039;
},
{
anchors = (
{
name = bottom;
pos = (546,0);
},
{
name = ogonek;
pos = (711,10);
},
{
name = top;
pos = (546,600);
},
{
name = topright;
pos = (1084,600);
}
);
layerId = m002;
shapes = (
{
closed = 1;
nodes = (
(144,79,o),
(277,-20,o),
(516,-20,cs),
(757,-20,o),
(906,81,o),
(911,247,cs),
(921,550,l),
(1071,592,l),
(1069,600,l),
(702,600,l),
(700,592,l),
(850,550,l),
(852,220,ls),
(853,106,o),
(739,31,o),
(566,31,cs),
(365,31,o),
(240,131,o),
(240,291,cs),
(240,550,l),
(390,592,l),
(388,600,l),
(-4,600,l),
(-6,592,l),
(144,550,l),
(144,255,ls)
);
}
);
width = 1071;
},
{
anchors = (
{
name = bottom;
pos = (279,0);
},
{
name = ogonek;
pos = (355,10);
},
{
name = top;
pos = (279,600);
},
{
name = topright;
pos = (597,600);
}
);
layerId = m003;
shapes = (
{
closed = 1;
nodes = (
(90,42,o),
(150,-20,o),
(275,-20,cs),
(406,-20,o),
(472,48,o),
(474,186,cs),
(478,556,l),
(570,592,l),
(568,600,l),
(319,600,l),
(317,592,l),
(414,556,l),
(418,156,ls),
(419,72,o),
(379,29,o),
(302,29,cs),
(212,29,o),
(168,87,o),
(168,205,cs),
(168,556,l),
(265,592,l),
(263,600,l),
(-1,600,l),
(-3,592,l),
(90,556,l),
(90,174,ls)
);
}
);
width = 568;
},
{
anchors = (
{
name = bottom;
pos = (254,0);
},
{
name = ogonek;
pos = (330,10);
},
{
name = top;
pos = (254,600);
},
{
name = topright;
pos = (572,600);
}
);
layerId = "2C26E880-80A5-4D19-8A94-7D905A372841";
shapes = (
{
closed = 1;
nodes = (
(91,49,o),
(151,-20,o),
(260,-20,cs),
(375,-20,o),
(438,53,o),
(436,202,cs),
(432,555,l),
(512,592,l),
(510,600,l),
(289,600,l),
(287,592,l),
(397,555,l),
(402,195,ls),
(404,74,o),
(353,10,o),
(270,10,cs),
(177,10,o),
(126,74,o),
(126,197,cs),
(127,555,l),
(237,592,l),
(235,600,l),
(12,600,l),
(10,592,l),
(90,555,l),
(91,190,ls)
);
}
);
width = 522;
}
);
unicode = 85;
}
{
glyphname = V;
kernLeft = V;
kernRight = V;
layers = (
{
anchors = (
{
name = bottom;
pos = (443,0);
},
{
name = top;
pos = (439,600);
}
);
layerId = "0CCC0E2D-406A-4672-8E6C-854B1DF78A27";
shapes = (
{
closed = 1;
nodes = (
(80,550,l),
(414,0,l),
(441,0,l),
(765,550,l),
(895,592,l),
(893,600,l),
(554,600,l),
(552,592,l),
(727,550,l),
(425,32,l),
(435,33,l),
(123,550,l),
(298,592,l),
(296,600,l),
(-48,600,l),
(-50,592,l)
);
}
);
width = 855;
},
{
anchors = (
{
name = bottom;
pos = (484,0);
},
{
name = top;
pos = (480,600);
}
);
layerId = m002;
shapes = (
{
closed = 1;
nodes = (
(72,550,l),
(441,0,l),
(503,0,l),
(832,550,l),
(962,592,l),
(960,600,l),
(588,600,l),
(586,592,l),
(761,550,l),
(474,35,l),
(528,33,l),
(198,550,l),
(373,592,l),
(371,600,l),
(-64,600,l),
(-66,592,l)
);
}
);
width = 906;
},
{
anchors = (
{
name = bottom;
pos = (280,0);
},
{
name = top;
pos = (275,600);
}
);
layerId = m003;
shapes = (
{
closed = 1;
nodes = (
(53,555,l),
(238,0,l),
(294,0,l),
(466,555,l),
(546,592,l),
(544,600,l),
(300,600,l),
(298,592,l),
(408,555,l),
(258,35,l),
(301,41,l),
(142,555,l),
(252,592,l),
(250,600,l),
(-26,600,l),
(-28,592,l)
);
}
);
width = 524;
},
{
anchors = (
{
name = bottom;
pos = (238,0);
},
{
name = top;
pos = (238,600);
}
);
layerId = "2C26E880-80A5-4D19-8A94-7D905A372841";
shapes = (
{
closed = 1;
nodes = (
(59,555,l),
(223,0,l),
(251,0,l),
(414,555,l),
(494,592,l),
(492,600,l),
(273,600,l),
(271,592,l),
(381,555,l),
(229,32,l),
(247,41,l),
(97,555,l),
(207,592,l),
(205,600,l),
(-15,600,l),
(-17,592,l)
);
}
);
width = 483;
}
);
unicode = 86;
}
{
glyphname = W;
kernLeft = W;
kernRight = W;
layers = (
{
anchors = (
{
name = bottom;
pos = (555,0);
},
{
name = top;
pos = (555,600);
}
);
layerId = "0CCC0E2D-406A-4672-8E6C-854B1DF78A27";
shapes = (
{
closed = 1;
nodes = (
(106,547,l),
(341,0,l),
(364,0,l),
(582,585,l),
(563,574,l),
(793,0,l),
(816,0,l),
(1030,547,l),
(1192,592,l),
(1190,600,l),
(786,600,l),
(784,592,l),
(989,547,l),
(803,50,l),
(809,52,l),
(591,600,l),
(540,579,l),
(349,56,l),
(359,44,l),
(148,547,l),
(362,592,l),
(359,600,l),
(-58,600,l),
(-60,592,l)
);
}
);
width = 1142;
},
{
anchors = (
{
name = bottom;
pos = (590,0);
},
{
name = top;
pos = (590,600);
}
);
layerId = m002;
shapes = (
{
closed = 1;
nodes = (
(90,547,l),
(330,0,l),
(384,0,l),
(617,585,l),
(567,574,l),
(833,0,l),
(889,0,l),
(1080,547,l),
(1242,592,l),
(1240,600,l),
(807,600,l),
(805,592,l),
(1010,547,l),
(865,66,l),
(905,69,l),
(650,600,l),
(569,579,l),
(362,56,l),
(402,60,l),
(206,547,l),
(420,592,l),
(417,600,l),
(-74,600,l),
(-76,592,l)
);
}
);
width = 1176;
},
{
anchors = (
{
name = bottom;
pos = (339,0);
},
{
name = top;
pos = (339,600);
}
);
layerId = m003;
shapes = (
{
closed = 1;
nodes = (
(45,555,l),
(193,0,l),
(251,0,l),
(352,585,l),
(316,574,l),
(442,0,l),
(509,0,l),
(617,555,l),
(709,592,l),
(707,600,l),
(467,600,l),
(465,592,l),
(563,555,l),
(478,22,l),
(500,35,l),
(386,600,l),
(308,579,l),
(220,60,l),
(241,60,l),
(129,555,l),
(227,592,l),
(224,600,l),
(-46,600,l),
(-48,592,l)
);
}
);
width = 666;
},
{
anchors = (
{
name = bottom;
pos = (298,0);
},
{
name = top;
pos = (298,600);
}
);
layerId = "2C26E880-80A5-4D19-8A94-7D905A372841";
shapes = (
{
closed = 1;
nodes = (
(40,555,l),
(163,0,l),
(193,0,l),
(311,585,l),
(291,574,l),
(417,0,l),
(454,0,l),
(562,555,l),
(642,592,l),
(640,600,l),
(419,600,l),
(417,592,l),
(527,555,l),
(428,11,l),
(445,22,l),
(320,600,l),
(277,579,l),
(172,42,l),
(185,31,l),
(76,555,l),
(186,592,l),
(183,600,l),
(-38,600,l),
(-40,592,l)
);
}
);
width = 612;
}
);
unicode = 87;
}
{
glyphname = X;
kernLeft = X;
kernRight = X;
layers = (
{
anchors = (
{
name = bottom;
pos = (493,0);
},
{
name = top;
pos = (493,600);
}
);
background = {
shapes = (
{
closed = 1;
nodes = (
(-51,0,l),
(314,0,l),
(316,8,l),
(166,50,l),
(475,277,l),
(769,50,l),
(619,8,l),
(621,0,l),
(1037,0,l),
(1039,8,l),
(889,50,l),
(537,322,l),
(849,550,l),
(999,592,l),
(997,600,l),
(632,600,l),
(630,592,l),
(780,550,l),
(503,348,l),
(241,550,l),
(391,592,l),
(388,600,l),
(-27,600,l),
(-29,592,l),
(121,550,l),
(442,302,l),
(97,50,l),
(-53,8,l)
);
}
);
};
layerId = "0CCC0E2D-406A-4672-8E6C-854B1DF78A27";
shapes = (
{
closed = 1;
nodes = (
(503,300,l),
(817,550,l),
(957,592,l),
(955,600,l),
(607,600,l),
(605,592,l),
(765,550,l),
(482,322,l)
);
},
{
closed = 1;
nodes = (
(475,318,l),
(130,50,l),
(-10,8,l),
(-8,0,l),
(354,0,l),
(356,8,l),
(186,50,l),
(498,294,l)
);
},
{
closed = 1;
nodes = (
(211,550,l),
(371,592,l),
(368,600,l),
(26,600,l),
(24,592,l),
(154,550,l),
(799,50,l),
(629,8,l),
(631,0,l),
(984,0,l),
(986,8,l),
(856,50,l)
);
}
);
width = 976;
},
{
anchors = (
{
name = bottom;
pos = (513,0);
},
{
name = top;
pos = (513,600);
}
);
background = {
shapes = (
{
closed = 1;
nodes = (
(-38,0,l),
(327,0,l),
(329,8,l),
(179,50,l),
(488,277,l),
(782,50,l),
(632,8,l),
(634,0,l),
(1050,0,l),
(1052,8,l),
(902,50,l),
(550,322,l),
(862,550,l),
(1012,592,l),
(1010,600,l),
(645,600,l),
(643,592,l),
(793,550,l),
(516,348,l),
(254,550,l),
(404,592,l),
(401,600,l),
(-14,600,l),
(-16,592,l),
(134,550,l),
(455,302,l),
(110,50,l),
(-40,8,l)
);
}
);
};
layerId = m002;
shapes = (
{
closed = 1;
nodes = (
(546,312,l),
(887,550,l),
(1011,592,l),
(1009,600,l),
(619,600,l),
(617,592,l),
(777,550,l),
(498,334,l)
);
},
{
closed = 1;
nodes = (
(458,319,l),
(98,50,l),
(-26,8,l),
(-24,0,l),
(382,0,l),
(384,8,l),
(214,50,l),
(508,295,l)
);
},
{
closed = 1;
nodes = (
(269,550,l),
(429,592,l),
(426,600,l),
(-6,600,l),
(-8,592,l),
(122,550,l),
(780,50,l),
(610,8,l),
(612,0,l),
(1055,0,l),
(1057,8,l),
(927,50,l)
);
}
);
width = 1031;
},
{
anchors = (
{
name = bottom;
pos = (283,0);
},
{
name = top;
pos = (296,600);
}
);
layerId = m003;
shapes = (
{
closed = 1;
nodes = (
(292,268,l),
(467,555,l),
(544,592,l),
(542,600,l),
(309,600,l),
(307,592,l),
(407,555,l),
(265,302,l)
);
},
{
closed = 1;
nodes = (
(267,334,l),
(86,45,l),
(8,8,l),
(10,0,l),
(243,0,l),
(245,8,l),
(145,45,l),
(294,300,l)
);
},
{
closed = 1;
nodes = (
(182,555,l),
(282,592,l),
(279,600,l),
(19,600,l),
(17,592,l),
(97,555,l),
(396,45,l),
(296,8,l),
(298,0,l),
(561,0,l),
(563,8,l),
(483,45,l)
);
}
);
width = 571;
},
{
anchors = (
{
name = bottom;
pos = (276,0);
},
{
name = top;
pos = (274,600);
}
);
layerId = "2C26E880-80A5-4D19-8A94-7D905A372841";
shapes = (
{
closed = 1;
nodes = (
(290,297,l),
(426,555,l),
(515,592,l),
(513,600,l),
(291,600,l),
(289,592,l),
(389,555,l),
(271,326,l)
);
},
{
closed = 1;
nodes = (
(259,320,l),
(110,45,l),
(20,8,l),
(22,0,l),
(244,0,l),
(246,8,l),
(146,45,l),
(278,291,l)
);
},
{
closed = 1;
nodes = (
(156,555,l),
(256,592,l),
(253,600,l),
(38,600,l),
(36,592,l),
(116,555,l),
(409,45,l),
(309,8,l),
(311,0,l),
(527,0,l),
(529,8,l),
(449,45,l)
);
}
);
width = 549;
}
);
unicode = 88;
}
{
glyphname = Y;
kernLeft = Y;
kernRight = Y;
layers = (
{
anchors = (
{
name = bottom;
pos = (464,0);
},
{
name = top;
pos = (484,600);
},
{
name = topleft;
pos = (-8,600);
}
);
layerId = "0CCC0E2D-406A-4672-8E6C-854B1DF78A27";
shapes = (
{
closed = 1;
nodes = (
(120,550,l),
(453,250,l),
(453,50,l),
(298,6,l),
(300,0,l),
(638,0,l),
(640,6,l),
(490,50,l),
(490,251,l),
(808,550,l),
(928,592,l),
(926,600,l),
(586,600,l),
(584,592,l),
(764,550,l),
(462,264,l),
(478,267,l),
(166,550,l),
(346,592,l),
(344,600,l),
(2,600,l),
(0,592,l)
);
}
);
width = 948;
},
{
anchors = (
{
name = bottom;
pos = (507,0);
},
{
name = top;
pos = (527,600);
},
{
name = topleft;
pos = (35,600);
}
);
layerId = m002;
shapes = (
{
closed = 1;
nodes = (
(104,550,l),
(448,250,l),
(448,50,l),
(293,6,l),
(295,0,l),
(692,0,l),
(694,6,l),
(544,50,l),
(544,251,l),
(862,550,l),
(982,592,l),
(980,600,l),
(599,600,l),
(597,592,l),
(777,550,l),
(502,264,l),
(558,274,l),
(261,550,l),
(441,592,l),
(439,600,l),
(-14,600,l),
(-16,592,l)
);
}
);
width = 986;
},
{
anchors = (
{
name = bottom;
pos = (263,0);
},
{
name = top;
pos = (266,600);
},
{
name = topleft;
pos = (-69,600);
}
);
layerId = m003;
shapes = (
{
closed = 1;
nodes = (
(67,555,l),
(219,250,l),
(219,45,l),
(109,8,l),
(111,0,l),
(406,0,l),
(408,8,l),
(298,45,l),
(298,251,l),
(436,555,l),
(516,592,l),
(514,600,l),
(280,600,l),
(278,592,l),
(378,555,l),
(256,250,l),
(291,249,l),
(149,555,l),
(249,592,l),
(247,600,l),
(-11,600,l),
(-13,592,l)
);
}
);
width = 529;
},
{
anchors = (
{
name = bottom;
pos = (232,0);
},
{
name = top;
pos = (235,600);
},
{
name = topleft;
pos = (-100,600);
}
);
layerId = "2C26E880-80A5-4D19-8A94-7D905A372841";
shapes = (
{
closed = 1;
nodes = (
(80,555,l),
(224,250,l),
(224,45,l),
(114,8,l),
(116,0,l),
(367,0,l),
(369,8,l),
(259,45,l),
(259,251,l),
(396,555,l),
(476,592,l),
(474,600,l),
(264,600,l),
(262,592,l),
(362,555,l),
(234,262,l),
(251,265,l),
(120,555,l),
(220,592,l),
(218,600,l),
(2,600,l),
(0,592,l)
);
}
);
width = 476;
}
);
unicode = 89;
}
{
glyphname = bracketleft;
layers = (
{
layerId = "0CCC0E2D-406A-4672-8E6C-854B1DF78A27";
shapes = (
{
closed = 1;
nodes = (
(328,-117,l),
(330,-109,l),
(140,-62,l),
(140,645,l),
(330,692,l),
(328,700,l),
(110,700,l),
(110,-117,l)
);
}
);
width = 380;
},
{
layerId = m002;
shapes = (
{
closed = 1;
nodes = (
(350,-117,l),
(352,-109,l),
(178,-62,l),
(178,645,l),
(352,692,l),
(350,700,l),
(94,700,l),
(94,-117,l)
);
}
);
width = 386;
},
{
layerId = m003;
shapes = (
{
closed = 1;
nodes = (
(302,-107,l),
(304,-99,l),
(166,-58,l),
(166,641,l),
(304,682,l),
(302,690,l),
(98,690,l),
(98,-107,l)
);
}
);
width = 342;
},
{
layerId = "2C26E880-80A5-4D19-8A94-7D905A372841";
shapes = (
{
closed = 1;
nodes = (
(284,-107,l),
(286,-99,l),
(137,-58,l),
(137,641,l),
(286,682,l),
(284,690,l),
(109,690,l),
(109,-107,l)
);
}
);
width = 335;
}
);
unicode = 91;
}
{
glyphname = underscore;
layers = (
{
layerId = "0CCC0E2D-406A-4672-8E6C-854B1DF78A27";
shapes = (
{
closed = 1;
nodes = (
(50,0,l),
(969,0,l),
(969,33,l),
(50,33,l)
);
}
);
width = 1019;
},
{
layerId = m002;
shapes = (
{
closed = 1;
nodes = (
(34,0,l),
(953,0,l),
(953,52,l),
(34,52,l)
);
}
);
width = 987;
},
{
layerId = m003;
shapes = (
{
closed = 1;
nodes = (
(38,0,l),
(561,0,l),
(561,43,l),
(38,43,l)
);
}
);
width = 599;
},
{
layerId = "2C26E880-80A5-4D19-8A94-7D905A372841";
shapes = (
{
closed = 1;
nodes = (
(49,0,l),
(572,0,l),
(572,29,l),
(49,29,l)
);
}
);
width = 622;
}
);
unicode = 95;
}
{
glyphname = c;
kernLeft = o;
kernRight = c;
layers = (
{
associatedMasterId = "0CCC0E2D-406A-4672-8E6C-854B1DF78A27";
layerId = "8B00297B-E234-4E90-9934-A60BC44EF575";
name = "Extended Mar 20 18, 21:46";
shapes = (
{
closed = 1;
nodes = (
(45,46,o),
(184,-20,o),
(328,-20,cs),
(457,-20,o),
(555,33,o),
(638,118,c),
(623,126,l),
(549,56,o),
(457,33,o),
(365,33,cs),
(241,33,o),
(110,80,o),
(110,214,cs),
(110,319,o),
(200,392,o),
(328,392,cs),
(431,392,o),
(507,376,o),
(564,339,c),
(572,210,l),
(578,208,l),
(638,301,l),
(575,381,o),
(468,429,o),
(349,429,cs),
(167,429,o),
(45,324,o),
(45,188,cs)
);
}
);
width = 693;
},
{
anchors = (
{
name = bottom;
pos = (346,0);
},
{
name = top;
pos = (326,410);
}
);
layerId = "0CCC0E2D-406A-4672-8E6C-854B1DF78A27";
shapes = (
{
closed = 1;
nodes = (
(592,95,l),
(517,42,o),
(426,15,o),
(333,15,cs),
(182,15,o),
(78,92,o),
(78,205,cs),
(78,322,o),
(179,396,o),
(335,396,cs),
(398,396,o),
(462,385,o),
(518,368,c),
(538,248,l),
(546,246,l),
(581,385,l),
(524,403,o),
(432,421,o),
(346,421,cs),
(161,421,o),
(39,329,o),
(39,190,cs),
(39,64,o),
(152,-21,o),
(309,-21,cs),
(423,-21,o),
(533,29,o),
(603,84,c)
);
}
);
width = 652;
},
{
associatedMasterId = "0CCC0E2D-406A-4672-8E6C-854B1DF78A27";
layerId = "479A52C6-86C9-4DC5-AAC0-4B8766D458B2";
name = "Mar 20 18, 23:42";
shapes = (
{
closed = 1;
nodes = (
(45,46,o),
(184,-20,o),
(328,-20,cs),
(457,-20,o),
(555,33,o),
(638,118,c),
(623,126,l),
(549,56,o),
(457,33,o),
(365,33,cs),
(241,33,o),
(110,80,o),
(110,214,cs),
(110,311,o),
(200,392,o),
(328,392,cs),
(431,392,o),
(499,373,o),
(556,336,c),
(564,207,l),
(570,205,l),
(630,298,l),
(567,378,o),
(468,429,o),
(349,429,cs),
(167,429,o),
(45,316,o),
(45,188,cs)
);
}
);
width = 693;
},
{
associatedMasterId = "0CCC0E2D-406A-4672-8E6C-854B1DF78A27";
layerId = "8EDA96E6-9BFB-49F2-9BD6-63CA0E1DC036";
name = "Extended Mar 20 18, 21:46";
shapes = (
{
closed = 1;
nodes = (
(45,46,o),
(184,-20,o),
(328,-20,cs),
(457,-20,o),
(555,33,o),
(638,118,c),
(623,126,l),
(549,56,o),
(457,33,o),
(365,33,cs),
(241,33,o),
(110,80,o),
(110,214,cs),
(110,319,o),
(200,392,o),
(328,392,cs),
(431,392,o),
(507,376,o),
(564,339,c),
(572,210,l),
(578,208,l),
(638,301,l),
(575,381,o),
(468,429,o),
(349,429,cs),
(167,429,o),
(45,324,o),
(45,188,cs)
);
}
);
width = 693;
},
{
associatedMasterId = "0CCC0E2D-406A-4672-8E6C-854B1DF78A27";
layerId = "77F61E27-ECBC-4D1B-9E52-1C251CFB6976";
name = "Mar 20 18, 23:42";
shapes = (
{
closed = 1;
nodes = (
(45,46,o),
(184,-20,o),
(328,-20,cs),
(457,-20,o),
(555,33,o),
(638,118,c),
(623,126,l),
(549,56,o),
(457,33,o),
(365,33,cs),
(241,33,o),
(110,80,o),
(110,214,cs),
(110,311,o),
(200,392,o),
(328,392,cs),
(431,392,o),
(499,373,o),
(556,336,c),
(564,207,l),
(570,205,l),
(630,298,l),
(567,378,o),
(468,429,o),
(349,429,cs),
(167,429,o),
(45,316,o),
(45,188,cs)
);
}
);
width = 693;
},
{
associatedMasterId = "0CCC0E2D-406A-4672-8E6C-854B1DF78A27";
layerId = "C823A7B7-AF29-4986-A661-9B9EDB34FD5A";
name = "Mar 16 18, 15:18";
shapes = (
{
closed = 1;
nodes = (
(15,85,o),
(53,-10,o),
(139,-10,cs),
(213,-10,o),
(250,54,o),
(259,135,c),
(248,139,l),
(238,74,o),
(205,26,o),
(160,26,cs),
(67,26,o),
(67,149,o),
(67,225,cs),
(67,319,o),
(106,374,o),
(142,374,cs),
(162,374,o),
(202,372,o),
(241,335,c),
(256,341,l),
(236,371,o),
(203,410,o),
(146,410,cs),
(64,410,o),
(15,326,o),
(15,185,cs)
);
},
{
closed = 1;
nodes = (
(207,267,l),
(211,265,l),
(256,341,l),
(215,357,l)
);
}
);
width = 280;
},
{
associatedMasterId = m002;
layerId = "6D02EACE-9ACE-42D6-BECB-DA1A84E11D9F";
name = "Extended Mar 20 18, 21:46";
shapes = (
{
closed = 1;
nodes = (
(45,46,o),
(184,-20,o),
(328,-20,cs),
(457,-20,o),
(555,33,o),
(638,118,c),
(623,126,l),
(549,56,o),
(457,33,o),
(365,33,cs),
(241,33,o),
(110,80,o),
(110,214,cs),
(110,319,o),
(200,392,o),
(328,392,cs),
(431,392,o),
(507,376,o),
(564,339,c),
(572,210,l),
(578,208,l),
(638,301,l),
(575,381,o),
(468,429,o),
(349,429,cs),
(167,429,o),
(45,324,o),
(45,188,cs)
);
}
);
width = 693;
},
{
anchors = (
{
name = bottom;
pos = (359,0);
},
{
name = top;
pos = (339,410);
}
);
layerId = m002;
shapes = (
{
closed = 1;
nodes = (
(603,114,l),
(531,65,o),
(456,43,o),
(361,43,cs),
(207,43,o),
(113,109,o),
(113,219,cs),
(113,331,o),
(198,391,o),
(356,391,cs),
(417,391,o),
(475,382,o),
(531,364,c),
(551,253,l),
(559,251,l),
(609,407,l),
(527,425,o),
(443,435,o),
(379,435,cs),
(179,435,o),
(26,327,o),
(26,187,cs),
(26,65,o),
(145,-20,o),
(316,-20,cs),
(427,-20,o),
(514,15,o),
(616,100,c)
);
}
);
width = 652;
},
{
associatedMasterId = m002;
layerId = "9E84C52F-206B-4226-8C98-5D173747CF76";
name = "Mar 20 18, 23:42";
shapes = (
{
closed = 1;
nodes = (
(45,46,o),
(184,-20,o),
(328,-20,cs),
(457,-20,o),
(555,33,o),
(638,118,c),
(623,126,l),
(549,56,o),
(457,33,o),
(365,33,cs),
(241,33,o),
(110,80,o),
(110,214,cs),
(110,311,o),
(200,392,o),
(328,392,cs),
(431,392,o),
(499,373,o),
(556,336,c),
(564,207,l),
(570,205,l),
(630,298,l),
(567,378,o),
(468,429,o),
(349,429,cs),
(167,429,o),
(45,316,o),
(45,188,cs)
);
}
);
width = 693;
},
{
associatedMasterId = m002;
layerId = "F501D6BE-619A-4E5B-BB8F-7ACBAB26F432";
name = "Extended Mar 20 18, 21:46";
shapes = (
{
closed = 1;
nodes = (
(45,46,o),
(184,-20,o),
(328,-20,cs),
(457,-20,o),
(555,33,o),
(638,118,c),
(623,126,l),
(549,56,o),
(457,33,o),
(365,33,cs),
(241,33,o),
(110,80,o),
(110,214,cs),
(110,319,o),
(200,392,o),
(328,392,cs),
(431,392,o),
(507,376,o),
(564,339,c),
(572,210,l),
(578,208,l),
(638,301,l),
(575,381,o),
(468,429,o),
(349,429,cs),
(167,429,o),
(45,324,o),
(45,188,cs)
);
}
);
width = 693;
},
{
associatedMasterId = m002;
layerId = "876690AD-B86E-4255-BFC2-A64D5615ADE4";
name = "Mar 20 18, 23:42";
shapes = (
{
closed = 1;
nodes = (
(45,46,o),
(184,-20,o),
(328,-20,cs),
(457,-20,o),
(555,33,o),
(638,118,c),
(623,126,l),
(549,56,o),
(457,33,o),
(365,33,cs),
(241,33,o),
(110,80,o),
(110,214,cs),
(110,311,o),
(200,392,o),
(328,392,cs),
(431,392,o),
(499,373,o),
(556,336,c),
(564,207,l),
(570,205,l),
(630,298,l),
(567,378,o),
(468,429,o),
(349,429,cs),
(167,429,o),
(45,316,o),
(45,188,cs)
);
}
);
width = 693;
},
{
associatedMasterId = m002;
layerId = "EBB0EE40-C0E3-43E3-A25C-11EEF5D4FDFF";
name = "Mar 16 18, 15:18";
shapes = (
{
closed = 1;
nodes = (
(15,85,o),
(53,-10,o),
(139,-10,cs),
(213,-10,o),
(250,54,o),
(259,135,c),
(248,139,l),
(238,74,o),
(205,26,o),
(160,26,cs),
(67,26,o),
(67,149,o),
(67,225,cs),
(67,319,o),
(106,374,o),
(142,374,cs),
(162,374,o),
(202,372,o),
(241,335,c),
(256,341,l),
(236,371,o),
(203,410,o),
(146,410,cs),
(64,410,o),
(15,326,o),
(15,185,cs)
);
},
{
closed = 1;
nodes = (
(207,267,l),
(211,265,l),
(256,341,l),
(215,357,l)
);
}
);
width = 280;
},
{
associatedMasterId = m003;
layerId = "579CF9F3-5E11-480D-B4FE-4E251C030AF0";
name = "Extended Mar 20 18, 21:46";
shapes = (
{
closed = 1;
nodes = (
(45,46,o),
(184,-20,o),
(328,-20,cs),
(457,-20,o),
(555,33,o),
(638,118,c),
(623,126,l),
(549,56,o),
(457,33,o),
(365,33,cs),
(241,33,o),
(110,80,o),
(110,214,cs),
(110,319,o),
(200,392,o),
(328,392,cs),
(431,392,o),
(507,376,o),
(564,339,c),
(572,210,l),
(578,208,l),
(638,301,l),
(575,381,o),
(468,429,o),
(349,429,cs),
(167,429,o),
(45,324,o),
(45,188,cs)
);
}
);
width = 693;
},
{
anchors = (
{
name = bottom;
pos = (227,0);
},
{
name = top;
pos = (207,400);
}
);
layerId = m003;
shapes = (
{
closed = 1;
nodes = (
(344,84,l),
(307,44,o),
(271,27,o),
(236,27,cs),
(169,27,o),
(99,95,o),
(99,219,cs),
(99,332,o),
(144,388,o),
(208,388,cs),
(244,388,o),
(264,383,o),
(277,376,c),
(297,275,l),
(305,273,l),
(341,399,l),
(309,413,o),
(256,422,o),
(225,422,cs),
(109,422,o),
(29,331,o),
(29,200,cs),
(29,70,o),
(101,-20,o),
(205,-20,cs),
(265,-20,o),
(309,11,o),
(356,76,c)
);
}
);
width = 374;
},
{
associatedMasterId = m003;
layerId = "7395FBDB-B192-47ED-A556-822B47325A3A";
name = "Mar 20 18, 23:42";
shapes = (
{
closed = 1;
nodes = (
(45,46,o),
(184,-20,o),
(328,-20,cs),
(457,-20,o),
(555,33,o),
(638,118,c),
(623,126,l),
(549,56,o),
(457,33,o),
(365,33,cs),
(241,33,o),
(110,80,o),
(110,214,cs),
(110,311,o),
(200,392,o),
(328,392,cs),
(431,392,o),
(499,373,o),
(556,336,c),
(564,207,l),
(570,205,l),
(630,298,l),
(567,378,o),
(468,429,o),
(349,429,cs),
(167,429,o),
(45,316,o),
(45,188,cs)
);
}
);
width = 693;
},
{
associatedMasterId = m003;
layerId = "18138CEA-202B-422A-91FA-961E227AA4C6";
name = "Extended Mar 20 18, 21:46";
shapes = (
{
closed = 1;
nodes = (
(45,46,o),
(184,-20,o),
(328,-20,cs),
(457,-20,o),
(555,33,o),
(638,118,c),
(623,126,l),
(549,56,o),
(457,33,o),
(365,33,cs),
(241,33,o),
(110,80,o),
(110,214,cs),
(110,319,o),
(200,392,o),
(328,392,cs),
(431,392,o),
(507,376,o),
(564,339,c),
(572,210,l),
(578,208,l),
(638,301,l),
(575,381,o),
(468,429,o),
(349,429,cs),
(167,429,o),
(45,324,o),
(45,188,cs)
);
}
);
width = 693;
},
{
associatedMasterId = m003;
layerId = "F6F9F9E9-D06A-4636-BBCD-6CEB77817526";
name = "Mar 20 18, 23:42";
shapes = (
{
closed = 1;
nodes = (
(45,46,o),
(184,-20,o),
(328,-20,cs),
(457,-20,o),
(555,33,o),
(638,118,c),
(623,126,l),
(549,56,o),
(457,33,o),
(365,33,cs),
(241,33,o),
(110,80,o),
(110,214,cs),
(110,311,o),
(200,392,o),
(328,392,cs),
(431,392,o),
(499,373,o),
(556,336,c),
(564,207,l),
(570,205,l),
(630,298,l),
(567,378,o),
(468,429,o),
(349,429,cs),
(167,429,o),
(45,316,o),
(45,188,cs)
);
}
);
width = 693;
},
{
associatedMasterId = m003;
layerId = "65EB53F8-34A1-4204-A568-ACB790342DF6";
name = "Mar 16 18, 15:18";
shapes = (
{
closed = 1;
nodes = (
(15,85,o),
(53,-10,o),
(139,-10,cs),
(213,-10,o),
(250,54,o),
(259,135,c),
(248,139,l),
(238,74,o),
(205,26,o),
(160,26,cs),
(67,26,o),
(67,149,o),
(67,225,cs),
(67,319,o),
(106,374,o),
(142,374,cs),
(162,374,o),
(202,372,o),
(241,335,c),
(256,341,l),
(236,371,o),
(203,410,o),
(146,410,cs),
(64,410,o),
(15,326,o),
(15,185,cs)
);
},
{
closed = 1;
nodes = (
(207,267,l),
(211,265,l),
(256,341,l),
(215,357,l)
);
}
);
width = 280;
},
{
anchors = (
{
name = bottom;
pos = (212,0);
},
{
name = top;
pos = (192,400);
}
);
layerId = "2C26E880-80A5-4D19-8A94-7D905A372841";
shapes = (
{
closed = 1;
nodes = (
(330,70,l),
(296,32,o),
(254,7,o),
(208,7,cs),
(130,7,o),
(71,86,o),
(69,202,cs),
(68,316,o),
(121,388,o),
(203,388,cs),
(228,388,o),
(249,384,o),
(262,375,c),
(282,270,l),
(290,268,l),
(315,393,l),
(285,405,o),
(258,412,o),
(210,412,cs),
(99,412,o),
(31,328,o),
(34,195,cs),
(37,64,o),
(100,-20,o),
(195,-20,cs),
(252,-20,o),
(305,10,o),
(342,62,c)
);
}
);
width = 369;
},
{
anchors = (
{
name = bottom;
pos = (359,0);
},
{
name = top;
pos = (339,410);
}
);
associatedMasterId = m002;
layerId = "543A73D5-CDEA-4F2B-9961-B49E22AAD5CA";
name = "24 Sep 22, 16:23";
shapes = (
{
closed = 1;
nodes = (
(603,114,l),
(533,66,o),
(456,43,o),
(361,43,cs),
(202,43,o),
(113,106,o),
(113,219,cs),
(113,329,o),
(197,391,o),
(336,391,cs),
(410,391,o),
(475,382,o),
(531,364,c),
(551,253,l),
(559,251,l),
(609,407,l),
(532,423,o),
(459,435,o),
(359,435,cs),
(177,435,o),
(26,325,o),
(26,187,cs),
(26,64,o),
(144,-20,o),
(316,-20,cs),
(427,-20,o),
(514,15,o),
(616,100,c)
);
}
);
width = 652;
}
);
metricLeft = o;
unicode = 99;
}
{
glyphname = d;
kernLeft = o;
kernRight = d;
layers = (
{
anchors = (
{
name = bar;
pos = (577,537);
},
{
name = bottom;
pos = (373,0);
},
{
name = center;
pos = (373,205);
},
{
name = top;
pos = (373,700);
},
{
name = topright;
pos = (712,700);
}
);
layerId = "0CCC0E2D-406A-4672-8E6C-854B1DF78A27";
shapes = (
{
closed = 1;
nodes = (
(39,67,o),
(150,-20,o),
(308,-20,cs),
(395,-20,o),
(491,8,o),
(567,65,c),
(567,-13,l),
(745,63,l),
(743,71,l),
(606,61,l),
(606,711,l),
(416,640,l),
(420,632,l),
(567,640,l),
(567,368,l),
(506,403,o),
(433,421,o),
(351,421,cs),
(167,421,o),
(39,326,o),
(39,191,cs)
);
},
{
closed = 1;
nodes = (
(567,100,l),
(512,46,o),
(413,11,o),
(323,11,cs),
(182,11,o),
(78,92,o),
(78,203,cs),
(78,314,o),
(184,392,o),
(337,392,cs),
(424,392,o),
(512,369,o),
(567,330,c)
);
}
);
width = 734;
},
{
anchors = (
{
name = bar;
pos = (587,537);
},
{
name = bottom;
pos = (386,0);
},
{
name = center;
pos = (386,205);
},
{
name = top;
pos = (386,700);
},
{
name = topright;
pos = (725,700);
}
);
layerId = m002;
shapes = (
{
closed = 1;
nodes = (
(26,68,o),
(136,-20,o),
(282,-20,cs),
(379,-20,o),
(486,18,o),
(563,79,c),
(563,-13,l),
(786,63,l),
(784,71,l),
(647,61,l),
(647,725,l),
(410,640,l),
(414,632,l),
(561,640,l),
(561,389,l),
(509,417,o),
(440,435,o),
(379,435,cs),
(179,435,o),
(26,327,o),
(26,185,cs)
);
},
{
closed = 1;
nodes = (
(561,129,l),
(489,61,o),
(414,30,o),
(321,30,cs),
(190,30,o),
(113,99,o),
(113,217,cs),
(113,320,o),
(208,393,o),
(344,393,cs),
(430,393,o),
(516,365,o),
(561,322,c)
);
}
);
width = 761;
},
{
anchors = (
{
name = bar;
pos = (334,537);
},
{
name = bottom;
pos = (116,0);
},
{
name = center;
pos = (114,205);
},
{
name = top;
pos = (129,690);
},
{
name = topright;
pos = (437,690);
}
);
layerId = m003;
shapes = (
{
closed = 1;
nodes = (
(29,65,o),
(92,-20,o),
(184,-20,cs),
(231,-20,o),
(269,2,o),
(300,48,c),
(300,-13,l),
(479,59,l),
(477,67,l),
(370,57,l),
(370,712,l),
(186,635,l),
(190,627,l),
(297,635,l),
(297,391,l),
(273,411,o),
(243,422,o),
(215,422,cs),
(110,422,o),
(29,316,o),
(29,186,cs)
);
},
{
closed = 1;
nodes = (
(297,90,l),
(273,48,o),
(242,27,o),
(209,27,cs),
(144,27,o),
(102,102,o),
(102,214,cs),
(102,318,o),
(141,382,o),
(208,382,cs),
(241,382,o),
(276,368,o),
(297,346,c)
);
}
);
width = 457;
},
{
anchors = (
{
name = bar;
pos = (315,537);
},
{
name = bottom;
pos = (166,0);
},
{
name = center;
pos = (175,205);
},
{
name = top;
pos = (113,690);
},
{
name = topright;
pos = (377,690);
}
);
layerId = "2C26E880-80A5-4D19-8A94-7D905A372841";
shapes = (
{
closed = 1;
nodes = (
(34,56,o),
(93,-20,o),
(188,-20,cs),
(237,-20,o),
(273,-2,o),
(297,28,c),
(297,-13,l),
(440,53,l),
(438,61,l),
(331,51,l),
(331,702,l),
(186,635,l),
(190,627,l),
(297,635,l),
(297,387,l),
(271,401,o),
(234,412,o),
(200,412,cs),
(102,412,o),
(34,342,o),
(34,191,cs)
);
},
{
closed = 1;
nodes = (
(297,65,l),
(270,23,o),
(234,7,o),
(194,7,cs),
(119,7,o),
(68,82,o),
(68,204,cs),
(68,319,o),
(115,386,o),
(197,386,cs),
(231,386,o),
(270,373,o),
(297,355,c)
);
}
);
width = 429;
}
);
metricLeft = o;
unicode = 100;
}
{
glyphname = e;
kernLeft = o;
kernRight = o;
layers = (
{
anchors = (
{
name = bottom;
pos = (324,0);
},
{
name = ogonek;
pos = (444,10);
},
{
name = top;
pos = (314,401);
}
);
layerId = "0CCC0E2D-406A-4672-8E6C-854B1DF78A27";
shapes = (
{
closed = 1;
nodes = (
(61,203,l),
(592,205,l),
(590,337,o),
(487,421,o),
(329,421,cs),
(158,421,o),
(39,330,o),
(39,199,cs),
(39,68,o),
(147,-20,o),
(309,-20,cs),
(422,-20,o),
(524,22,o),
(595,95,c),
(585,105,l),
(510,40,o),
(424,9,o),
(332,9,cs),
(184,9,o),
(81,88,o),
(78,205,cs),
(75,317,o),
(170,395,o),
(312,395,cs),
(442,395,o),
(539,329,o),
(543,236,c),
(59,220,l)
);
}
);
width = 639;
},
{
anchors = (
{
name = bottom;
pos = (337,0);
},
{
name = ogonek;
pos = (455,10);
},
{
name = top;
pos = (327,415);
}
);
background = {
shapes = (
{
closed = 1;
nodes = (
(74,203,l),
(618,196,l),
(616,335,o),
(502,430,o),
(337,430,cs),
(162,430,o),
(30,330,o),
(30,198,cs),
(30,71,o),
(148,-20,o),
(313,-20,cs),
(432,-20,o),
(536,25,o),
(622,113,c),
(609,126,l),
(544,65,o),
(450,30,o),
(350,30,cs),
(206,30,o),
(97,105,o),
(91,208,cs),
(91,322,o),
(175,396,o),
(303,396,cs),
(429,396,o),
(524,332,o),
(548,245,c),
(72,226,l)
);
}
);
};
layerId = m002;
shapes = (
{
closed = 1;
nodes = (
(82,203,l),
(633,192,l),
(631,337,o),
(514,435,o),
(342,435,cs),
(166,435,o),
(26,330,o),
(26,198,cs),
(26,75,o),
(151,-20,o),
(316,-20,cs),
(436,-20,o),
(546,29,o),
(638,123,c),
(623,138,l),
(562,77,o),
(466,42,o),
(361,42,cs),
(200,42,o),
(97,113,o),
(99,218,cs),
(100,317,o),
(188,396,o),
(299,396,cs),
(455,396,o),
(537,321,o),
(538,250,c),
(80,229,l)
);
}
);
width = 667;
},
{
anchors = (
{
name = bottom;
pos = (205,0);
},
{
name = ogonek;
pos = (273,10);
},
{
name = top;
pos = (217,402);
}
);
layerId = m003;
shapes = (
{
closed = 1;
nodes = (
(78,204,l),
(361,200,l),
(359,344,o),
(305,422,o),
(209,422,cs),
(103,422,o),
(29,330,o),
(29,198,cs),
(29,65,o),
(97,-20,o),
(205,-20,cs),
(269,-20,o),
(311,11,o),
(361,78,c),
(349,86,l),
(303,36,o),
(264,17,o),
(224,17,cs),
(152,17,o),
(97,107,o),
(97,230,cs),
(97,328,o),
(136,386,o),
(200,386,cs),
(254,386,o),
(282,341,o),
(283,243,c),
(76,227,l)
);
}
);
width = 395;
},
{
anchors = (
{
name = bottom;
pos = (190,0);
},
{
name = ogonek;
pos = (268,10);
},
{
name = top;
pos = (192,392);
}
);
layerId = "2C26E880-80A5-4D19-8A94-7D905A372841";
shapes = (
{
closed = 1;
nodes = (
(58,201,l),
(322,204,l),
(320,349,o),
(281,412,o),
(194,412,cs),
(95,412,o),
(34,331,o),
(34,199,cs),
(34,64,o),
(96,-20,o),
(195,-20,cs),
(247,-20,o),
(290,5,o),
(322,57,c),
(310,65,l),
(280,26,o),
(243,6,o),
(204,6,cs),
(119,6,o),
(71,87,o),
(68,210,cs),
(65,323,o),
(108,386,o),
(187,386,cs),
(255,386,o),
(283,340,o),
(287,227,c),
(56,222,l)
);
}
);
width = 361;
}
);
metricLeft = o;
metricRight = o;
unicode = 101;
}
{
glyphname = j;
kernLeft = j;
kernRight = j;
layers = (
{
layerId = "0CCC0E2D-406A-4672-8E6C-854B1DF78A27";
shapes = (
{
ref = jdotless;
},
{
pos = (99,-9);
ref = dotaccentcomb;
}
);
width = 334;
},
{
associatedMasterId = "0CCC0E2D-406A-4672-8E6C-854B1DF78A27";
layerId = "893B20EC-6CC0-4D36-BCFB-42BF5B795128";
name = "2 Dec 21, 12:54";
shapes = (
{
closed = 1;
nodes = (
(-87,-240,o),
(-3,-250,o),
(61,-250,cs),
(193,-250,o),
(268,-161,o),
(268,6,cs),
(268,410,l),
(48,340,l),
(50,335,l),
(198,340,l),
(198,6,ls),
(198,-169,o),
(178,-208,o),
(61,-208,cs),
(-34,-208,o),
(-127,-190,o),
(-201,-139,c),
(-210,-147,l)
);
},
{
closed = 1;
nodes = (
(268,530,l),
(268,620,l),
(198,620,l),
(198,530,l)
);
}
);
width = 407;
},
{
layerId = m002;
shapes = (
{
ref = jdotless;
},
{
pos = (90,5);
ref = dotaccentcomb;
}
);
width = 338;
},
{
associatedMasterId = m002;
layerId = "6AB22808-86EC-4C5E-A0FA-867C5EAACC8C";
name = "2 Dec 21, 12:54";
shapes = (
{
closed = 1;
nodes = (
(-87,-240,o),
(-3,-250,o),
(61,-250,cs),
(193,-250,o),
(268,-161,o),
(268,6,cs),
(268,410,l),
(48,340,l),
(50,335,l),
(198,340,l),
(198,6,ls),
(198,-169,o),
(178,-208,o),
(61,-208,cs),
(-34,-208,o),
(-127,-190,o),
(-201,-139,c),
(-210,-147,l)
);
},
{
closed = 1;
nodes = (
(268,530,l),
(268,620,l),
(198,620,l),
(198,530,l)
);
}
);
width = 407;
},
{
layerId = m003;
shapes = (
{
ref = jdotless;
},
{
pos = (73,9);
ref = dotaccentcomb;
}
);
width = 264;
},
{
associatedMasterId = m003;
layerId = "CF0D4739-D750-461E-9D2D-EEBEAE82D777";
name = "2 Dec 21, 12:54";
shapes = (
{
closed = 1;
nodes = (
(-87,-240,o),
(-3,-250,o),
(61,-250,cs),
(193,-250,o),
(268,-161,o),
(268,6,cs),
(268,410,l),
(48,340,l),
(50,335,l),
(198,340,l),
(198,6,ls),
(198,-169,o),
(178,-208,o),
(61,-208,cs),
(-34,-208,o),
(-127,-190,o),
(-201,-139,c),
(-210,-147,l)
);
},
{
closed = 1;
nodes = (
(268,530,l),
(268,620,l),
(198,620,l),
(198,530,l)
);
}
);
width = 407;
},
{
layerId = "2C26E880-80A5-4D19-8A94-7D905A372841";
shapes = (
{
ref = jdotless;
},
{
pos = (73,12);
ref = dotaccentcomb;
}
);
width = 252;
}
);
unicode = 106;
}
{
glyphname = m;
kernLeft = n;
kernRight = n;
layers = (
{
anchors = (
{
name = bottom;
pos = (650,0);
},
{
name = top;
pos = (641,401);
}
);
layerId = "0CCC0E2D-406A-4672-8E6C-854B1DF78A27";
shapes = (
{
closed = 1;
nodes = (
(718,354,o),
(797,391,o),
(875,391,cs),
(980,391,o),
(1039,327,o),
(1039,214,cs),
(1039,50,l),
(889,8,l),
(891,0,l),
(1227,0,l),
(1229,8,l),
(1078,49,l),
(1079,205,ls),
(1080,349,o),
(1016,421,o),
(891,421,cs),
(792,421,o),
(695,375,o),
(626,291,c),
(647,269,l),
(649,362,o),
(580,421,o),
(467,421,cs),
(383,421,o),
(299,388,o),
(213,304,c),
(230,290,l),
(297,358,o),
(374,391,o),
(452,391,cs),
(556,391,o),
(617,338,o),
(617,246,cs),
(617,50,l),
(467,8,l),
(469,0,l),
(802,0,l),
(804,8,l),
(654,49,l),
(653,286,l)
);
},
{
closed = 1;
nodes = (
(234,421,l),
(44,350,l),
(46,342,l),
(195,350,l),
(195,50,l),
(45,8,l),
(47,0,l),
(382,0,l),
(384,8,l),
(234,50,l)
);
}
);
width = 1248;
},
{
anchors = (
{
name = bottom;
pos = (609,0);
},
{
name = top;
pos = (615,415);
}
);
background = {
shapes = (
{
closed = 1;
nodes = (
(37,0,l),
(403,0,l),
(405,8,l),
(255,50,l),
(255,294,l),
(314,354,o),
(380,383,o),
(456,383,cs),
(560,383,o),
(610,328,o),
(610,214,cs),
(610,50,l),
(460,8,l),
(462,0,l),
(828,0,l),
(830,8,l),
(680,49,l),
(679,288,l),
(744,355,o),
(803,383,o),
(879,383,cs),
(985,383,o),
(1035,329,o),
(1035,214,cs),
(1035,50,l),
(885,8,l),
(887,0,l),
(1253,0,l),
(1255,8,l),
(1104,49,l),
(1105,214,ls),
(1106,354,o),
(1037,430,o),
(908,430,cs),
(818,430,o),
(738,392,o),
(664,314,c),
(634,392,o),
(575,430,o),
(484,430,cs),
(399,430,o),
(324,397,o),
(255,329,c),
(255,430,l),
(35,350,l),
(37,342,l),
(185,350,l),
(185,50,l),
(35,8,l)
);
}
);
};
layerId = m002;
shapes = (
{
closed = 1;
nodes = (
(739,340,o),
(795,379,o),
(882,379,cs),
(988,379,o),
(1034,330,o),
(1034,214,cs),
(1034,50,l),
(884,8,l),
(886,0,l),
(1268,0,l),
(1270,8,l),
(1119,49,l),
(1120,218,ls),
(1121,357,o),
(1048,435,o),
(919,435,cs),
(828,435,o),
(710,381,o),
(647,274,c),
(682,301,l),
(666,375,o),
(592,435,o),
(495,435,cs),
(412,435,o),
(329,405,o),
(241,304,c),
(262,289,l),
(330,355,o),
(389,379,o),
(459,379,cs),
(563,379,o),
(607,322,o),
(607,197,cs),
(607,50,l),
(457,8,l),
(459,0,l),
(843,0,l),
(845,8,l),
(695,49,l),
(694,289,l)
);
},
{
closed = 1;
nodes = (
(269,435,l),
(31,350,l),
(33,342,l),
(182,350,l),
(182,50,l),
(32,8,l),
(34,0,l),
(417,0,l),
(419,8,l),
(269,50,l)
);
}
);
width = 1276;
},
{
anchors = (
{
name = bottom;
pos = (444,0);
},
{
name = top;
pos = (446,402);
}
);
background = {
shapes = (
{
closed = 1;
nodes = (
(146,345,l),
(146,45,l),
(36,6,l),
(38,0,l),
(289,0,l),
(291,6,l),
(211,45,l),
(211,420,l),
(35,345,l),
(37,337,l)
);
}
);
};
layerId = m003;
shapes = (
{
closed = 1;
nodes = (
(487,352,o),
(513,370,o),
(549,370,cs),
(593,370,o),
(608,344,o),
(608,266,cs),
(608,45,l),
(539,8,l),
(541,0,l),
(780,1,l),
(782,9,l),
(681,44,l),
(681,276,ls),
(681,382,o),
(656,422,o),
(591,422,cs),
(526,422,o),
(470,379,o),
(418,301,c),
(447,313,l),
(441,387,o),
(419,422,o),
(361,422,cs),
(304,422,o),
(251,388,o),
(192,312,c),
(211,299,l),
(250,351,o),
(282,370,o),
(320,370,cs),
(363,370,o),
(378,344,o),
(378,266,cs),
(378,45,l),
(308,8,l),
(310,0,l),
(519,0,l),
(521,8,l),
(450,44,l),
(450,302,l)
);
},
{
closed = 1;
nodes = (
(218,422,l),
(34,345,l),
(36,337,l),
(145,345,l),
(145,45,l),
(33,8,l),
(35,0,l),
(286,0,l),
(288,8,l),
(218,45,l)
);
}
);
width = 790;
},
{
anchors = (
{
name = bottom;
pos = (467,0);
},
{
name = top;
pos = (459,392);
}
);
layerId = "2C26E880-80A5-4D19-8A94-7D905A372841";
shapes = (
{
closed = 1;
nodes = (
(446,354,o),
(486,384,o),
(524,384,cs),
(568,384,o),
(590,344,o),
(590,258,cs),
(590,45,l),
(520,8,l),
(522,0,l),
(722,0,l),
(724,8,l),
(624,44,l),
(624,265,ls),
(624,364,o),
(595,412,o),
(538,412,cs),
(486,412,o),
(431,374,o),
(386,307,c),
(400,309,l),
(399,371,o),
(365,412,o),
(311,412,cs),
(263,412,o),
(213,379,o),
(164,316,c),
(166,286,l),
(216,352,o),
(258,384,o),
(298,384,cs),
(344,384,o),
(368,341,o),
(368,258,cs),
(368,45,l),
(298,8,l),
(300,0,l),
(470,0,l),
(472,8,l),
(402,45,l),
(400,297,l)
);
},
{
closed = 1;
nodes = (
(184,412,l),
(39,345,l),
(41,337,l),
(150,345,l),
(150,47,l),
(49,8,l),
(51,0,l),
(252,0,l),
(254,8,l),
(184,47,l)
);
}
);
width = 743;
}
);
metricLeft = n;
metricRight = n;
unicode = 109;
}
{
glyphname = n;
kernLeft = n;
kernRight = n;
layers = (
{
associatedMasterId = "0CCC0E2D-406A-4672-8E6C-854B1DF78A27";
layerId = "78898981-D2AD-472B-A132-99196C7DD42B";
name = "Extended Mar 1 18, 01:32";
shapes = (
{
closed = 1;
nodes = (
(150,355,l),
(150,35,l),
(0,6,l),
(2,0,l),
(368,0,l),
(370,5,l),
(220,35,l),
(220,400,l),
(0,355,l),
(2,350,l)
);
},
{
closed = 1;
nodes = (
(730,35,l),
(580,5,l),
(582,0,l),
(948,1,l),
(950,6,l),
(800,34,l),
(799,194,l),
(729,194,l)
);
},
{
closed = 1;
nodes = (
(217,276,l),
(274,315,o),
(379,361,o),
(513,361,cs),
(644,361,o),
(729,303,o),
(729,194,c),
(799,194,l),
(799,335,o),
(709,420,o),
(568,420,cs),
(381,420,o),
(268,341,o),
(211,301,c)
);
}
);
width = 950;
},
{
anchors = (
{
name = bottom;
pos = (455,0);
},
{
name = top;
pos = (485,401);
}
);
layerId = "0CCC0E2D-406A-4672-8E6C-854B1DF78A27";
shapes = (
{
closed = 1;
nodes = (
(213,296,l),
(316,364,o),
(402,391,o),
(494,391,cs),
(625,391,o),
(684,330,o),
(685,217,cs),
(686,50,l),
(536,8,l),
(538,0,l),
(853,1,l),
(855,9,l),
(724,49,l),
(724,224,ls),
(724,351,o),
(654,421,o),
(509,421,cs),
(415,421,o),
(316,391,o),
(213,323,c)
);
},
{
closed = 1;
nodes = (
(185,350,l),
(185,50,l),
(45,6,l),
(47,0,l),
(372,0,l),
(374,6,l),
(224,50,l),
(224,421,l),
(44,350,l),
(46,342,l)
);
}
);
width = 874;
},
{
associatedMasterId = "0CCC0E2D-406A-4672-8E6C-854B1DF78A27";
layerId = "98B3AEC0-4519-4E1B-B02B-C2AA58586EF7";
name = "Mar 1 18, 15:25";
shapes = (
{
closed = 1;
nodes = (
(150,355,l),
(150,35,l),
(0,6,l),
(2,0,l),
(368,0,l),
(370,5,l),
(220,35,l),
(220,400,l),
(0,355,l),
(2,350,l)
);
},
{
closed = 1;
nodes = (
(730,35,l),
(580,5,l),
(582,0,l),
(948,1,l),
(950,6,l),
(799,34,l),
(799,194,l),
(729,194,l)
);
},
{
closed = 1;
nodes = (
(217,276,l),
(274,315,o),
(379,361,o),
(513,361,cs),
(644,361,o),
(725,326,o),
(729,194,c),
(799,194,l),
(793,337,o),
(721,420,o),
(580,420,cs),
(419,420,o),
(271,349,o),
(214,309,c)
);
}
);
width = 950;
},
{
associatedMasterId = "0CCC0E2D-406A-4672-8E6C-854B1DF78A27";
layerId = "94C6DDB5-735D-457E-AB66-73C99C8E3C9D";
name = "Mar 1 18, 16:56";
shapes = (
{
closed = 1;
nodes = (
(145,355,l),
(145,35,l),
(-5,6,l),
(-3,0,l),
(363,0,l),
(365,5,l),
(215,35,l),
(215,400,l),
(-5,355,l),
(-3,350,l)
);
},
{
closed = 1;
nodes = (
(675,35,l),
(525,5,l),
(527,0,l),
(893,1,l),
(895,6,l),
(744,34,l),
(744,184,l),
(674,184,l)
);
},
{
closed = 1;
nodes = (
(212,276,l),
(269,315,o),
(340,361,o),
(474,361,cs),
(619,361,o),
(672,302,o),
(674,184,c),
(744,184,l),
(738,327,o),
(696,420,o),
(520,420,cs),
(380,420,o),
(266,349,o),
(209,309,c)
);
}
);
width = 855;
},
{
associatedMasterId = "0CCC0E2D-406A-4672-8E6C-854B1DF78A27";
layerId = "895DFDDF-3368-4878-AFAF-D14AFAC1C4DC";
name = "Mar 15 18, 21:56";
shapes = (
{
closed = 1;
nodes = (
(210,355,l),
(210,35,l),
(60,6,l),
(62,0,l),
(428,0,l),
(430,5,l),
(280,35,l),
(280,375,l),
(289,410,l),
(60,355,l),
(62,350,l)
);
},
{
closed = 1;
nodes = (
(740,35,l),
(590,5,l),
(592,0,l),
(958,1,l),
(960,6,l),
(809,34,l),
(809,184,l),
(739,184,l)
);
},
{
closed = 1;
nodes = (
(277,286,l),
(360,343,o),
(450,383,o),
(539,383,cs),
(670,383,o),
(739,291,o),
(739,184,c),
(809,184,l),
(809,322,o),
(732,430,o),
(585,430,cs),
(476,430,o),
(370,385,o),
(274,319,c)
);
}
);
width = 990;
},
{
associatedMasterId = "0CCC0E2D-406A-4672-8E6C-854B1DF78A27";
layerId = "83A16449-1623-4210-B128-DCF8773253C0";
name = "Extended Mar 1 18, 01:32";
shapes = (
{
closed = 1;
nodes = (
(150,355,l),
(150,35,l),
(0,6,l),
(2,0,l),
(368,0,l),
(370,5,l),
(220,35,l),
(220,400,l),
(0,355,l),
(2,350,l)
);
},
{
closed = 1;
nodes = (
(730,35,l),
(580,5,l),
(582,0,l),
(948,1,l),
(950,6,l),
(800,34,l),
(799,194,l),
(729,194,l)
);
},
{
closed = 1;
nodes = (
(217,276,l),
(274,315,o),
(379,361,o),
(513,361,cs),
(644,361,o),
(729,303,o),
(729,194,c),
(799,194,l),
(799,335,o),
(709,420,o),
(568,420,cs),
(381,420,o),
(268,341,o),
(211,301,c)
);
}
);
width = 950;
},
{
associatedMasterId = "0CCC0E2D-406A-4672-8E6C-854B1DF78A27";
layerId = "267643F4-8092-487A-91AE-E38AF16984A2";
name = "Mar 1 18, 15:25";
shapes = (
{
closed = 1;
nodes = (
(150,355,l),
(150,35,l),
(0,6,l),
(2,0,l),
(368,0,l),
(370,5,l),
(220,35,l),
(220,400,l),
(0,355,l),
(2,350,l)
);
},
{
closed = 1;
nodes = (
(730,35,l),
(580,5,l),
(582,0,l),
(948,1,l),
(950,6,l),
(799,34,l),
(799,194,l),
(729,194,l)
);
},
{
closed = 1;
nodes = (
(217,276,l),
(274,315,o),
(379,361,o),
(513,361,cs),
(644,361,o),
(725,326,o),
(729,194,c),
(799,194,l),
(793,337,o),
(721,420,o),
(580,420,cs),
(419,420,o),
(271,349,o),
(214,309,c)
);
}
);
width = 950;
},
{
associatedMasterId = "0CCC0E2D-406A-4672-8E6C-854B1DF78A27";
layerId = "D4DAA643-1A1D-4564-A01C-E0139155702C";
name = "Mar 1 18, 16:56";
shapes = (
{
closed = 1;
nodes = (
(145,355,l),
(145,35,l),
(-5,6,l),
(-3,0,l),
(363,0,l),
(365,5,l),
(215,35,l),
(215,400,l),
(-5,355,l),
(-3,350,l)
);
},
{
closed = 1;
nodes = (
(675,35,l),
(525,5,l),
(527,0,l),
(893,1,l),
(895,6,l),
(744,34,l),
(744,184,l),
(674,184,l)
);
},
{
closed = 1;
nodes = (
(212,276,l),
(269,315,o),
(340,361,o),
(474,361,cs),
(619,361,o),
(672,302,o),
(674,184,c),
(744,184,l),
(738,327,o),
(696,420,o),
(520,420,cs),
(380,420,o),
(266,349,o),
(209,309,c)
);
}
);
width = 855;
},
{
associatedMasterId = "0CCC0E2D-406A-4672-8E6C-854B1DF78A27";
layerId = "8215CE54-F3A4-450E-AFE3-B0D1038AFF79";
name = "Mar 15 18, 21:56";
shapes = (
{
closed = 1;
nodes = (
(210,355,l),
(210,35,l),
(60,6,l),
(62,0,l),
(428,0,l),
(430,5,l),
(280,35,l),
(280,375,l),
(289,410,l),
(60,355,l),
(62,350,l)
);
},
{
closed = 1;
nodes = (
(740,35,l),
(590,5,l),
(592,0,l),
(958,1,l),
(960,6,l),
(809,34,l),
(809,184,l),
(739,184,l)
);
},
{
closed = 1;
nodes = (
(277,286,l),
(360,343,o),
(450,383,o),
(539,383,cs),
(670,383,o),
(739,291,o),
(739,184,c),
(809,184,l),
(809,322,o),
(732,430,o),
(585,430,cs),
(476,430,o),
(370,385,o),
(274,319,c)
);
}
);
width = 990;
},
{
associatedMasterId = m002;
layerId = "47C8B7A5-79CE-4C47-BFFB-49D4B645F541";
name = "Extended Mar 1 18, 01:32";
shapes = (
{
closed = 1;
nodes = (
(150,355,l),
(150,35,l),
(0,6,l),
(2,0,l),
(368,0,l),
(370,5,l),
(220,35,l),
(220,400,l),
(0,355,l),
(2,350,l)
);
},
{
closed = 1;
nodes = (
(730,35,l),
(580,5,l),
(582,0,l),
(948,1,l),
(950,6,l),
(800,34,l),
(799,194,l),
(729,194,l)
);
},
{
closed = 1;
nodes = (
(217,276,l),
(274,315,o),
(379,361,o),
(513,361,cs),
(644,361,o),
(729,303,o),
(729,194,c),
(799,194,l),
(799,335,o),
(709,420,o),
(568,420,cs),
(381,420,o),
(268,341,o),
(211,301,c)
);
}
);
width = 950;
},
{
anchors = (
{
name = bottom;
pos = (456,0);
},
{
name = top;
pos = (436,415);
}
);
layerId = m002;
shapes = (
{
closed = 1;
nodes = (
(226,284,l),
(323,347,o),
(408,379,o),
(489,379,cs),
(602,379,o),
(677,317,o),
(678,213,cs),
(680,50,l),
(530,8,l),
(532,0,l),
(894,1,l),
(896,9,l),
(765,49,l),
(765,224,ls),
(765,360,o),
(681,435,o),
(537,435,cs),
(438,435,o),
(338,399,o),
(226,323,c)
);
},
{
closed = 1;
nodes = (
(172,350,l),
(172,50,l),
(32,9,l),
(34,0,l),
(407,0,l),
(409,6,l),
(259,50,l),
(259,435,l),
(31,350,l),
(33,342,l)
);
}
);
width = 902;
},
{
associatedMasterId = m002;
layerId = "2B98D842-F6F6-4FE2-8178-F471F960C4BE";
name = "Mar 1 18, 15:25";
shapes = (
{
closed = 1;
nodes = (
(150,355,l),
(150,35,l),
(0,6,l),
(2,0,l),
(368,0,l),
(370,5,l),
(220,35,l),
(220,400,l),
(0,355,l),
(2,350,l)
);
},
{
closed = 1;
nodes = (
(730,35,l),
(580,5,l),
(582,0,l),
(948,1,l),
(950,6,l),
(799,34,l),
(799,194,l),
(729,194,l)
);
},
{
closed = 1;
nodes = (
(217,276,l),
(274,315,o),
(379,361,o),
(513,361,cs),
(644,361,o),
(725,326,o),
(729,194,c),
(799,194,l),
(793,337,o),
(721,420,o),
(580,420,cs),
(419,420,o),
(271,349,o),
(214,309,c)
);
}
);
width = 950;
},
{
associatedMasterId = m002;
layerId = "C032A20D-38AA-4A0D-9188-56DB7B116ECD";
name = "Mar 1 18, 16:56";
shapes = (
{
closed = 1;
nodes = (
(145,355,l),
(145,35,l),
(-5,6,l),
(-3,0,l),
(363,0,l),
(365,5,l),
(215,35,l),
(215,400,l),
(-5,355,l),
(-3,350,l)
);
},
{
closed = 1;
nodes = (
(675,35,l),
(525,5,l),
(527,0,l),
(893,1,l),
(895,6,l),
(744,34,l),
(744,184,l),
(674,184,l)
);
},
{
closed = 1;
nodes = (
(212,276,l),
(269,315,o),
(340,361,o),
(474,361,cs),
(619,361,o),
(672,302,o),
(674,184,c),
(744,184,l),
(738,327,o),
(696,420,o),
(520,420,cs),
(380,420,o),
(266,349,o),
(209,309,c)
);
}
);
width = 855;
},
{
associatedMasterId = m002;
layerId = "0ACE8D7B-5DD6-4427-BCDD-280F2886FD51";
name = "Mar 15 18, 21:56";
shapes = (
{
closed = 1;
nodes = (
(210,355,l),
(210,35,l),
(60,6,l),
(62,0,l),
(428,0,l),
(430,5,l),
(280,35,l),
(280,375,l),
(289,410,l),
(60,355,l),
(62,350,l)
);
},
{
closed = 1;
nodes = (
(740,35,l),
(590,5,l),
(592,0,l),
(958,1,l),
(960,6,l),
(809,34,l),
(809,184,l),
(739,184,l)
);
},
{
closed = 1;
nodes = (
(277,286,l),
(360,343,o),
(450,383,o),
(539,383,cs),
(670,383,o),
(739,291,o),
(739,184,c),
(809,184,l),
(809,322,o),
(732,430,o),
(585,430,cs),
(476,430,o),
(370,385,o),
(274,319,c)
);
}
);
width = 990;
},
{
associatedMasterId = m002;
layerId = "42DC5B10-652E-4CA6-993D-602AF55F2FE2";
name = "Extended Mar 1 18, 01:32";
shapes = (
{
closed = 1;
nodes = (
(150,355,l),
(150,35,l),
(0,6,l),
(2,0,l),
(368,0,l),
(370,5,l),
(220,35,l),
(220,400,l),
(0,355,l),
(2,350,l)
);
},
{
closed = 1;
nodes = (
(730,35,l),
(580,5,l),
(582,0,l),
(948,1,l),
(950,6,l),
(800,34,l),
(799,194,l),
(729,194,l)
);
},
{
closed = 1;
nodes = (
(217,276,l),
(274,315,o),
(379,361,o),
(513,361,cs),
(644,361,o),
(729,303,o),
(729,194,c),
(799,194,l),
(799,335,o),
(709,420,o),
(568,420,cs),
(381,420,o),
(268,341,o),
(211,301,c)
);
}
);
width = 950;
},
{
associatedMasterId = m002;
layerId = "BA935502-69A4-49ED-A42A-8D703A61F05E";
name = "Mar 1 18, 15:25";
shapes = (
{
closed = 1;
nodes = (
(150,355,l),
(150,35,l),
(0,6,l),
(2,0,l),
(368,0,l),
(370,5,l),
(220,35,l),
(220,400,l),
(0,355,l),
(2,350,l)
);
},
{
closed = 1;
nodes = (
(730,35,l),
(580,5,l),
(582,0,l),
(948,1,l),
(950,6,l),
(799,34,l),
(799,194,l),
(729,194,l)
);
},
{
closed = 1;
nodes = (
(217,276,l),
(274,315,o),
(379,361,o),
(513,361,cs),
(644,361,o),
(725,326,o),
(729,194,c),
(799,194,l),
(793,337,o),
(721,420,o),
(580,420,cs),
(419,420,o),
(271,349,o),
(214,309,c)
);
}
);
width = 950;
},
{
associatedMasterId = m002;
layerId = "33641BE7-56EE-4D99-8E36-F4FB6F15D608";
name = "Mar 1 18, 16:56";
shapes = (
{
closed = 1;
nodes = (
(145,355,l),
(145,35,l),
(-5,6,l),
(-3,0,l),
(363,0,l),
(365,5,l),
(215,35,l),
(215,400,l),
(-5,355,l),
(-3,350,l)
);
},
{
closed = 1;
nodes = (
(675,35,l),
(525,5,l),
(527,0,l),
(893,1,l),
(895,6,l),
(744,34,l),
(744,184,l),
(674,184,l)
);
},
{
closed = 1;
nodes = (
(212,276,l),
(269,315,o),
(340,361,o),
(474,361,cs),
(619,361,o),
(672,302,o),
(674,184,c),
(744,184,l),
(738,327,o),
(696,420,o),
(520,420,cs),
(380,420,o),
(266,349,o),
(209,309,c)
);
}
);
width = 855;
},
{
associatedMasterId = m002;
layerId = "32CB23CD-A039-4D37-9BF2-F2B94AF90B35";
name = "Mar 15 18, 21:56";
shapes = (
{
closed = 1;
nodes = (
(210,355,l),
(210,35,l),
(60,6,l),
(62,0,l),
(428,0,l),
(430,5,l),
(280,35,l),
(280,375,l),
(289,410,l),
(60,355,l),
(62,350,l)
);
},
{
closed = 1;
nodes = (
(740,35,l),
(590,5,l),
(592,0,l),
(958,1,l),
(960,6,l),
(809,34,l),
(809,184,l),
(739,184,l)
);
},
{
closed = 1;
nodes = (
(277,286,l),
(360,343,o),
(450,383,o),
(539,383,cs),
(670,383,o),
(739,291,o),
(739,184,c),
(809,184,l),
(809,322,o),
(732,430,o),
(585,430,cs),
(476,430,o),
(370,385,o),
(274,319,c)
);
}
);
width = 990;
},
{
associatedMasterId = m003;
layerId = "73AD09ED-C6D0-408F-A67B-BE9C15DEE62B";
name = "Extended Mar 1 18, 01:32";
shapes = (
{
closed = 1;
nodes = (
(150,355,l),
(150,35,l),
(0,6,l),
(2,0,l),
(368,0,l),
(370,5,l),
(220,35,l),
(220,400,l),
(0,355,l),
(2,350,l)
);
},
{
closed = 1;
nodes = (
(730,35,l),
(580,5,l),
(582,0,l),
(948,1,l),
(950,6,l),
(800,34,l),
(799,194,l),
(729,194,l)
);
},
{
closed = 1;
nodes = (
(217,276,l),
(274,315,o),
(379,361,o),
(513,361,cs),
(644,361,o),
(729,303,o),
(729,194,c),
(799,194,l),
(799,335,o),
(709,420,o),
(568,420,cs),
(381,420,o),
(268,341,o),
(211,301,c)
);
}
);
width = 950;
},
{
anchors = (
{
name = bottom;
pos = (304,0);
},
{
name = top;
pos = (305,402);
}
);
layerId = m003;
shapes = (
{
closed = 1;
nodes = (
(189,276,l),
(238,342,o),
(278,371,o),
(318,371,cs),
(368,371,o),
(395,329,o),
(395,253,cs),
(395,45,l),
(315,8,l),
(317,0,l),
(567,1,l),
(569,9,l),
(468,44,l),
(468,264,ls),
(468,364,o),
(428,422,o),
(356,422,cs),
(300,422,o),
(248,387,o),
(189,312,c)
);
},
{
closed = 1;
nodes = (
(145,345,l),
(145,45,l),
(33,8,l),
(35,0,l),
(289,0,l),
(291,8,l),
(218,45,l),
(218,422,l),
(34,345,l),
(36,337,l)
);
}
);
width = 577;
},
{
associatedMasterId = m003;
layerId = "AF6DC9DE-861A-4A2F-8087-3B42835E17C5";
name = "Mar 1 18, 15:25";
shapes = (
{
closed = 1;
nodes = (
(150,355,l),
(150,35,l),
(0,6,l),
(2,0,l),
(368,0,l),
(370,5,l),
(220,35,l),
(220,400,l),
(0,355,l),
(2,350,l)
);
},
{
closed = 1;
nodes = (
(730,35,l),
(580,5,l),
(582,0,l),
(948,1,l),
(950,6,l),
(799,34,l),
(799,194,l),
(729,194,l)
);
},
{
closed = 1;
nodes = (
(217,276,l),
(274,315,o),
(379,361,o),
(513,361,cs),
(644,361,o),
(725,326,o),
(729,194,c),
(799,194,l),
(793,337,o),
(721,420,o),
(580,420,cs),
(419,420,o),
(271,349,o),
(214,309,c)
);
}
);
width = 950;
},
{
associatedMasterId = m003;
layerId = "6706BB3E-8FD1-4E94-BEE0-70F82C4E6316";
name = "Mar 1 18, 16:56";
shapes = (
{
closed = 1;
nodes = (
(145,355,l),
(145,35,l),
(-5,6,l),
(-3,0,l),
(363,0,l),
(365,5,l),
(215,35,l),
(215,400,l),
(-5,355,l),
(-3,350,l)
);
},
{
closed = 1;
nodes = (
(675,35,l),
(525,5,l),
(527,0,l),
(893,1,l),
(895,6,l),
(744,34,l),
(744,184,l),
(674,184,l)
);
},
{
closed = 1;
nodes = (
(212,276,l),
(269,315,o),
(340,361,o),
(474,361,cs),
(619,361,o),
(672,302,o),
(674,184,c),
(744,184,l),
(738,327,o),
(696,420,o),
(520,420,cs),
(380,420,o),
(266,349,o),
(209,309,c)
);
}
);
width = 855;
},
{
associatedMasterId = m003;
layerId = "6BDAB9D8-956E-470A-85D9-A9D663ECBF1F";
name = "Mar 15 18, 21:56";
shapes = (
{
closed = 1;
nodes = (
(210,355,l),
(210,35,l),
(60,6,l),
(62,0,l),
(428,0,l),
(430,5,l),
(280,35,l),
(280,375,l),
(289,410,l),
(60,355,l),
(62,350,l)
);
},
{
closed = 1;
nodes = (
(740,35,l),
(590,5,l),
(592,0,l),
(958,1,l),
(960,6,l),
(809,34,l),
(809,184,l),
(739,184,l)
);
},
{
closed = 1;
nodes = (
(277,286,l),
(360,343,o),
(450,383,o),
(539,383,cs),
(670,383,o),
(739,291,o),
(739,184,c),
(809,184,l),
(809,322,o),
(732,430,o),
(585,430,cs),
(476,430,o),
(370,385,o),
(274,319,c)
);
}
);
width = 990;
},
{
associatedMasterId = m003;
layerId = "226AC1DA-39AA-4284-BDD3-97FB44F01AA7";
name = "Extended Mar 1 18, 01:32";
shapes = (
{
closed = 1;
nodes = (
(150,355,l),
(150,35,l),
(0,6,l),
(2,0,l),
(368,0,l),
(370,5,l),
(220,35,l),
(220,400,l),
(0,355,l),
(2,350,l)
);
},
{
closed = 1;
nodes = (
(730,35,l),
(580,5,l),
(582,0,l),
(948,1,l),
(950,6,l),
(800,34,l),
(799,194,l),
(729,194,l)
);
},
{
closed = 1;
nodes = (
(217,276,l),
(274,315,o),
(379,361,o),
(513,361,cs),
(644,361,o),
(729,303,o),
(729,194,c),
(799,194,l),
(799,335,o),
(709,420,o),
(568,420,cs),
(381,420,o),
(268,341,o),
(211,301,c)
);
}
);
width = 950;
},
{
associatedMasterId = m003;
layerId = "D2637315-B0F5-4549-A0E1-861A53719BA1";
name = "Mar 1 18, 15:25";
shapes = (
{
closed = 1;
nodes = (
(150,355,l),
(150,35,l),
(0,6,l),
(2,0,l),
(368,0,l),
(370,5,l),
(220,35,l),
(220,400,l),
(0,355,l),
(2,350,l)
);
},
{
closed = 1;
nodes = (
(730,35,l),
(580,5,l),
(582,0,l),
(948,1,l),
(950,6,l),
(799,34,l),
(799,194,l),
(729,194,l)
);
},
{
closed = 1;
nodes = (
(217,276,l),
(274,315,o),
(379,361,o),
(513,361,cs),
(644,361,o),
(725,326,o),
(729,194,c),
(799,194,l),
(793,337,o),
(721,420,o),
(580,420,cs),
(419,420,o),
(271,349,o),
(214,309,c)
);
}
);
width = 950;
},
{
associatedMasterId = m003;
layerId = "EB465D38-B52B-4010-9C15-C370672303B1";
name = "Mar 1 18, 16:56";
shapes = (
{
closed = 1;
nodes = (
(145,355,l),
(145,35,l),
(-5,6,l),
(-3,0,l),
(363,0,l),
(365,5,l),
(215,35,l),
(215,400,l),
(-5,355,l),
(-3,350,l)
);
},
{
closed = 1;
nodes = (
(675,35,l),
(525,5,l),
(527,0,l),
(893,1,l),
(895,6,l),
(744,34,l),
(744,184,l),
(674,184,l)
);
},
{
closed = 1;
nodes = (
(212,276,l),
(269,315,o),
(340,361,o),
(474,361,cs),
(619,361,o),
(672,302,o),
(674,184,c),
(744,184,l),
(738,327,o),
(696,420,o),
(520,420,cs),
(380,420,o),
(266,349,o),
(209,309,c)
);
}
);
width = 855;
},
{
associatedMasterId = m003;
layerId = "E173649C-36F0-4403-966D-BD69386C948E";
name = "Mar 15 18, 21:56";
shapes = (
{
closed = 1;
nodes = (
(210,355,l),
(210,35,l),
(60,6,l),
(62,0,l),
(428,0,l),
(430,5,l),
(280,35,l),
(280,375,l),
(289,410,l),
(60,355,l),
(62,350,l)
);
},
{
closed = 1;
nodes = (
(740,35,l),
(590,5,l),
(592,0,l),
(958,1,l),
(960,6,l),
(809,34,l),
(809,184,l),
(739,184,l)
);
},
{
closed = 1;
nodes = (
(277,286,l),
(360,343,o),
(450,383,o),
(539,383,cs),
(670,383,o),
(739,291,o),
(739,184,c),
(809,184,l),
(809,322,o),
(732,430,o),
(585,430,cs),
(476,430,o),
(370,385,o),
(274,319,c)
);
}
);
width = 990;
},
{
anchors = (
{
name = bottom;
pos = (305,0);
},
{
name = top;
pos = (293,392);
}
);
layerId = "2C26E880-80A5-4D19-8A94-7D905A372841";
shapes = (
{
closed = 1;
nodes = (
(174,286,l),
(225,353,o),
(269,383,o),
(318,383,cs),
(373,383,o),
(396,346,o),
(396,257,cs),
(396,45,l),
(316,8,l),
(318,0,l),
(529,1,l),
(531,9,l),
(430,44,l),
(430,264,ls),
(430,366,o),
(399,412,o),
(331,412,cs),
(275,412,o),
(222,380,o),
(174,318,c)
);
},
{
closed = 1;
nodes = (
(150,345,l),
(150,47,l),
(49,8,l),
(51,0,l),
(289,0,l),
(291,8,l),
(184,47,l),
(184,412,l),
(39,345,l),
(41,337,l)
);
}
);
width = 550;
}
);
unicode = 110;
}
{
glyphname = o;
kernLeft = o;
kernRight = o;
layers = (
{
associatedMasterId = "0CCC0E2D-406A-4672-8E6C-854B1DF78A27";
layerId = "2FC2A129-3B6A-4E9F-AB89-9C70AD1A31B5";
name = "Mar 1 18, 00:52";
shapes = (
{
closed = 1;
nodes = (
(525,-20,o),
(650,66,o),
(650,211,cs),
(650,342,o),
(533,420,o),
(334,420,cs),
(124,420,o),
(0,320,o),
(0,185,cs),
(0,56,o),
(142,-20,o),
(313,-20,cs)
);
},
{
closed = 1;
nodes = (
(190,21,o),
(50,95,o),
(50,221,cs),
(50,308,o),
(139,380,o),
(290,380,cs),
(485,380,o),
(600,308,o),
(600,185,cs),
(600,82,o),
(509,21,o),
(356,21,cs)
);
}
);
width = 650;
},
{
associatedMasterId = "0CCC0E2D-406A-4672-8E6C-854B1DF78A27";
layerId = "7291C55C-A289-4303-875F-1EB3D2E55F0B";
name = "Mar 1 18, 18:52";
shapes = (
{
closed = 1;
nodes = (
(548,-15,o),
(680,71,o),
(680,199,cs),
(680,332,o),
(548,420,o),
(351,420,cs),
(146,420,o),
(10,332,o),
(10,199,cs),
(10,71,o),
(146,-15,o),
(351,-15,cs)
);
},
{
closed = 1;
nodes = (
(176,46,o),
(78,136,o),
(89,253,cs),
(97,345,o),
(212,394,o),
(377,374,cs),
(529,359,o),
(622,268,o),
(610,146,cs),
(598,56,o),
(488,8,o),
(334,28,cs)
);
}
);
width = 690;
},
{
associatedMasterId = "0CCC0E2D-406A-4672-8E6C-854B1DF78A27";
layerId = "B0F5BC9C-287A-468E-A06F-768767D4AD26";
name = "Extended Mar 1 18, 18:52";
shapes = (
{
closed = 1;
nodes = (
(548,-15,o),
(680,71,o),
(680,199,cs),
(680,332,o),
(548,420,o),
(351,420,cs),
(146,420,o),
(10,332,o),
(10,199,cs),
(10,71,o),
(146,-15,o),
(351,-15,cs)
);
},
{
closed = 1;
nodes = (
(176,46,o),
(78,136,o),
(89,253,cs),
(97,345,o),
(212,394,o),
(377,374,cs),
(529,359,o),
(622,268,o),
(610,146,cs),
(598,56,o),
(488,8,o),
(334,28,cs)
);
}
);
width = 690;
},
{
anchors = (
{
name = bottom;
pos = (347,0);
},
{
name = center;
pos = (347,205);
},
{
name = ogonek;
pos = (631,10);
},
{
name = top;
pos = (347,401);
},
{
name = topright;
pos = (682,410);
}
);
layerId = "0CCC0E2D-406A-4672-8E6C-854B1DF78A27";
shapes = (
{
closed = 1;
nodes = (
(527,-20,o),
(654,71,o),
(654,197,cs),
(654,335,o),
(536,421,o),
(348,421,cs),
(169,421,o),
(39,328,o),
(39,198,cs),
(39,65,o),
(159,-20,o),
(349,-20,cs)
);
},
{
closed = 1;
nodes = (
(189,5,o),
(80,86,o),
(80,211,cs),
(80,320,o),
(193,396,o),
(341,396,cs),
(509,396,o),
(613,314,o),
(613,185,cs),
(613,80,o),
(503,5,o),
(357,5,cs)
);
}
);
width = 698;
},
{
associatedMasterId = "0CCC0E2D-406A-4672-8E6C-854B1DF78A27";
layerId = "FB6D350D-7CBD-4F57-AC86-E451548CC87A";
name = "Mar 1 18, 00:52";
shapes = (
{
closed = 1;
nodes = (
(525,-20,o),
(650,66,o),
(650,211,cs),
(650,342,o),
(533,420,o),
(334,420,cs),
(124,420,o),
(0,320,o),
(0,185,cs),
(0,56,o),
(142,-20,o),
(313,-20,cs)
);
},
{
closed = 1;
nodes = (
(190,21,o),
(50,95,o),
(50,221,cs),
(50,308,o),
(139,380,o),
(290,380,cs),
(485,380,o),
(600,308,o),
(600,185,cs),
(600,82,o),
(509,21,o),
(356,21,cs)
);
}
);
width = 650;
},
{
associatedMasterId = "0CCC0E2D-406A-4672-8E6C-854B1DF78A27";
layerId = "82E77072-A6F8-42D1-A76E-58AC84DCA469";
name = "Mar 1 18, 18:52";
shapes = (
{
closed = 1;
nodes = (
(548,-15,o),
(680,71,o),
(680,199,cs),
(680,332,o),
(548,420,o),
(351,420,cs),
(146,420,o),
(10,332,o),
(10,199,cs),
(10,71,o),
(146,-15,o),
(351,-15,cs)
);
},
{
closed = 1;
nodes = (
(176,46,o),
(78,136,o),
(89,253,cs),
(97,345,o),
(212,394,o),
(377,374,cs),
(529,359,o),
(622,268,o),
(610,146,cs),
(598,56,o),
(488,8,o),
(334,28,cs)
);
}
);
width = 690;
},
{
associatedMasterId = "0CCC0E2D-406A-4672-8E6C-854B1DF78A27";
layerId = "835D5E82-18A4-4829-B4E8-16496E0B21F4";
name = "Extended Mar 1 18, 18:52";
shapes = (
{
closed = 1;
nodes = (
(548,-15,o),
(680,71,o),
(680,199,cs),
(680,332,o),
(548,420,o),
(351,420,cs),
(146,420,o),
(10,332,o),
(10,199,cs),
(10,71,o),
(146,-15,o),
(351,-15,cs)
);
},
{
closed = 1;
nodes = (
(176,46,o),
(78,136,o),
(89,253,cs),
(97,345,o),
(212,394,o),
(377,374,cs),
(529,359,o),
(622,268,o),
(610,146,cs),
(598,56,o),
(488,8,o),
(334,28,cs)
);
}
);
width = 690;
},
{
associatedMasterId = "0CCC0E2D-406A-4672-8E6C-854B1DF78A27";
layerId = "AA0EF081-D7F1-4E03-BFF3-D99C1554FAE2";
name = "Mar 21 18, 23:35";
shapes = (
{
closed = 1;
nodes = (
(247,-10,o),
(307,63,o),
(307,187,cs),
(307,327,o),
(257,410,o),
(177,410,cs),
(92,410,o),
(35,341,o),
(35,224,cs),
(35,77,o),
(83,-10,o),
(162,-10,cs)
);
},
{
closed = 1;
nodes = (
(98,10,o),
(90,149,o),
(90,264,cs),
(90,327,o),
(114,391,o),
(170,391,cs),
(245,391,o),
(252,256,o),
(252,164,cs),
(252,96,o),
(242,10,o),
(170,10,cs)
);
}
);
width = 342;
},
{
associatedMasterId = m002;
layerId = "AD889F70-B4AD-466E-B267-966DDF7C7B91";
name = "Mar 1 18, 00:52";
shapes = (
{
closed = 1;
nodes = (
(525,-20,o),
(650,66,o),
(650,211,cs),
(650,342,o),
(533,420,o),
(334,420,cs),
(124,420,o),
(0,320,o),
(0,185,cs),
(0,56,o),
(142,-20,o),
(313,-20,cs)
);
},
{
closed = 1;
nodes = (
(190,21,o),
(50,95,o),
(50,221,cs),
(50,308,o),
(139,380,o),
(290,380,cs),
(485,380,o),
(600,308,o),
(600,185,cs),
(600,82,o),
(509,21,o),
(356,21,cs)
);
}
);
width = 650;
},
{
associatedMasterId = m002;
layerId = "C14915B3-A36F-41B6-94DC-6DD53BAEE407";
name = "Mar 1 18, 18:52";
shapes = (
{
closed = 1;
nodes = (
(548,-15,o),
(680,71,o),
(680,199,cs),
(680,332,o),
(548,420,o),
(351,420,cs),
(146,420,o),
(10,332,o),
(10,199,cs),
(10,71,o),
(146,-15,o),
(351,-15,cs)
);
},
{
closed = 1;
nodes = (
(176,46,o),
(78,136,o),
(89,253,cs),
(97,345,o),
(212,394,o),
(377,374,cs),
(529,359,o),
(622,268,o),
(610,146,cs),
(598,56,o),
(488,8,o),
(334,28,cs)
);
}
);
width = 690;
},
{
associatedMasterId = m002;
layerId = "7AE3FCDB-ADFB-46D1-8376-F3287060B324";
name = "Extended Mar 1 18, 18:52";
shapes = (
{
closed = 1;
nodes = (
(548,-15,o),
(680,71,o),
(680,199,cs),
(680,332,o),
(548,420,o),
(351,420,cs),
(146,420,o),
(10,332,o),
(10,199,cs),
(10,71,o),
(146,-15,o),
(351,-15,cs)
);
},
{
closed = 1;
nodes = (
(176,46,o),
(78,136,o),
(89,253,cs),
(97,345,o),
(212,394,o),
(377,374,cs),
(529,359,o),
(622,268,o),
(610,146,cs),
(598,56,o),
(488,8,o),
(334,28,cs)
);
}
);
width = 690;
},
{
anchors = (
{
name = bottom;
pos = (360,0);
},
{
name = center;
pos = (360,205);
},
{
name = ogonek;
pos = (644,10);
},
{
name = top;
pos = (360,415);
},
{
name = topright;
pos = (695,410);
}
);
layerId = m002;
shapes = (
{
closed = 1;
nodes = (
(561,-20,o),
(695,72,o),
(695,211,cs),
(695,343,o),
(559,435,o),
(364,435,cs),
(168,435,o),
(26,336,o),
(26,198,cs),
(26,69,o),
(163,-20,o),
(361,-20,cs)
);
},
{
closed = 1;
nodes = (
(236,17,o),
(115,111,o),
(115,231,cs),
(115,336,o),
(195,397,o),
(335,397,cs),
(488,397,o),
(607,302,o),
(607,179,cs),
(607,80,o),
(524,17,o),
(392,17,cs)
);
}
);
width = 724;
},
{
associatedMasterId = m002;
layerId = "E5F63F47-D1D0-448E-8C8D-1AE95E760A5F";
name = "Mar 1 18, 00:52";
shapes = (
{
closed = 1;
nodes = (
(525,-20,o),
(650,66,o),
(650,211,cs),
(650,342,o),
(533,420,o),
(334,420,cs),
(124,420,o),
(0,320,o),
(0,185,cs),
(0,56,o),
(142,-20,o),
(313,-20,cs)
);
},
{
closed = 1;
nodes = (
(190,21,o),
(50,95,o),
(50,221,cs),
(50,308,o),
(139,380,o),
(290,380,cs),
(485,380,o),
(600,308,o),
(600,185,cs),
(600,82,o),
(509,21,o),
(356,21,cs)
);
}
);
width = 650;
},
{
associatedMasterId = m002;
layerId = "1DB626AD-D3D3-444B-A3E8-FB16B3C43D39";
name = "Mar 1 18, 18:52";
shapes = (
{
closed = 1;
nodes = (
(548,-15,o),
(680,71,o),
(680,199,cs),
(680,332,o),
(548,420,o),
(351,420,cs),
(146,420,o),
(10,332,o),
(10,199,cs),
(10,71,o),
(146,-15,o),
(351,-15,cs)
);
},
{
closed = 1;
nodes = (
(176,46,o),
(78,136,o),
(89,253,cs),
(97,345,o),
(212,394,o),
(377,374,cs),
(529,359,o),
(622,268,o),
(610,146,cs),
(598,56,o),
(488,8,o),
(334,28,cs)
);
}
);
width = 690;
},
{
associatedMasterId = m002;
layerId = "C8DA7FA1-559F-4189-8368-D4022AC9595D";
name = "Extended Mar 1 18, 18:52";
shapes = (
{
closed = 1;
nodes = (
(548,-15,o),
(680,71,o),
(680,199,cs),
(680,332,o),
(548,420,o),
(351,420,cs),
(146,420,o),
(10,332,o),
(10,199,cs),
(10,71,o),
(146,-15,o),
(351,-15,cs)
);
},
{
closed = 1;
nodes = (
(176,46,o),
(78,136,o),
(89,253,cs),
(97,345,o),
(212,394,o),
(377,374,cs),
(529,359,o),
(622,268,o),
(610,146,cs),
(598,56,o),
(488,8,o),
(334,28,cs)
);
}
);
width = 690;
},
{
associatedMasterId = m002;
layerId = "3B55877C-E8CC-4CB7-B35E-F36514B6F9C6";
name = "Mar 21 18, 23:35";
shapes = (
{
closed = 1;
nodes = (
(247,-10,o),
(307,63,o),
(307,187,cs),
(307,327,o),
(257,410,o),
(177,410,cs),
(92,410,o),
(35,341,o),
(35,224,cs),
(35,77,o),
(83,-10,o),
(162,-10,cs)
);
},
{
closed = 1;
nodes = (
(98,10,o),
(90,149,o),
(90,264,cs),
(90,327,o),
(114,391,o),
(170,391,cs),
(245,391,o),
(252,256,o),
(252,164,cs),
(252,96,o),
(242,10,o),
(170,10,cs)
);
}
);
width = 342;
},
{
associatedMasterId = m003;
layerId = "B224170F-F19C-4DCF-8F9E-85EEC9A56C73";
name = "Mar 1 18, 00:52";
shapes = (
{
closed = 1;
nodes = (
(525,-20,o),
(650,66,o),
(650,211,cs),
(650,342,o),
(533,420,o),
(334,420,cs),
(124,420,o),
(0,320,o),
(0,185,cs),
(0,56,o),
(142,-20,o),
(313,-20,cs)
);
},
{
closed = 1;
nodes = (
(190,21,o),
(50,95,o),
(50,221,cs),
(50,308,o),
(139,380,o),
(290,380,cs),
(485,380,o),
(600,308,o),
(600,185,cs),
(600,82,o),
(509,21,o),
(356,21,cs)
);
}
);
width = 650;
},
{
associatedMasterId = m003;
layerId = "7D0814CA-1FF7-402A-A565-B117127C9D0F";
name = "Mar 1 18, 18:52";
shapes = (
{
closed = 1;
nodes = (
(548,-15,o),
(680,71,o),
(680,199,cs),
(680,332,o),
(548,420,o),
(351,420,cs),
(146,420,o),
(10,332,o),
(10,199,cs),
(10,71,o),
(146,-15,o),
(351,-15,cs)
);
},
{
closed = 1;
nodes = (
(176,46,o),
(78,136,o),
(89,253,cs),
(97,345,o),
(212,394,o),
(377,374,cs),
(529,359,o),
(622,268,o),
(610,146,cs),
(598,56,o),
(488,8,o),
(334,28,cs)
);
}
);
width = 690;
},
{
associatedMasterId = m003;
layerId = "6F20F3AE-B1D3-47E4-97A5-D03B069369E5";
name = "Extended Mar 1 18, 18:52";
shapes = (
{
closed = 1;
nodes = (
(548,-15,o),
(680,71,o),
(680,199,cs),
(680,332,o),
(548,420,o),
(351,420,cs),
(146,420,o),
(10,332,o),
(10,199,cs),
(10,71,o),
(146,-15,o),
(351,-15,cs)
);
},
{
closed = 1;
nodes = (
(176,46,o),
(78,136,o),
(89,253,cs),
(97,345,o),
(212,394,o),
(377,374,cs),
(529,359,o),
(622,268,o),
(610,146,cs),
(598,56,o),
(488,8,o),
(334,28,cs)
);
}
);
width = 690;
},
{
anchors = (
{
name = bottom;
pos = (209,0);
},
{
name = center;
pos = (209,205);
},
{
name = ogonek;
pos = (284,10);
},
{
name = top;
pos = (209,402);
},
{
name = topright;
pos = (411,400);
}
);
layerId = m003;
shapes = (
{
closed = 1;
nodes = (
(325,-20,o),
(389,63,o),
(389,208,cs),
(389,346,o),
(326,422,o),
(212,422,cs),
(96,422,o),
(29,340,o),
(29,199,cs),
(29,62,o),
(97,-20,o),
(211,-20,cs)
);
},
{
closed = 1;
nodes = (
(147,15,o),
(104,87,o),
(104,217,cs),
(104,326,o),
(139,387,o),
(201,387,cs),
(274,387,o),
(314,317,o),
(314,191,cs),
(314,78,o),
(282,15,o),
(223,15,cs)
);
}
);
width = 423;
},
{
associatedMasterId = m003;
layerId = "1F5B753D-899D-4A9E-973D-8EE0A23544B5";
name = "Mar 1 18, 00:52";
shapes = (
{
closed = 1;
nodes = (
(525,-20,o),
(650,66,o),
(650,211,cs),
(650,342,o),
(533,420,o),
(334,420,cs),
(124,420,o),
(0,320,o),
(0,185,cs),
(0,56,o),
(142,-20,o),
(313,-20,cs)
);
},
{
closed = 1;
nodes = (
(190,21,o),
(50,95,o),
(50,221,cs),
(50,308,o),
(139,380,o),
(290,380,cs),
(485,380,o),
(600,308,o),
(600,185,cs),
(600,82,o),
(509,21,o),
(356,21,cs)
);
}
);
width = 650;
},
{
associatedMasterId = m003;
layerId = "5CA2B9CF-39FB-4C57-84A5-40E033F9D143";
name = "Mar 1 18, 18:52";
shapes = (
{
closed = 1;
nodes = (
(548,-15,o),
(680,71,o),
(680,199,cs),
(680,332,o),
(548,420,o),
(351,420,cs),
(146,420,o),
(10,332,o),
(10,199,cs),
(10,71,o),
(146,-15,o),
(351,-15,cs)
);
},
{
closed = 1;
nodes = (
(176,46,o),
(78,136,o),
(89,253,cs),
(97,345,o),
(212,394,o),
(377,374,cs),
(529,359,o),
(622,268,o),
(610,146,cs),
(598,56,o),
(488,8,o),
(334,28,cs)
);
}
);
width = 690;
},
{
associatedMasterId = m003;
layerId = "3C1B9BE4-A836-48DB-BB52-DF8DB7EEADA1";
name = "Extended Mar 1 18, 18:52";
shapes = (
{
closed = 1;
nodes = (
(548,-15,o),
(680,71,o),
(680,199,cs),
(680,332,o),
(548,420,o),
(351,420,cs),
(146,420,o),
(10,332,o),
(10,199,cs),
(10,71,o),
(146,-15,o),
(351,-15,cs)
);
},
{
closed = 1;
nodes = (
(176,46,o),
(78,136,o),
(89,253,cs),
(97,345,o),
(212,394,o),
(377,374,cs),
(529,359,o),
(622,268,o),
(610,146,cs),
(598,56,o),
(488,8,o),
(334,28,cs)
);
}
);
width = 690;
},
{
associatedMasterId = m003;
layerId = "983B0E15-EB72-4534-A508-914FBCE5C730";
name = "Mar 21 18, 23:35";
shapes = (
{
closed = 1;
nodes = (
(247,-10,o),
(307,63,o),
(307,187,cs),
(307,327,o),
(257,410,o),
(177,410,cs),
(92,410,o),
(35,341,o),
(35,224,cs),
(35,77,o),
(83,-10,o),
(162,-10,cs)
);
},
{
closed = 1;
nodes = (
(98,10,o),
(90,149,o),
(90,264,cs),
(90,327,o),
(114,391,o),
(170,391,cs),
(245,391,o),
(252,256,o),
(252,164,cs),
(252,96,o),
(242,10,o),
(170,10,cs)
);
}
);
width = 342;
},
{
anchors = (
{
name = bottom;
pos = (189,0);
},
{
name = center;
pos = (189,205);
},
{
name = ogonek;
pos = (264,10);
},
{
name = top;
pos = (189,392);
},
{
name = topright;
pos = (391,400);
}
);
layerId = "2C26E880-80A5-4D19-8A94-7D905A372841";
shapes = (
{
closed = 1;
nodes = (
(286,-20,o),
(344,59,o),
(344,199,cs),
(344,336,o),
(291,412,o),
(194,412,cs),
(91,412,o),
(34,333,o),
(34,194,cs),
(34,56,o),
(89,-20,o),
(185,-20,cs)
);
},
{
closed = 1;
nodes = (
(114,6,o),
(69,78,o),
(69,202,cs),
(69,321,o),
(110,386,o),
(185,386,cs),
(265,386,o),
(309,314,o),
(309,191,cs),
(309,72,o),
(268,6,o),
(193,6,cs)
);
}
);
width = 383;
}
);
unicode = 111;
}
{
glyphname = p;
kernLeft = p;
kernRight = o;
layers = (
{
anchors = (
{
name = bottom;
pos = (334,0);
},
{
name = top;
pos = (334,401);
}
);
layerId = "0CCC0E2D-406A-4672-8E6C-854B1DF78A27";
shapes = (
{
closed = 1;
nodes = (
(139,303,l),
(194,357,o),
(293,392,o),
(383,392,cs),
(524,392,o),
(628,311,o),
(628,200,cs),
(628,89,o),
(522,11,o),
(369,11,cs),
(282,11,o),
(194,34,o),
(139,73,c)
);
},
{
closed = 1;
nodes = (
(-37,333,l),
(100,341,l),
(100,-191,l),
(-30,-235,l),
(-28,-241,l),
(307,-241,l),
(309,-235,l),
(139,-191,l),
(139,35,l),
(202,-1,o),
(276,-18,o),
(357,-18,cs),
(540,-18,o),
(667,77,o),
(667,213,cs),
(667,336,o),
(556,423,o),
(398,423,cs),
(311,423,o),
(215,395,o),
(139,338,c),
(139,421,l),
(-41,341,l)
);
}
);
width = 711;
},
{
anchors = (
{
name = bottom;
pos = (346,0);
},
{
name = top;
pos = (346,415);
}
);
layerId = m002;
shapes = (
{
closed = 1;
nodes = (
(173,285,l),
(245,354,o),
(321,384,o),
(413,384,cs),
(544,384,o),
(621,315,o),
(621,197,cs),
(621,93,o),
(525,20,o),
(389,20,cs),
(301,20,o),
(214,50,o),
(173,92,c)
);
},
{
closed = 1;
nodes = (
(-51,347,l),
(86,355,l),
(86,-202,l),
(-44,-246,l),
(-42,-255,l),
(341,-255,l),
(343,-246,l),
(173,-202,l),
(173,27,l),
(225,-2,o),
(304,-21,o),
(369,-21,cs),
(568,-21,o),
(707,86,o),
(707,229,cs),
(707,347,o),
(597,434,o),
(453,434,cs),
(359,434,o),
(254,400,o),
(173,338,c),
(173,435,l),
(-55,355,l)
);
}
);
width = 736;
},
{
anchors = (
{
name = bottom;
pos = (202,0);
},
{
name = top;
pos = (202,402);
}
);
layerId = m003;
shapes = (
{
closed = 1;
nodes = (
(119,312,l),
(143,353,o),
(171,375,o),
(207,375,cs),
(272,375,o),
(314,299,o),
(314,188,cs),
(314,83,o),
(274,20,o),
(208,20,cs),
(172,20,o),
(137,36,o),
(119,56,c)
);
},
{
closed = 1;
nodes = (
(-61,329,l),
(46,344,l),
(46,-195,l),
(-28,-234,l),
(-26,-242,l),
(227,-242,l),
(229,-234,l),
(119,-195,l),
(119,11,l),
(139,-6,o),
(169,-20,o),
(201,-20,cs),
(306,-20,o),
(387,86,o),
(387,216,cs),
(387,337,o),
(324,422,o),
(232,422,cs),
(185,422,o),
(147,401,o),
(116,354,c),
(116,415,l),
(-63,337,l)
);
}
);
width = 421;
},
{
anchors = (
{
name = bottom;
pos = (200,0);
},
{
name = top;
pos = (200,392);
}
);
layerId = "2C26E880-80A5-4D19-8A94-7D905A372841";
shapes = (
{
closed = 1;
nodes = (
(93,327,l),
(119,367,o),
(158,385,o),
(196,385,cs),
(271,385,o),
(322,310,o),
(322,188,cs),
(322,73,o),
(275,7,o),
(193,7,cs),
(163,7,o),
(123,17,o),
(93,37,c)
);
},
{
closed = 1;
nodes = (
(-48,356,l),
(59,346,l),
(59,-185,l),
(-47,-224,l),
(-45,-232,l),
(201,-232,l),
(203,-224,l),
(93,-185,l),
(93,6,l),
(121,-10,o),
(158,-20,o),
(190,-20,cs),
(288,-20,o),
(356,50,o),
(356,202,cs),
(356,336,o),
(297,412,o),
(202,412,cs),
(154,412,o),
(116,392,o),
(93,364,c),
(93,405,l),
(-50,364,l)
);
}
);
width = 395;
}
);
metricRight = o;
unicode = 112;
}
{
glyphname = q;
kernLeft = o;
kernRight = q;
layers = (
{
anchors = (
{
name = bottom;
pos = (374,0);
},
{
name = top;
pos = (374,410);
}
);
layerId = "0CCC0E2D-406A-4672-8E6C-854B1DF78A27";
shapes = (
{
closed = 1;
nodes = (
(567,108,l),
(506,49,o),
(406,11,o),
(313,11,cs),
(181,11,o),
(78,89,o),
(78,208,cs),
(78,313,o),
(188,395,o),
(341,395,cs),
(426,395,o),
(519,365,o),
(567,329,c)
);
},
{
closed = 1;
nodes = (
(39,61,o),
(150,-20,o),
(290,-20,cs),
(386,-20,o),
(491,13,o),
(567,71,c),
(567,-191,l),
(397,-233,l),
(399,-241,l),
(734,-241,l),
(736,-233,l),
(606,-191,l),
(606,345,l),
(544,394,o),
(458,421,o),
(360,421,cs),
(164,421,o),
(39,329,o),
(39,191,cs)
);
}
);
width = 678;
},
{
anchors = (
{
name = bottom;
pos = (387,0);
},
{
name = top;
pos = (387,410);
}
);
layerId = m002;
shapes = (
{
closed = 1;
nodes = (
(561,125,l),
(493,60,o),
(420,30,o),
(326,30,cs),
(187,30,o),
(113,103,o),
(113,215,cs),
(113,321,o),
(206,392,o),
(342,392,cs),
(418,392,o),
(507,377,o),
(561,343,c)
);
},
{
closed = 1;
nodes = (
(26,73,o),
(133,-20,o),
(291,-20,cs),
(388,-20,o),
(487,18,o),
(561,76,c),
(561,-202,l),
(391,-244,l),
(393,-255,l),
(775,-255,l),
(777,-244,l),
(647,-202,l),
(647,359,l),
(582,406,o),
(470,435,o),
(373,435,cs),
(176,435,o),
(26,322,o),
(26,185,cs)
);
}
);
width = 693;
},
{
anchors = (
{
name = bottom;
pos = (211,0);
},
{
name = top;
pos = (211,402);
}
);
layerId = m003;
shapes = (
{
closed = 1;
nodes = (
(297,91,l),
(270,46,o),
(241,27,o),
(209,27,cs),
(144,27,o),
(102,102,o),
(102,214,cs),
(102,319,o),
(141,382,o),
(210,382,cs),
(244,382,o),
(281,371,o),
(297,355,c)
);
},
{
closed = 1;
nodes = (
(29,63,o),
(91,-20,o),
(184,-20,cs),
(233,-20,o),
(267,2,o),
(297,45,c),
(297,-195,l),
(192,-234,l),
(194,-242,l),
(446,-242,l),
(448,-234,l),
(370,-195,l),
(370,371,l),
(333,403,o),
(274,422,o),
(216,422,cs),
(110,422,o),
(29,320,o),
(29,186,cs)
);
}
);
width = 421;
},
{
anchors = (
{
name = bottom;
pos = (193,0);
},
{
name = top;
pos = (193,392);
}
);
layerId = "2C26E880-80A5-4D19-8A94-7D905A372841";
shapes = (
{
closed = 1;
nodes = (
(297,62,l),
(282,31,o),
(238,7,o),
(195,7,cs),
(118,7,o),
(68,84,o),
(68,204,cs),
(68,317,o),
(115,386,o),
(191,386,cs),
(234,386,o),
(276,367,o),
(297,345,c)
);
},
{
closed = 1;
nodes = (
(34,64,o),
(96,-20,o),
(189,-20,cs),
(230,-20,o),
(274,-3,o),
(297,24,c),
(297,-185,l),
(169,-224,l),
(171,-232,l),
(418,-232,l),
(420,-224,l),
(331,-185,l),
(331,361,l),
(292,394,o),
(246,412,o),
(198,412,cs),
(100,412,o),
(34,324,o),
(34,191,cs)
);
}
);
width = 404;
}
);
metricLeft = o;
unicode = 113;
}
{
glyphname = t;
kernLeft = t;
kernRight = t;
layers = (
{
associatedMasterId = "0CCC0E2D-406A-4672-8E6C-854B1DF78A27";
layerId = "982039CB-7D1D-4919-8DC1-F50AD9D81CE4";
name = "Extended Mar 17 18, 22:33";
shapes = (
{
closed = 1;
nodes = (
(174,517,l),
(141,400,l),
(141,256,l),
(211,256,l),
(211,401,l),
(214,527,l)
);
},
{
closed = 1;
nodes = (
(50,377,l),
(141,364,l),
(211,364,l),
(379,350,l),
(418,400,l),
(50,400,l)
);
},
{
closed = 1;
nodes = (
(211,256,l),
(209,132,o),
(229,50,o),
(290,50,cs),
(313,50,o),
(413,63,o),
(435,83,c),
(450,75,l),
(407,30,o),
(286,0,o),
(253,0,cs),
(174,0,o),
(141,102,o),
(141,256,c)
);
}
);
width = 650;
},
{
anchors = (
{
name = bottom;
pos = (290,0);
},
{
name = center;
pos = (290,205);
},
{
name = top;
pos = (290,401);
},
{
name = topright;
pos = (237,691);
}
);
layerId = "0CCC0E2D-406A-4672-8E6C-854B1DF78A27";
shapes = (
{
closed = 1;
nodes = (
(11,375,l),
(100,375,l),
(100,176,ls),
(100,40,o),
(183,-20,o),
(302,-20,cs),
(384,-20,o),
(470,18,o),
(543,74,c),
(532,85,l),
(481,48,o),
(383,15,o),
(313,15,cs),
(211,15,o),
(139,66,o),
(139,176,cs),
(139,549,l),
(127,551,l),
(87,416,l),
(9,383,l)
);
},
{
closed = 1;
nodes = (
(429,375,l),
(446,253,l),
(454,251,l),
(494,401,l),
(131,401,l),
(131,375,l)
);
}
);
width = 562;
},
{
associatedMasterId = "0CCC0E2D-406A-4672-8E6C-854B1DF78A27";
layerId = "E9743CA0-6A04-4D6D-B9CF-B24604783A90";
name = "Apr 20 19, 12:42";
shapes = (
{
closed = 1;
nodes = (
(2,365,l),
(91,365,l),
(91,184,ls),
(91,58,o),
(168,-12,o),
(310,-12,cs),
(374,-12,o),
(490,26,o),
(575,91,c),
(560,99,l),
(495,56,o),
(401,30,o),
(326,30,cs),
(230,30,o),
(159,87,o),
(161,184,cs),
(161,365,l),
(538,365,l),
(538,400,l),
(161,400,l),
(161,538,l),
(157,540,l),
(91,400,l),
(0,369,l)
);
}
);
width = 595;
},
{
associatedMasterId = "0CCC0E2D-406A-4672-8E6C-854B1DF78A27";
layerId = "5A7DCBF1-E78D-4E12-BD4D-8D8A7223DC21";
name = "Extended Mar 17 18, 22:33";
shapes = (
{
closed = 1;
nodes = (
(174,517,l),
(141,400,l),
(141,256,l),
(211,256,l),
(211,401,l),
(214,527,l)
);
},
{
closed = 1;
nodes = (
(50,377,l),
(141,364,l),
(211,364,l),
(379,350,l),
(418,400,l),
(50,400,l)
);
},
{
closed = 1;
nodes = (
(211,256,l),
(209,132,o),
(229,50,o),
(290,50,cs),
(313,50,o),
(413,63,o),
(435,83,c),
(450,75,l),
(407,30,o),
(286,0,o),
(253,0,cs),
(174,0,o),
(141,102,o),
(141,256,c)
);
}
);
width = 650;
},
{
associatedMasterId = "0CCC0E2D-406A-4672-8E6C-854B1DF78A27";
layerId = "83FF7227-709D-49E5-8CEB-44ABF34D4D04";
name = "Apr 20 19, 12:42";
shapes = (
{
closed = 1;
nodes = (
(2,365,l),
(91,365,l),
(91,184,ls),
(91,58,o),
(168,-12,o),
(310,-12,cs),
(374,-12,o),
(490,26,o),
(575,91,c),
(560,99,l),
(495,56,o),
(401,30,o),
(326,30,cs),
(230,30,o),
(159,87,o),
(161,184,cs),
(161,365,l),
(538,365,l),
(538,400,l),
(161,400,l),
(161,538,l),
(157,540,l),
(91,400,l),
(0,369,l)
);
}
);
width = 595;
},
{
associatedMasterId = "0CCC0E2D-406A-4672-8E6C-854B1DF78A27";
layerId = "33459614-88E3-4CC9-B5F1-7C15F1C6D424";
name = "Apr 20 19, 12:34";
shapes = (
{
closed = 1;
nodes = (
(2,370,l),
(61,370,l),
(61,166,ls),
(61,46,o),
(75,-15,o),
(155,-15,cs),
(207,-15,o),
(235,11,o),
(259,88,c),
(248,92,l),
(232,35,o),
(208,16,o),
(166,16,cs),
(112,16,o),
(109,69,o),
(111,166,cs),
(111,370,l),
(255,370,l),
(255,400,l),
(111,400,l),
(111,488,l),
(107,490,l),
(61,400,l),
(2,375,l)
);
}
);
width = 279;
},
{
associatedMasterId = m002;
layerId = "C369CD9F-29F3-4D7B-8F87-670E9C001452";
name = "Extended Mar 17 18, 22:33";
shapes = (
{
closed = 1;
nodes = (
(174,517,l),
(141,400,l),
(141,256,l),
(211,256,l),
(211,401,l),
(214,527,l)
);
},
{
closed = 1;
nodes = (
(50,377,l),
(141,364,l),
(211,364,l),
(379,350,l),
(418,400,l),
(50,400,l)
);
},
{
closed = 1;
nodes = (
(211,256,l),
(209,132,o),
(229,50,o),
(290,50,cs),
(313,50,o),
(413,63,o),
(435,83,c),
(450,75,l),
(407,30,o),
(286,0,o),
(253,0,cs),
(174,0,o),
(141,102,o),
(141,256,c)
);
}
);
width = 650;
},
{
anchors = (
{
name = bottom;
pos = (302,0);
},
{
name = center;
pos = (302,205);
},
{
name = top;
pos = (302,415);
},
{
name = topright;
pos = (249,705);
}
);
layerId = m002;
shapes = (
{
closed = 1;
nodes = (
(-3,375,l),
(86,375,l),
(86,176,ls),
(86,56,o),
(195,-20,o),
(314,-20,cs),
(403,-20,o),
(501,35,o),
(592,88,c),
(575,111,l),
(503,65,o),
(400,43,o),
(333,43,cs),
(231,43,o),
(173,86,o),
(173,176,cs),
(173,563,l),
(161,565,l),
(93,423,l),
(-5,383,l)
);
},
{
closed = 1;
nodes = (
(441,375,l),
(458,253,l),
(466,251,l),
(521,415,l),
(143,415,l),
(143,375,l)
);
}
);
width = 598;
},
{
associatedMasterId = m002;
layerId = "848D5700-7BD4-4C4F-860B-C16079093DB5";
name = "Apr 20 19, 12:42";
shapes = (
{
closed = 1;
nodes = (
(2,365,l),
(91,365,l),
(91,184,ls),
(91,58,o),
(168,-12,o),
(310,-12,cs),
(374,-12,o),
(490,26,o),
(575,91,c),
(560,99,l),
(495,56,o),
(401,30,o),
(326,30,cs),
(230,30,o),
(159,87,o),
(161,184,cs),
(161,365,l),
(538,365,l),
(538,400,l),
(161,400,l),
(161,538,l),
(157,540,l),
(91,400,l),
(0,369,l)
);
}
);
width = 595;
},
{
associatedMasterId = m002;
layerId = "8FB0317F-9342-4CC0-99A2-8B4DCFD1EE02";
name = "Extended Mar 17 18, 22:33";
shapes = (
{
closed = 1;
nodes = (
(174,517,l),
(141,400,l),
(141,256,l),
(211,256,l),
(211,401,l),
(214,527,l)
);
},
{
closed = 1;
nodes = (
(50,377,l),
(141,364,l),
(211,364,l),
(379,350,l),
(418,400,l),
(50,400,l)
);
},
{
closed = 1;
nodes = (
(211,256,l),
(209,132,o),
(229,50,o),
(290,50,cs),
(313,50,o),
(413,63,o),
(435,83,c),
(450,75,l),
(407,30,o),
(286,0,o),
(253,0,cs),
(174,0,o),
(141,102,o),
(141,256,c)
);
}
);
width = 650;
},
{
associatedMasterId = m002;
layerId = "1F761D61-DA05-4876-A936-B1DFD7857444";
name = "Apr 20 19, 12:42";
shapes = (
{
closed = 1;
nodes = (
(2,365,l),
(91,365,l),
(91,184,ls),
(91,58,o),
(168,-12,o),
(310,-12,cs),
(374,-12,o),
(490,26,o),
(575,91,c),
(560,99,l),
(495,56,o),
(401,30,o),
(326,30,cs),
(230,30,o),
(159,87,o),
(161,184,cs),
(161,365,l),
(538,365,l),
(538,400,l),
(161,400,l),
(161,538,l),
(157,540,l),
(91,400,l),
(0,369,l)
);
}
);
width = 595;
},
{
associatedMasterId = m002;
layerId = "F75EE8E4-F152-4680-B71B-815191BB287E";
name = "Apr 20 19, 12:34";
shapes = (
{
closed = 1;
nodes = (
(2,370,l),
(61,370,l),
(61,166,ls),
(61,46,o),
(75,-15,o),
(155,-15,cs),
(207,-15,o),
(235,11,o),
(259,88,c),
(248,92,l),
(232,35,o),
(208,16,o),
(166,16,cs),
(112,16,o),
(109,69,o),
(111,166,cs),
(111,370,l),
(255,370,l),
(255,400,l),
(111,400,l),
(111,488,l),
(107,490,l),
(61,400,l),
(2,375,l)
);
}
);
width = 279;
},
{
associatedMasterId = m003;
layerId = "4CF7F255-6369-464F-BBB1-F58026685D59";
name = "Extended Mar 17 18, 22:33";
shapes = (
{
closed = 1;
nodes = (
(174,517,l),
(141,400,l),
(141,256,l),
(211,256,l),
(211,401,l),
(214,527,l)
);
},
{
closed = 1;
nodes = (
(50,377,l),
(141,364,l),
(211,364,l),
(379,350,l),
(418,400,l),
(50,400,l)
);
},
{
closed = 1;
nodes = (
(211,256,l),
(209,132,o),
(229,50,o),
(290,50,cs),
(313,50,o),
(413,63,o),
(435,83,c),
(450,75,l),
(407,30,o),
(286,0,o),
(253,0,cs),
(174,0,o),
(141,102,o),
(141,256,c)
);
}
);
width = 650;
},
{
anchors = (
{
name = bottom;
pos = (195,0);
},
{
name = center;
pos = (195,205);
},
{
name = top;
pos = (195,412);
},
{
name = topright;
pos = (202,692);
}
);
layerId = m003;
shapes = (
{
closed = 1;
nodes = (
(0,368,l),
(79,368,l),
(79,143,ls),
(79,32,o),
(110,-20,o),
(176,-20,cs),
(213,-20,o),
(243,-2,o),
(322,77,c),
(311,87,l),
(258,49,o),
(221,32,o),
(196,32,cs),
(160,32,o),
(151,62,o),
(151,187,cs),
(151,550,l),
(138,552,l),
(83,409,l),
(-2,376,l)
);
},
{
closed = 1;
nodes = (
(238,369,l),
(256,254,l),
(264,252,l),
(305,402,l),
(134,402,l),
(134,368,l)
);
}
);
width = 329;
},
{
associatedMasterId = m003;
layerId = "865EDEA0-182A-4354-B39A-D83294832E62";
name = "Apr 20 19, 12:42";
shapes = (
{
closed = 1;
nodes = (
(2,365,l),
(91,365,l),
(91,184,ls),
(91,58,o),
(168,-12,o),
(310,-12,cs),
(374,-12,o),
(490,26,o),
(575,91,c),
(560,99,l),
(495,56,o),
(401,30,o),
(326,30,cs),
(230,30,o),
(159,87,o),
(161,184,cs),
(161,365,l),
(538,365,l),
(538,400,l),
(161,400,l),
(161,538,l),
(157,540,l),
(91,400,l),
(0,369,l)
);
}
);
width = 595;
},
{
associatedMasterId = m003;
layerId = "CBE80519-9227-481E-9C33-7675238477B8";
name = "Extended Mar 17 18, 22:33";
shapes = (
{
closed = 1;
nodes = (
(174,517,l),
(141,400,l),
(141,256,l),
(211,256,l),
(211,401,l),
(214,527,l)
);
},
{
closed = 1;
nodes = (
(50,377,l),
(141,364,l),
(211,364,l),
(379,350,l),
(418,400,l),
(50,400,l)
);
},
{
closed = 1;
nodes = (
(211,256,l),
(209,132,o),
(229,50,o),
(290,50,cs),
(313,50,o),
(413,63,o),
(435,83,c),
(450,75,l),
(407,30,o),
(286,0,o),
(253,0,cs),
(174,0,o),
(141,102,o),
(141,256,c)
);
}
);
width = 650;
},
{
associatedMasterId = m003;
layerId = "8BEB7EBC-661B-4A49-A957-C05AED2FC0B5";
name = "Apr 20 19, 12:42";
shapes = (
{
closed = 1;
nodes = (
(2,365,l),
(91,365,l),
(91,184,ls),
(91,58,o),
(168,-12,o),
(310,-12,cs),
(374,-12,o),
(490,26,o),
(575,91,c),
(560,99,l),
(495,56,o),
(401,30,o),
(326,30,cs),
(230,30,o),
(159,87,o),
(161,184,cs),
(161,365,l),
(538,365,l),
(538,400,l),
(161,400,l),
(161,538,l),
(157,540,l),
(91,400,l),
(0,369,l)
);
}
);
width = 595;
},
{
associatedMasterId = m003;
layerId = "73840682-1201-4C2F-A9A9-DF37E1BE33F1";
name = "Apr 20 19, 12:34";
shapes = (
{
closed = 1;
nodes = (
(2,370,l),
(61,370,l),
(61,166,ls),
(61,46,o),
(75,-15,o),
(155,-15,cs),
(207,-15,o),
(235,11,o),
(259,88,c),
(248,92,l),
(232,35,o),
(208,16,o),
(166,16,cs),
(112,16,o),
(109,69,o),
(111,166,cs),
(111,370,l),
(255,370,l),
(255,400,l),
(111,400,l),
(111,488,l),
(107,490,l),
(61,400,l),
(2,375,l)
);
}
);
width = 279;
},
{
anchors = (
{
name = bottom;
pos = (186,0);
},
{
name = center;
pos = (186,205);
},
{
name = top;
pos = (186,402);
},
{
name = topright;
pos = (193,682);
}
);
layerId = "2C26E880-80A5-4D19-8A94-7D905A372841";
shapes = (
{
closed = 1;
nodes = (
(11,367,l),
(92,367,l),
(92,110,ls),
(92,27,o),
(121,-20,o),
(174,-20,cs),
(214,-20,o),
(250,8,o),
(285,64,c),
(273,72,l),
(240,30,o),
(211,11,o),
(183,11,cs),
(143,11,o),
(126,47,o),
(126,132,cs),
(126,540,l),
(118,542,l),
(74,403,l),
(9,375,l)
);
},
{
closed = 1;
nodes = (
(235,366,l),
(247,264,l),
(255,262,l),
(286,391,l),
(109,392,l),
(109,367,l)
);
}
);
width = 306;
}
);
unicode = 116;
}
{
glyphname = u;
kernLeft = u;
kernRight = u;
layers = (
{
anchors = (
{
name = bottom;
pos = (337,0);
},
{
name = ogonek;
pos = (618,10);
},
{
name = top;
pos = (344,401);
},
{
name = topright;
pos = (794,401);
}
);
layerId = "0CCC0E2D-406A-4672-8E6C-854B1DF78A27";
shapes = (
{
closed = 1;
nodes = (
(-37,342,l),
(102,350,l),
(102,187,ls),
(102,48,o),
(176,-20,o),
(325,-20,cs),
(412,-20,o),
(483,3,o),
(568,60,c),
(568,-12,l),
(743,59,l),
(741,67,l),
(603,56,l),
(604,421,l),
(424,350,l),
(426,342,l),
(564,350,l),
(564,85,l),
(488,34,o),
(415,10,o),
(336,10,cs),
(210,10,o),
(141,73,o),
(141,187,cs),
(141,421,l),
(-39,350,l)
);
}
);
width = 750;
},
{
anchors = (
{
name = bottom;
pos = (456,0);
},
{
name = ogonek;
pos = (667,10);
},
{
name = top;
pos = (405,415);
},
{
name = topright;
pos = (843,415);
}
);
layerId = m002;
shapes = (
{
closed = 1;
nodes = (
(-24,342,l),
(115,350,l),
(115,201,ls),
(115,60,o),
(190,-20,o),
(335,-20,cs),
(426,-20,o),
(531,4,o),
(627,60,c),
(627,-12,l),
(850,73,l),
(848,81,l),
(710,70,l),
(711,435,l),
(483,350,l),
(485,342,l),
(623,350,l),
(623,97,l),
(550,57,o),
(474,36,o),
(400,36,cs),
(271,36,o),
(202,92,o),
(202,201,cs),
(202,435,l),
(-26,350,l)
);
}
);
width = 823;
},
{
anchors = (
{
name = bottom;
pos = (260,0);
},
{
name = ogonek;
pos = (367,10);
},
{
name = top;
pos = (221,402);
},
{
name = topright;
pos = (471,402);
}
);
layerId = m003;
shapes = (
{
closed = 1;
nodes = (
(-30,337,l),
(79,345,l),
(79,138,ls),
(79,31,o),
(114,-20,o),
(189,-20,cs),
(237,-20,o),
(289,3,o),
(332,41,c),
(332,-20,l),
(504,56,l),
(502,64,l),
(405,53,l),
(405,422,l),
(221,345,l),
(223,337,l),
(332,345,l),
(332,77,l),
(300,50,o),
(264,32,o),
(227,32,cs),
(174,32,o),
(152,68,o),
(152,149,cs),
(152,422,l),
(-32,345,l)
);
}
);
width = 487;
},
{
anchors = (
{
name = bottom;
pos = (197,0);
},
{
name = ogonek;
pos = (348,10);
},
{
name = top;
pos = (204,392);
},
{
name = topright;
pos = (461,392);
}
);
background = {
shapes = (
{
closed = 1;
nodes = (
(121,411,l),
(-20,345,l),
(-18,337,l),
(91,345,l),
(91,127,ls),
(91,35,o),
(130,-20,o),
(194,-20,cs),
(244,-20,o),
(290,2,o),
(344,75,c),
(344,103,l),
(287,24,o),
(247,5,o),
(204,5,cs),
(152,5,o),
(121,53,o),
(121,134,cs)
);
},
{
closed = 1;
nodes = (
(320,-20,l),
(461,46,l),
(459,54,l),
(350,46,l),
(350,411,l),
(209,345,l),
(211,337,l),
(320,345,l)
);
}
);
};
layerId = "2C26E880-80A5-4D19-8A94-7D905A372841";
shapes = (
{
closed = 1;
nodes = (
(-19,337,l),
(90,345,l),
(90,128,ls),
(90,34,o),
(129,-20,o),
(194,-20,cs),
(236,-20,o),
(278,-3,o),
(322,45,c),
(322,-20,l),
(466,47,l),
(464,55,l),
(356,47,l),
(356,412,l),
(211,345,l),
(213,337,l),
(322,345,l),
(322,73,l),
(278,22,o),
(243,8,o),
(207,8,cs),
(155,8,o),
(124,54,o),
(124,136,cs),
(124,412,l),
(-21,345,l)
);
}
);
width = 460;
},
{
anchors = (
{
name = bottom;
pos = (347,0);
},
{
name = ogonek;
pos = (628,10);
},
{
name = top;
pos = (354,401);
},
{
name = topright;
pos = (804,401);
}
);
associatedMasterId = "0CCC0E2D-406A-4672-8E6C-854B1DF78A27";
layerId = "EB8E1D8C-EBF8-4030-A0AB-4A3A78BC6597";
name = "25 Sep 22, 12:30";
shapes = (
{
closed = 1;
nodes = (
(-37,342,l),
(102,350,l),
(102,187,ls),
(102,47,o),
(190,-20,o),
(335,-20,cs),
(437,-20,o),
(515,12,o),
(588,60,c),
(588,-12,l),
(763,59,l),
(761,67,l),
(623,56,l),
(624,421,l),
(444,350,l),
(446,342,l),
(584,350,l),
(584,85,l),
(518,41,o),
(436,10,o),
(346,10,cs),
(217,10,o),
(141,78,o),
(141,187,cs),
(141,421,l),
(-39,350,l)
);
}
);
width = 770;
}
);
unicode = 117;
}
{
glyphname = w;
kernLeft = w;
kernRight = w;
layers = (
{
anchors = (
{
name = bottom;
pos = (450,0);
},
{
name = top;
pos = (450,410);
}
);
layerId = "0CCC0E2D-406A-4672-8E6C-854B1DF78A27";
shapes = (
{
closed = 1;
nodes = (
(69,351,l),
(251,0,l),
(273,0,l),
(459,403,l),
(443,389,l),
(641,0,l),
(659,0,l),
(826,351,l),
(956,393,l),
(954,401,l),
(625,401,l),
(623,393,l),
(793,351,l),
(647,30,l),
(662,39,l),
(468,411,l),
(425,397,l),
(254,24,l),
(268,39,l),
(109,351,l),
(289,393,l),
(287,401,l),
(-59,401,l),
(-61,393,l)
);
}
);
width = 890;
},
{
anchors = (
{
name = bottom;
pos = (465,0);
},
{
name = top;
pos = (465,410);
}
);
associatedMasterId = "0CCC0E2D-406A-4672-8E6C-854B1DF78A27";
layerId = "1E5D7240-53D5-4E45-9824-2A19EDC0E60D";
name = "16 Jan 22, 11:25";
shapes = (
{
closed = 1;
nodes = (
(60,360,l),
(266,0,l),
(311,0,l),
(480,412,l),
(447,398,l),
(621,0,l),
(661,0,l),
(840,360,l),
(970,402,l),
(968,410,l),
(623,410,l),
(621,402,l),
(791,360,l),
(640,30,l),
(670,39,l),
(497,420,l),
(440,406,l),
(287,24,l),
(311,39,l),
(140,360,l),
(320,402,l),
(318,410,l),
(-68,410,l),
(-70,402,l)
);
}
);
width = 940;
},
{
anchors = (
{
name = bottom;
pos = (473,0);
},
{
name = top;
pos = (473,410);
}
);
layerId = m002;
shapes = (
{
closed = 1;
nodes = (
(55,365,l),
(244,0,l),
(301,0,l),
(491,417,l),
(449,403,l),
(641,0,l),
(693,0,l),
(863,365,l),
(993,407,l),
(991,415,l),
(637,415,l),
(635,407,l),
(805,365,l),
(667,30,l),
(705,39,l),
(513,425,l),
(448,411,l),
(274,24,l),
(304,39,l),
(157,365,l),
(337,407,l),
(335,415,l),
(-73,415,l),
(-75,407,l)
);
}
);
width = 913;
},
{
anchors = (
{
name = bottom;
pos = (465,0);
},
{
name = top;
pos = (465,410);
}
);
associatedMasterId = m002;
layerId = "39A4A949-9757-4675-A48D-3EE1DDC2619A";
name = "16 Jan 22, 11:25";
shapes = (
{
closed = 1;
nodes = (
(60,360,l),
(266,0,l),
(311,0,l),
(480,412,l),
(447,398,l),
(621,0,l),
(661,0,l),
(840,360,l),
(970,402,l),
(968,410,l),
(623,410,l),
(621,402,l),
(791,360,l),
(640,30,l),
(670,39,l),
(497,420,l),
(440,406,l),
(287,24,l),
(311,39,l),
(140,360,l),
(320,402,l),
(318,410,l),
(-68,410,l),
(-70,402,l)
);
}
);
width = 940;
},
{
anchors = (
{
name = bottom;
pos = (289,0);
},
{
name = top;
pos = (289,402);
}
);
layerId = m003;
shapes = (
{
closed = 1;
nodes = (
(28,357,l),
(147,0,l),
(192,0,l),
(305,404,l),
(268,390,l),
(382,0,l),
(425,0,l),
(526,357,l),
(596,394,l),
(594,402,l),
(415,402,l),
(413,394,l),
(483,357,l),
(396,7,l),
(422,35,l),
(322,412,l),
(269,398,l),
(168,22,l),
(192,39,l),
(106,357,l),
(186,394,l),
(184,402,l),
(-40,402,l),
(-42,394,l)
);
}
);
width = 564;
},
{
anchors = (
{
name = bottom;
pos = (465,0);
},
{
name = top;
pos = (465,410);
}
);
associatedMasterId = m003;
layerId = "95DCC279-FC74-4CC7-95D2-251E8717961E";
name = "16 Jan 22, 11:25";
shapes = (
{
closed = 1;
nodes = (
(60,360,l),
(266,0,l),
(311,0,l),
(480,412,l),
(447,398,l),
(621,0,l),
(661,0,l),
(840,360,l),
(970,402,l),
(968,410,l),
(623,410,l),
(621,402,l),
(791,360,l),
(640,30,l),
(670,39,l),
(497,420,l),
(440,406,l),
(287,24,l),
(311,39,l),
(140,360,l),
(320,402,l),
(318,410,l),
(-68,410,l),
(-70,402,l)
);
}
);
width = 940;
},
{
anchors = (
{
name = bottom;
pos = (271,0);
},
{
name = top;
pos = (270,392);
}
);
layerId = "2C26E880-80A5-4D19-8A94-7D905A372841";
shapes = (
{
closed = 1;
nodes = (
(39,347,l),
(154,0,l),
(172,0,l),
(282,394,l),
(264,380,l),
(383,0,l),
(401,0,l),
(498,347,l),
(568,384,l),
(566,392,l),
(400,392,l),
(398,384,l),
(468,347,l),
(386,31,l),
(407,35,l),
(289,402,l),
(252,388,l),
(151,33,l),
(172,39,l),
(78,347,l),
(158,384,l),
(156,392,l),
(-29,392,l),
(-31,384,l)
);
}
);
width = 547;
}
);
unicode = 119;
}
